{"glyphs":{"0":{"ha":564,"x_min":0,"x_max":0,"o":"m 156 -10 b 550 661 343 -10 550 383 b 410 892 550 746 524 892 b 14 221 221 892 14 494 b 156 -10 14 135 40 -10 z m 410 857 b 515 663 497 857 515 733 b 156 25 515 403 319 25 b 49 219 67 25 49 147 b 410 857 49 481 247 857 z "},"1":{"ha":413,"x_min":0,"x_max":0,"o":"m 283 808 b 290 810 286 808 289 808 l 349 839 l 21 14 b 19 6 19 13 19 7 b 38 -10 19 -1 26 -10 b 53 1 44 -10 50 -6 l 400 869 b 403 882 403 875 403 882 b 390 894 403 889 396 894 b 378 892 386 894 381 893 l 275 840 b 267 826 269 838 267 832 b 283 808 267 818 271 808 z "},"2":{"ha":564,"x_min":0,"x_max":0,"o":"m 313 -11 b 408 47 347 -11 381 4 b 411 57 410 50 411 54 b 393 74 411 65 403 74 b 379 65 388 74 383 71 b 311 24 360 35 338 24 b 135 90 260 24 190 69 b 354 317 207 150 285 229 b 544 715 435 418 544 596 b 356 899 544 828 463 899 b 124 681 238 899 124 807 b 143 607 124 650 131 625 b 157 600 146 603 151 600 b 174 615 165 600 174 606 b 158 682 174 632 158 629 b 354 864 158 782 253 864 b 510 715 438 864 510 813 b 332 346 510 608 411 446 b 96 104 257 250 171 164 b 18 115 67 113 40 115 b -94 40 -24 115 -94 96 b -42 -8 -94 13 -75 -8 b 1 1 -29 -8 -14 -6 b 104 65 32 15 67 38 b 313 -11 172 43 242 -11 z m 18 81 b 60 76 31 81 44 81 b -12 33 32 57 8 43 b -42 25 -25 28 -35 25 b -60 40 -50 25 -60 29 b 18 81 -60 72 -7 81 z "},"3":{"ha":564,"x_min":0,"x_max":0,"o":"m 78 -8 b 399 168 213 -8 329 56 b 456 331 440 235 456 289 b 403 447 456 375 438 418 b 576 740 486 514 576 624 b 399 894 576 838 494 894 b 175 733 310 894 178 843 b 193 715 175 724 183 715 b 210 733 203 715 210 724 b 400 861 213 818 324 861 b 540 740 469 861 540 821 b 372 468 540 635 457 533 b 301 485 351 479 326 485 b 160 407 261 485 160 464 b 211 369 160 382 183 369 b 374 426 267 369 321 394 b 419 333 403 404 419 374 b 369 186 419 292 403 240 b 78 26 306 85 200 26 b -60 106 19 26 -60 47 b -43 150 -60 131 -43 136 b -60 167 -43 158 -49 167 b -72 161 -64 167 -69 165 b -94 106 -87 146 -94 126 b 78 -8 -94 25 4 -8 z m 194 411 b 301 450 194 422 246 449 b 338 444 313 450 325 449 b 213 404 303 425 257 404 b 194 411 196 404 194 406 z "},"4":{"ha":564,"x_min":0,"x_max":0,"o":"m 490 329 b 508 347 500 329 508 338 b 490 364 508 357 500 364 l 383 364 l 596 871 b 597 878 597 874 597 875 b 582 896 597 889 592 896 b 569 892 576 896 572 894 l 15 363 b 4 347 10 357 4 354 b 25 329 4 338 13 329 l 332 329 l 200 14 b 199 6 199 11 199 7 b 217 -10 199 -3 206 -10 b 232 1 224 -10 229 -6 l 368 329 z m 67 364 l 532 808 l 346 364 z "},"5":{"ha":564,"x_min":0,"x_max":0,"o":"m 117 492 b 131 497 122 492 128 496 b 293 543 149 507 218 543 b 449 383 383 543 449 485 b 275 68 449 275 379 138 b 154 28 232 40 190 28 b 19 138 96 28 19 67 b 42 203 19 182 42 193 b 26 221 42 210 39 221 b 11 215 21 221 15 219 b -15 139 -8 193 -15 165 b 156 -7 -15 53 67 -7 b 294 39 199 -7 246 7 b 482 383 401 110 482 258 b 293 576 482 496 408 576 b 158 547 242 576 193 561 l 326 843 l 579 843 b 597 861 589 843 597 851 b 579 878 597 871 589 878 l 315 878 b 300 869 310 878 304 875 l 101 518 b 99 507 99 514 99 510 b 117 492 99 497 108 492 z "},"6":{"ha":564,"x_min":0,"x_max":0,"o":"m 206 -12 b 476 319 367 -12 476 163 b 296 521 476 433 413 521 b 142 471 243 521 188 503 b 215 588 164 513 189 551 b 488 867 339 758 482 864 b 494 881 492 869 494 875 b 478 897 494 889 489 897 b 468 894 474 897 471 897 b 190 613 458 888 314 783 b 18 190 106 496 18 325 b 206 -12 18 82 83 -12 z m 97 376 b 293 486 140 443 218 486 b 442 318 385 486 442 419 b 206 21 442 192 353 21 b 53 189 110 21 53 94 b 97 376 53 251 72 313 z "},"7":{"ha":564,"x_min":0,"x_max":0,"o":"m 60 -7 b 74 3 65 -7 69 -3 l 575 846 b 581 861 578 850 581 856 b 564 878 581 871 572 878 l 153 878 b 136 860 144 878 136 869 b 153 843 136 850 144 843 l 532 843 l 43 21 b 39 7 40 17 39 11 b 60 -7 39 0 47 -7 z "},"8":{"ha":564,"x_min":0,"x_max":0,"o":"m 131 -8 b 410 204 254 -8 410 57 b 381 325 410 238 403 279 b 300 464 374 340 333 408 b 608 782 492 619 608 721 b 604 796 608 788 608 793 b 606 803 606 797 606 800 b 444 888 606 860 511 888 b 221 781 361 888 271 854 b 193 681 201 750 193 717 b 257 472 193 613 222 538 b 47 292 181 410 103 346 b -42 124 -11 236 -42 176 b 131 -8 -42 33 38 -8 z m 274 442 b 349 310 290 414 328 349 b 375 204 368 272 375 236 b 132 26 375 83 244 26 b -7 124 67 26 -7 47 b 71 267 -7 167 21 218 b 274 442 124 318 199 381 z m 444 853 b 572 799 478 853 564 840 b 575 790 572 796 574 793 l 575 782 b 283 494 575 735 417 604 b 228 679 253 556 228 621 b 250 761 228 708 235 738 b 444 853 293 825 372 853 z "},"9":{"ha":564,"x_min":0,"x_max":0,"o":"m 88 -8 b 100 -3 92 -8 96 -7 b 292 214 107 4 196 94 b 515 581 381 325 474 461 b 540 714 532 629 540 674 b 388 890 540 811 488 890 b 107 542 231 890 107 696 b 265 356 107 451 153 356 b 379 393 304 356 343 369 b 267 238 344 339 306 286 b 75 21 169 115 76 22 b 69 8 71 17 69 13 b 88 -8 69 0 76 -8 z m 388 856 b 506 713 464 856 506 796 b 461 539 506 676 499 610 b 264 390 417 454 339 390 b 142 543 178 390 142 467 b 388 856 142 665 247 856 z "},"\r":{"ha":342,"x_min":0,"x_max":0,"o":""}," ":{"ha":342,"x_min":0,"x_max":0,"o":""},"!":{"ha":342,"x_min":0,"x_max":0,"o":"m 168 260 b 185 271 175 260 182 264 l 432 847 b 433 854 433 850 433 851 b 415 871 433 863 426 871 b 400 860 408 871 403 867 l 153 283 b 151 276 151 281 151 279 b 168 260 151 268 157 260 z m 107 43 b 78 72 107 58 93 72 b 49 43 61 72 49 58 b 78 14 49 26 61 14 b 107 43 93 14 107 26 z "},"\"":{"ha":213,"x_min":0,"x_max":0,"o":"m 200 689 b 215 700 207 689 213 693 l 290 856 b 292 863 292 858 292 860 b 275 881 292 869 286 881 b 258 871 268 881 261 876 l 185 714 b 183 706 183 711 183 708 b 200 689 183 699 192 689 z m 104 689 b 119 700 110 689 117 693 l 193 856 b 194 864 194 858 194 861 b 178 881 194 872 189 881 b 163 871 171 881 165 876 l 88 714 b 86 707 86 711 86 710 b 104 689 86 699 94 689 z "},"#":{"ha":683,"x_min":0,"x_max":0,"o":"m 672 638 b 689 656 682 638 689 646 b 672 672 689 664 682 672 l 551 672 l 633 856 b 635 864 635 858 635 861 b 618 881 635 871 629 881 b 603 871 611 881 604 876 l 514 672 l 313 672 l 394 856 b 396 864 396 858 396 861 b 379 881 396 871 390 881 b 364 871 372 881 365 876 l 275 672 l 140 672 b 122 656 131 672 122 664 b 140 638 122 646 131 638 l 260 638 l 168 433 l 33 433 b 17 415 24 433 17 425 b 33 399 17 407 24 399 l 153 399 l 72 215 b 71 207 71 213 71 210 b 88 190 71 200 76 190 b 104 200 94 190 101 194 l 192 399 l 392 399 l 311 215 b 310 208 310 214 310 211 b 326 190 310 200 315 190 b 343 200 333 190 340 194 l 431 399 l 565 399 b 583 415 575 399 583 407 b 565 433 583 425 575 433 l 446 433 l 536 638 z m 297 638 l 499 638 l 407 433 l 207 433 z "},"$":{"ha":399,"x_min":0,"x_max":0,"o":"m 157 264 b 317 399 243 264 317 311 b 251 557 317 449 290 503 l 343 779 b 383 754 361 774 374 765 b 396 714 392 743 396 729 b 390 676 396 686 390 690 b 408 657 390 668 396 657 b 425 671 417 657 422 663 b 431 711 429 685 431 699 b 357 811 431 760 404 799 l 378 861 b 379 868 379 864 379 865 b 361 885 379 876 372 885 b 346 875 354 885 349 881 l 322 819 b 286 822 311 821 299 822 b 143 694 213 822 143 774 b 213 553 143 653 167 607 l 110 303 b 78 315 99 306 88 310 b 35 371 50 329 35 353 b 38 399 35 379 38 389 b 22 417 38 404 32 417 b 0 375 3 417 0 393 b 61 285 0 338 21 304 b 96 271 71 279 83 275 l 82 238 b 81 229 81 235 81 232 b 97 214 81 221 86 214 b 114 224 104 214 111 217 l 131 265 b 157 264 139 264 149 264 z m 236 518 b 282 399 267 469 282 435 b 157 299 282 332 224 299 l 144 299 z m 286 788 b 308 786 294 788 301 788 l 228 590 b 178 696 206 615 178 657 b 286 788 178 750 232 788 z "},"%":{"ha":729,"x_min":0,"x_max":0,"o":"m 129 15 b 144 24 136 15 142 18 l 632 876 b 635 885 633 879 635 882 b 615 904 635 897 628 904 b 601 894 610 904 604 900 l 581 858 b 356 728 528 783 436 740 b 357 754 356 736 357 746 b 264 892 357 810 336 892 b 53 569 144 892 53 686 b 146 435 53 510 75 439 b 342 656 219 435 306 532 b 350 693 344 668 349 681 b 522 757 407 700 469 721 l 114 40 b 113 32 113 38 113 35 b 129 15 113 24 117 15 z m 465 -3 b 661 219 539 -3 625 94 b 676 319 671 254 676 289 b 583 454 676 375 654 454 b 388 233 510 454 424 357 b 372 133 378 197 372 164 b 465 -3 372 76 394 -3 z m 585 419 b 640 321 629 419 640 365 b 626 228 640 293 636 261 b 464 32 596 122 522 32 b 407 132 419 32 407 93 b 421 224 407 160 413 192 b 585 419 451 331 526 419 z m 314 692 b 308 665 313 682 311 674 b 144 469 276 560 203 469 b 88 569 100 469 88 531 b 101 661 88 597 93 628 b 167 790 115 710 139 756 b 221 710 167 756 185 726 b 314 692 246 697 278 692 z m 265 857 b 321 758 310 857 321 797 b 319 725 321 747 321 736 l 311 725 b 201 790 271 725 201 736 b 214 838 201 806 207 822 b 265 857 231 850 249 857 z "},"&":{"ha":622,"x_min":0,"x_max":0,"o":"m 69 -29 b 364 117 168 -29 242 21 b 411 0 389 51 408 7 b 426 -10 414 -6 419 -10 b 444 8 436 -10 444 -3 b 443 14 444 11 443 13 b 393 140 442 17 421 65 b 622 356 494 219 613 319 b 624 360 622 357 624 358 b 606 378 624 368 615 378 b 589 365 597 378 592 372 b 381 174 583 344 485 257 b 303 453 353 254 322 354 b 574 769 372 500 574 642 b 440 900 574 839 515 900 b 300 822 382 900 332 865 b 249 629 263 771 249 706 b 264 467 249 578 254 522 b -28 201 164 392 40 308 b -68 85 -58 154 -68 115 b 69 -29 -68 11 -8 -29 z m 272 429 b 351 151 293 329 324 229 b 68 6 283 94 179 6 b -33 85 17 6 -33 28 b 1 183 -33 113 -22 147 b 272 429 60 272 167 353 z m 439 865 b 539 771 489 865 539 826 b 296 490 539 668 371 542 b 282 631 288 539 282 586 b 325 800 282 681 290 749 b 439 865 346 831 392 865 z "},"'":{"ha":189,"x_min":0,"x_max":0,"o":"m 147 688 b 163 699 153 688 160 692 l 236 854 b 239 864 238 857 239 861 b 221 881 239 872 232 881 b 206 869 214 881 208 875 l 131 713 b 129 703 129 710 129 706 b 147 688 129 694 138 688 z "},"(":{"ha":440,"x_min":0,"x_max":0,"o":"m 94 -433 b 111 -415 104 -433 111 -425 b 94 -399 111 -407 104 -399 b -1 -207 10 -399 -1 -274 b 94 244 -1 -89 32 74 b 583 897 225 599 449 897 b 601 914 594 897 601 904 b 585 932 601 924 594 932 b 63 257 432 932 203 636 b -36 -207 -3 81 -36 -83 b 94 -433 -36 -289 -22 -432 z "},")":{"ha":440,"x_min":0,"x_max":0,"o":"m -143 -439 b 378 236 10 -439 239 -143 b 476 697 443 413 476 575 b 347 925 476 778 460 925 b 329 908 338 925 329 918 b 347 890 329 899 338 890 b 442 699 432 890 442 764 b 346 247 442 581 408 419 b -143 -404 215 -106 -8 -404 b -161 -422 -153 -404 -161 -412 b -143 -439 -161 -431 -153 -439 z "},"*":{"ha":546,"x_min":0,"x_max":0,"o":"m 69 435 b 79 438 74 435 76 436 l 276 564 l 211 415 b 210 406 210 411 210 408 b 226 390 210 397 217 390 b 243 401 233 390 239 394 l 317 571 l 421 447 b 433 442 424 443 429 442 b 451 458 442 442 451 449 b 447 469 451 463 450 467 l 335 603 l 565 751 b 574 767 571 756 574 761 b 557 783 574 774 567 783 b 547 781 554 783 550 782 l 354 656 l 415 796 b 417 804 417 799 417 801 b 400 821 417 811 411 821 b 383 810 393 821 386 817 l 307 636 l 206 760 b 192 768 203 764 196 768 b 174 749 182 768 174 758 b 179 738 174 746 176 740 l 283 611 l 60 467 b 53 451 56 463 53 457 b 69 435 53 443 60 435 z "},"+":{"ha":594,"x_min":0,"x_max":0,"o":"m 504 358 b 522 376 514 358 522 367 b 504 393 522 386 514 393 l 297 393 l 379 596 b 381 601 381 597 381 600 b 364 619 381 611 375 619 b 347 608 357 619 350 615 l 261 393 l 47 393 b 31 376 39 393 31 386 b 47 358 31 367 39 358 l 247 358 l 174 175 b 172 167 172 172 172 169 b 189 151 172 160 178 151 b 206 161 196 151 203 156 l 283 358 l 504 358 z "},",":{"ha":211,"x_min":0,"x_max":0,"o":"m -42 -110 b -28 -103 -36 -110 -32 -107 b 43 33 -15 -86 43 -6 b 13 65 43 50 31 65 b -17 38 -3 65 -17 53 b 1 10 -17 25 -8 14 b -56 -82 -10 -15 -33 -53 b -58 -92 -58 -85 -58 -87 b -42 -110 -58 -100 -53 -110 z "},"-":{"ha":538,"x_min":0,"x_max":0,"o":"m 457 347 b 474 365 467 347 474 356 b 457 382 474 375 467 382 l 69 382 b 51 365 60 382 51 375 b 69 347 51 356 60 347 l 457 347 z "},".":{"ha":211,"x_min":0,"x_max":0,"o":"m 46 40 b 17 69 46 56 33 69 b -11 40 1 69 -11 56 b 17 11 -11 24 1 11 b 46 40 33 11 46 24 z "},"/":{"ha":533,"x_min":0,"x_max":0,"o":"m 8 -17 b 24 -7 15 -17 21 -14 l 449 881 b 450 888 450 883 450 885 b 432 904 450 896 443 904 b 417 894 425 904 419 901 l -7 8 b -8 0 -8 6 -8 3 b 8 -17 -8 -7 -3 -17 z "},":":{"ha":239,"x_min":0,"x_max":0,"o":"m 15 40 b -14 69 15 56 3 69 b -42 40 -29 69 -42 56 b -14 11 -42 24 -29 11 b 15 40 3 11 15 24 z m 154 378 b 125 407 154 394 142 407 b 97 378 110 407 97 394 b 125 350 97 363 110 350 b 154 378 142 350 154 363 z "},";":{"ha":236,"x_min":0,"x_max":0,"o":"m -50 -111 b -36 -103 -44 -111 -40 -108 b 35 36 -26 -90 35 -7 b 4 65 35 51 21 65 b -25 38 -11 65 -25 53 b -7 10 -25 25 -17 14 b -64 -82 -18 -15 -40 -51 b -68 -94 -67 -85 -68 -90 b -50 -111 -68 -103 -61 -111 z m 183 385 b 156 413 183 400 171 413 b 126 385 139 413 126 400 b 156 356 126 368 139 356 b 183 385 171 356 183 368 z "},"<":{"ha":506,"x_min":0,"x_max":0,"o":"m 403 165 b 421 182 413 165 421 171 b 411 199 421 189 418 194 l 100 378 l 413 578 b 419 592 417 582 419 586 b 403 610 419 600 413 610 b 393 607 400 610 396 608 l 58 392 b 50 376 53 388 50 382 b 58 361 50 371 53 365 l 394 168 b 403 165 397 167 400 165 z "},"=":{"ha":569,"x_min":0,"x_max":0,"o":"m 451 347 b 469 365 461 347 469 356 b 451 382 469 375 461 382 l 64 382 b 47 365 54 382 47 375 b 64 347 47 356 54 347 z m 515 486 b 533 504 525 486 533 494 b 515 521 533 513 525 521 l 128 521 b 111 504 118 521 111 513 b 128 486 111 494 118 486 z "},">":{"ha":506,"x_min":0,"x_max":0,"o":"m 94 165 b 103 168 97 165 100 167 l 438 361 b 447 376 443 365 447 371 b 439 392 447 382 444 388 l 104 607 b 93 611 100 610 96 611 b 76 592 83 611 76 603 b 85 578 76 586 79 582 l 396 378 l 86 199 b 76 183 81 194 76 190 b 94 165 76 174 82 165 z "},"?":{"ha":599,"x_min":0,"x_max":0,"o":"m 251 257 b 265 265 257 257 263 260 b 439 431 303 322 365 374 b 626 735 556 522 626 638 b 468 885 626 831 560 885 b 332 838 421 885 375 868 b 199 633 249 778 199 681 b 214 614 199 624 206 614 b 233 631 224 614 233 621 b 351 810 233 672 281 758 b 467 850 390 838 428 850 b 590 736 532 850 590 818 b 417 458 590 661 539 554 b 236 283 342 400 276 346 b 233 274 235 281 233 276 b 251 257 233 265 242 257 z m 161 38 b 132 65 161 53 149 65 b 104 38 117 65 104 53 b 132 8 104 21 117 8 b 161 38 149 8 161 21 z "},"@":{"ha":888,"x_min":0,"x_max":0,"o":"m 253 -10 b 450 138 335 -10 403 74 b 439 64 443 111 439 86 b 490 -10 439 35 456 -10 b 739 199 567 -10 638 51 b 853 510 744 206 853 364 b 610 708 853 640 751 708 b 333 629 524 708 426 681 b -43 43 78 485 -43 246 b 229 -292 -43 -126 44 -292 b 336 -274 263 -292 299 -286 b 349 -257 344 -271 349 -264 b 331 -239 349 -249 340 -239 b 228 -257 318 -239 292 -257 b -8 44 69 -257 -8 -110 b 351 599 -8 235 107 461 b 610 674 439 647 531 674 b 818 507 714 674 818 632 b 696 197 818 382 739 261 b 496 25 640 114 558 26 b 474 67 478 25 474 47 b 596 392 474 142 544 297 b 600 408 599 397 600 401 b 572 425 600 418 586 422 b 533 429 557 428 542 429 b 261 282 472 429 369 407 b 172 86 204 218 172 144 b 253 -10 172 39 199 -10 z m 557 393 b 510 296 546 371 528 336 b 399 126 483 253 446 185 b 253 25 365 85 314 25 b 207 85 221 25 207 53 b 288 258 207 131 232 196 b 533 394 388 374 481 394 b 557 393 543 394 550 394 z "},"A":{"ha":783,"x_min":0,"x_max":0,"o":"m 126 -12 b 506 272 260 -12 406 136 b 449 68 472 189 449 118 b 525 -12 449 22 474 -12 b 799 201 603 -12 704 92 b 803 213 801 204 803 208 b 786 231 803 221 797 231 b 774 225 781 231 776 229 b 525 22 711 156 594 22 b 482 69 497 22 482 39 b 589 379 482 135 536 258 l 607 421 b 778 822 682 594 775 818 b 788 838 782 824 788 826 b 782 849 788 842 785 846 b 642 886 757 875 708 886 b 139 607 557 886 338 857 b -28 193 19 457 -28 306 b 126 -12 -28 93 11 -12 z m 743 835 b 585 460 699 721 639 585 b 124 22 490 285 292 22 b 6 194 38 22 6 114 b 165 585 6 299 51 440 b 642 851 356 824 563 851 b 743 835 692 851 726 843 z "},"B":{"ha":807,"x_min":0,"x_max":0,"o":"m -3 -6 b 14 6 4 -6 11 -3 l 132 292 b 599 856 215 464 428 856 b 694 747 664 856 694 814 b 475 457 694 647 610 521 b 354 417 429 451 371 432 b 346 401 350 414 346 407 b 371 386 346 393 353 386 b 489 425 407 386 454 411 b 517 428 499 426 507 428 b 689 276 604 428 689 389 b 308 11 689 90 469 11 b 142 53 233 11 169 26 b 131 76 133 61 131 68 b 140 108 131 94 140 97 b 124 125 140 115 135 125 b 96 76 103 125 96 94 b 117 29 96 58 103 43 b 310 -25 153 -6 226 -25 b 724 276 478 -25 724 65 b 554 461 724 379 657 449 b 729 746 639 519 729 622 b 600 890 729 821 692 890 b 263 603 486 890 363 758 b 336 806 294 683 336 775 b 238 881 336 863 286 881 b 43 772 181 881 64 844 b 60 750 39 760 50 750 b 78 764 69 750 76 756 b 238 846 88 811 185 846 b 300 807 261 846 300 840 b 90 279 300 769 175 481 l -19 18 b -21 11 -21 15 -21 13 b -3 -6 -21 3 -14 -6 z "},"C":{"ha":643,"x_min":0,"x_max":0,"o":"m 275 -28 b 657 201 449 -28 569 103 b 663 214 660 204 663 210 b 644 231 663 222 654 231 b 632 225 640 231 635 228 b 275 7 536 117 433 7 b 69 224 131 7 69 86 b 539 857 69 467 313 857 b 625 757 594 857 625 822 b 511 560 625 681 579 586 b 500 544 504 557 500 551 b 518 526 500 535 507 526 b 524 528 521 526 522 526 b 658 757 606 560 658 668 b 539 892 658 833 619 892 b 35 222 289 892 35 483 b 275 -28 35 78 104 -28 z "},"D":{"ha":872,"x_min":0,"x_max":0,"o":"m 19 -36 b 138 29 47 -36 94 -22 b 353 -12 196 8 268 -12 b 831 522 635 -12 831 267 b 451 889 831 743 671 889 b 267 857 390 889 324 879 b 118 683 182 824 118 758 b 146 636 118 660 125 636 b 165 654 156 636 165 643 b 157 667 165 658 161 664 b 153 683 154 669 153 674 b 157 711 153 690 153 700 b 271 821 174 764 219 799 b 454 854 329 846 396 854 b 796 521 647 854 796 735 b 351 22 796 296 625 22 b 158 60 276 22 213 40 b 307 397 210 139 257 264 b 503 799 369 564 433 738 b 508 811 507 801 508 807 b 492 829 508 819 504 829 b 479 824 488 829 483 826 b 272 410 404 758 336 581 b 125 71 222 276 175 146 b 11 101 81 86 40 101 b -60 35 -25 101 -60 74 b 19 -36 -60 -6 -28 -36 z m 11 67 b 103 42 33 67 65 56 b 19 -3 85 25 56 -3 b -26 33 0 -3 -26 10 b 11 67 -26 51 -10 67 z "},"E":{"ha":624,"x_min":0,"x_max":0,"o":"m 199 -43 b 636 201 378 -43 518 65 b 643 215 639 204 643 211 b 624 232 643 224 635 232 b 611 225 619 232 615 229 b 201 -7 508 107 371 -7 b -3 165 100 -7 -3 46 b 285 433 -3 304 161 407 b 403 379 314 403 356 379 b 471 424 428 379 471 389 b 369 481 471 469 407 481 b 297 472 349 481 325 478 b 249 635 267 517 249 574 b 433 849 249 740 304 849 b 563 779 486 849 557 825 b 581 763 564 768 571 763 b 597 779 590 763 597 767 b 433 883 597 846 506 883 b 214 635 289 883 214 768 b 261 464 214 576 228 518 b -37 165 126 426 -37 322 b 199 -43 -37 38 68 -43 z m 326 442 b 369 446 343 444 357 446 b 436 424 389 446 436 438 b 406 415 436 418 422 415 b 326 442 376 415 351 422 z "},"F":{"ha":711,"x_min":0,"x_max":0,"o":"m 233 685 b 251 701 242 685 251 692 b 240 718 251 708 247 715 b 206 769 219 728 206 747 b 243 832 206 800 221 819 b 317 847 264 843 292 847 b 504 824 374 847 438 836 b 622 804 542 817 582 810 b 440 417 571 753 517 618 l 264 417 b 247 400 254 417 247 410 b 264 382 247 390 254 382 l 426 382 b 314 106 388 279 349 176 b 168 13 285 46 231 13 b 24 107 108 13 46 43 b 8 119 21 114 15 119 b -8 103 -1 119 -8 113 b -7 94 -8 101 -8 97 b 167 -22 15 26 78 -22 b 344 90 242 -22 310 19 b 464 382 382 167 422 275 l 606 382 b 624 400 615 382 624 390 b 606 417 624 410 615 417 l 476 417 b 661 790 540 585 611 768 b 669 799 664 792 668 794 b 732 796 690 797 711 796 b 936 840 800 796 869 807 b 946 856 943 843 946 849 b 929 874 946 864 940 874 b 921 872 926 874 924 874 b 732 832 860 842 796 832 b 511 858 658 832 586 844 b 322 883 442 872 381 883 b 221 860 285 883 249 876 b 171 771 190 842 171 806 b 226 686 171 733 192 700 b 233 685 229 685 231 685 z "},"G":{"ha":928,"x_min":0,"x_max":0,"o":"m -172 -33 b 268 343 -83 -33 106 144 b 497 671 360 454 443 572 b 536 668 508 669 522 668 b 874 739 668 668 804 699 b 500 71 840 600 719 211 b 351 131 447 86 397 108 b 240 175 311 149 274 167 b 206 181 228 179 215 181 b 151 131 176 181 151 163 b 224 21 151 90 186 47 b 343 -15 250 3 289 -15 b 504 32 397 -15 453 3 b 618 17 540 22 579 17 b 779 56 669 17 724 26 b 942 201 832 83 875 129 b 947 213 944 204 947 208 b 928 231 947 222 940 231 b 917 225 924 231 919 228 b 763 86 857 160 810 111 b 621 51 714 61 667 51 b 544 60 594 51 569 54 b 917 781 794 244 917 729 b 900 800 917 796 907 800 b 882 788 892 800 883 794 b 536 703 846 746 694 703 b 514 704 529 703 521 704 b 560 850 538 746 560 797 b 489 925 560 890 533 925 b 374 786 424 925 374 849 b 461 678 374 733 406 694 b 243 368 408 585 329 474 b -172 1 83 174 -99 1 b -190 -15 -182 1 -190 -6 b -172 -33 -190 -25 -182 -33 z m 206 146 b 338 99 239 146 296 118 b 458 47 375 81 415 63 b 342 19 424 31 385 19 b 243 49 297 19 265 33 b 186 124 207 75 186 111 b 206 146 186 135 190 146 z m 489 890 b 526 849 511 890 526 872 b 479 710 526 803 501 754 b 408 788 438 721 408 743 b 489 890 408 826 440 890 z "},"H":{"ha":813,"x_min":0,"x_max":0,"o":"m 561 -4 b 826 201 643 -4 735 100 b 831 213 829 204 831 208 b 815 231 831 222 825 231 b 801 225 811 231 806 231 b 561 31 719 135 626 31 b 522 75 532 31 522 47 b 639 438 522 147 583 299 b 819 858 676 528 743 681 b 822 867 821 861 822 865 b 804 885 822 875 815 885 b 788 874 797 885 790 881 b 624 493 751 786 678 624 b 386 425 576 414 472 425 b 171 394 299 425 231 428 b 332 815 239 569 332 765 b 236 889 332 865 286 889 b 128 864 210 889 168 882 b 40 776 83 844 40 808 b 58 758 40 767 49 758 b 74 772 67 758 74 764 b 160 840 74 792 113 822 b 233 854 185 850 214 854 b 297 814 258 854 297 849 b 65 226 297 779 151 435 l -19 22 b -21 15 -21 19 -21 17 b -3 -1 -21 7 -14 -1 b 13 10 4 -1 10 3 b 97 214 29 50 61 125 l 129 292 l 133 299 b 385 390 165 385 239 390 b 593 417 454 390 525 385 b 488 76 547 300 488 156 b 561 -4 488 33 508 -4 z "},"I":{"ha":618,"x_min":0,"x_max":0,"o":"m 81 -21 b 183 3 111 -21 146 -14 b 301 83 224 21 263 49 b 386 -17 318 8 357 -17 b 406 1 396 -17 406 -12 b 389 18 406 10 400 17 b 332 113 358 22 340 54 b 658 790 511 296 658 625 b 586 892 658 838 643 892 b 293 186 431 892 293 439 b 296 124 293 167 293 146 b 169 35 254 85 213 54 b 81 14 136 21 107 14 b -21 57 35 14 0 33 b -46 121 -37 76 -46 99 b -32 168 -46 138 -42 153 b -29 178 -31 171 -29 175 b -47 194 -29 186 -36 194 b -61 186 -53 194 -58 192 b -81 121 -74 165 -81 143 b -47 35 -81 90 -69 60 b 81 -21 -21 4 24 -21 z m 589 857 b 624 792 618 857 624 819 b 328 157 624 654 496 342 l 328 186 b 589 857 328 442 463 857 z "},"J":{"ha":574,"x_min":0,"x_max":0,"o":"m -28 -415 b 50 -393 -4 -415 22 -408 b 290 -18 150 -337 208 -214 b 588 201 396 33 474 74 b 592 213 590 204 592 208 b 575 231 592 222 586 231 b 563 225 571 231 567 229 b 310 31 467 117 396 74 b 544 647 400 249 499 486 b 554 714 551 671 554 693 b 371 881 554 813 481 881 b 79 510 178 881 79 694 b 214 61 79 285 207 72 b 228 53 217 56 222 53 b 246 69 236 53 246 60 b 243 79 246 72 244 76 b 115 511 240 82 115 293 b 371 846 115 669 192 846 b 519 715 450 846 519 800 b 511 657 519 697 517 678 b 263 7 465 499 368 260 b -3 -139 192 -26 110 -65 b -125 -317 -90 -196 -125 -264 b -28 -415 -125 -369 -86 -415 z m 243 -40 b 33 -362 172 -208 118 -315 b -28 -379 13 -374 -10 -379 b -90 -315 -68 -379 -90 -354 b 17 -168 -90 -272 -58 -217 b 243 -40 110 -108 181 -71 z "},"K":{"ha":729,"x_min":0,"x_max":0,"o":"m -3 -10 b 14 1 4 -10 11 -6 l 172 386 b 260 411 189 399 225 411 b 367 315 321 411 356 374 b 425 54 392 176 403 104 b 501 -8 438 26 463 -8 b 581 31 533 -8 561 13 b 743 201 631 79 706 161 b 747 213 746 204 747 208 b 732 231 747 221 743 231 b 718 225 728 231 722 229 b 557 56 681 183 607 103 b 504 26 544 44 524 26 b 457 68 482 26 467 47 b 400 322 421 146 421 235 b 294 443 386 379 363 422 b 508 578 363 478 438 525 b 786 828 636 672 749 778 b 792 839 789 831 792 835 b 774 857 792 847 786 857 b 760 850 768 857 763 854 b 493 611 724 801 614 701 b 193 438 389 533 276 464 b 329 775 256 589 311 726 b 338 815 335 790 338 804 b 240 890 338 868 292 890 b 44 775 178 890 44 844 b 61 760 44 768 51 760 b 79 774 69 760 79 765 b 239 856 79 819 192 856 b 303 814 276 856 303 844 b 75 240 303 782 164 457 b -18 14 35 143 -1 58 b -19 6 -19 11 -19 8 b -3 -10 -19 -1 -14 -10 z "},"L":{"ha":788,"x_min":0,"x_max":0,"o":"m 26 -26 b 254 101 118 -26 196 29 l 275 88 b 508 -12 349 38 424 -12 b 576 -1 531 -12 553 -10 b 801 201 635 18 697 88 b 807 215 804 204 807 211 b 789 232 807 226 800 232 b 776 225 785 232 779 228 b 565 32 699 135 615 49 b 508 22 546 25 526 22 b 294 117 435 22 367 68 b 274 131 288 121 281 125 b 401 388 324 203 358 283 b 486 597 429 456 456 526 b 788 822 588 621 788 686 b 711 897 788 864 757 897 b 461 628 586 897 508 742 b 335 617 418 619 375 617 b 124 661 244 617 167 635 b 89 713 106 672 89 686 b 72 728 89 721 81 728 b 54 707 63 728 54 721 b 106 632 54 686 64 658 b 333 582 157 600 240 582 b 446 590 369 582 407 585 b 369 400 419 528 396 465 b 244 149 332 307 293 218 b 51 221 189 183 124 221 b -100 92 -31 221 -100 175 b 26 -26 -100 22 -46 -26 z m 49 186 b 225 121 114 183 171 156 b 25 8 178 63 108 8 b -65 90 -21 8 -65 38 b 49 186 -65 150 -11 186 z m 711 863 b 753 824 733 863 753 850 b 503 638 753 722 592 660 b 711 863 538 714 608 863 z "},"M":{"ha":1110,"x_min":0,"x_max":0,"o":"m -1 -4 b 14 7 4 -4 11 0 b 169 378 33 56 107 228 b 593 863 251 558 464 863 b 660 772 643 863 660 821 b 599 542 660 694 633 618 b 385 21 529 392 419 111 b 383 13 383 18 383 15 b 400 -3 383 3 390 -3 b 417 8 407 -3 414 1 b 624 511 472 153 553 358 b 997 863 685 621 857 863 b 1051 793 1035 863 1051 832 b 931 442 1051 711 969 533 b 800 68 892 351 800 151 b 876 -11 800 26 825 -11 b 1124 201 938 -11 1042 113 b 1128 213 1126 204 1128 208 b 1111 231 1128 221 1121 231 b 1099 225 1107 231 1101 228 b 875 22 1040 163 922 22 b 835 69 847 22 835 47 b 963 428 835 136 921 326 b 1085 793 1000 518 1085 690 b 999 896 1085 846 1060 896 b 678 660 875 896 760 767 b 694 772 688 697 694 736 b 593 897 694 842 665 897 b 267 614 489 897 365 758 b 339 814 289 664 339 782 b 240 889 339 868 289 889 b 46 775 167 889 46 842 b 63 758 46 768 51 758 b 81 772 71 758 81 764 b 240 854 81 825 194 854 b 304 814 265 854 304 849 b 90 279 304 776 171 472 b -18 19 43 167 1 68 b -19 10 -19 17 -19 13 b -1 -4 -19 3 -14 -4 z "},"N":{"ha":754,"x_min":0,"x_max":0,"o":"m 513 -12 b 768 201 585 -12 717 146 b 774 214 771 204 774 210 b 756 231 774 222 767 231 b 743 225 751 231 746 228 b 513 22 714 192 567 22 b 476 61 490 22 476 36 b 582 364 476 122 535 251 b 693 649 622 460 663 558 b 722 789 713 704 722 751 b 638 892 722 839 701 892 b 267 615 506 892 351 724 b 328 771 294 686 318 743 b 336 811 333 786 336 800 b 318 857 336 833 328 847 b 236 886 301 876 271 886 b 43 774 181 886 43 840 b 61 754 43 765 49 754 b 78 768 68 754 78 760 b 240 851 78 813 189 851 b 300 813 264 851 300 847 b 160 451 300 788 239 643 b -19 17 101 310 38 153 b -21 8 -21 13 -21 10 b -3 -8 -21 -3 -14 -8 b 13 3 4 -8 10 -4 l 197 447 b 636 857 271 594 497 857 b 688 789 674 857 688 826 b 661 660 688 756 678 713 b 550 378 632 571 590 472 b 442 64 518 301 442 138 b 513 -12 442 24 460 -12 z "},"O":{"ha":749,"x_min":0,"x_max":0,"o":"m 235 -19 b 560 203 357 -19 474 76 b 706 539 631 307 681 432 b 829 683 772 569 829 635 b 811 706 829 694 825 706 b 794 689 803 706 794 699 b 714 582 794 642 756 610 b 724 693 721 621 724 660 b 614 864 724 769 697 864 b 489 688 538 864 489 756 b 632 521 489 610 542 521 b 667 525 643 521 656 522 b 529 225 642 431 594 319 b 235 15 447 107 340 15 b 67 261 114 15 67 153 b 510 868 67 483 246 868 b 553 863 535 868 547 863 b 571 881 560 863 571 867 b 517 903 571 901 535 903 b 33 260 228 903 33 519 b 235 -19 33 142 89 -19 z m 618 829 b 690 689 672 829 690 736 b 675 564 690 651 685 607 b 631 556 661 560 646 556 b 524 689 565 556 524 625 b 618 829 524 738 558 829 z "},"P":{"ha":633,"x_min":0,"x_max":0,"o":"m 278 249 b 585 406 368 249 490 290 b 704 731 668 508 704 636 b 590 894 704 810 682 894 b 272 621 464 894 342 722 b 340 813 292 668 340 776 b 243 889 340 871 293 889 b 49 781 175 889 49 839 b 65 758 49 768 56 758 b 83 772 75 758 83 764 b 243 854 83 815 186 854 b 306 815 267 854 306 847 b 83 257 306 776 172 469 b -18 10 39 150 0 57 b -19 0 -19 7 -19 3 b -3 -14 -19 -6 -12 -14 b 14 -3 4 -14 11 -10 l 138 297 b 588 860 226 513 447 860 b 669 736 651 860 669 804 b 558 428 669 646 635 521 b 278 283 472 322 357 283 b 194 311 265 283 194 286 b 178 329 194 321 188 329 b 160 311 168 329 160 321 b 278 249 160 257 236 249 z "},"Q":{"ha":694,"x_min":0,"x_max":0,"o":"m 67 -17 b 225 39 106 -17 163 3 b 410 -8 276 21 342 -8 b 513 18 444 -8 479 -1 b 708 201 589 61 663 149 b 714 214 711 204 714 210 b 696 231 714 222 704 231 b 683 225 692 231 686 228 b 496 47 647 190 578 92 b 408 26 469 33 438 26 b 263 63 358 26 290 53 b 629 671 453 190 629 433 b 438 899 629 782 565 899 b 57 386 213 899 57 592 b 136 243 57 340 67 243 b 154 261 146 243 154 250 b 135 278 154 268 149 278 b 92 383 99 278 92 353 b 438 864 92 557 224 864 b 594 672 538 864 594 771 b 222 76 594 465 439 215 b 90 103 188 88 139 103 b -18 36 53 103 -18 88 b 67 -17 -18 -4 32 -17 z m 90 68 b 181 53 119 68 154 60 b 67 18 136 29 96 18 b 17 38 57 18 17 22 b 90 68 17 58 64 68 z "},"R":{"ha":743,"x_min":0,"x_max":0,"o":"m -1 -14 b 15 -3 6 -14 13 -10 b 186 407 35 47 76 147 b 386 729 233 494 321 654 b 578 854 461 815 519 854 b 661 739 638 854 661 796 b 269 374 661 540 467 374 b 200 385 238 374 213 378 b 189 386 196 386 192 386 b 174 368 182 386 174 379 b 178 357 174 364 176 360 b 451 -6 239 206 325 -6 b 757 201 561 -6 631 63 b 761 213 760 204 761 208 b 746 231 761 221 757 231 b 732 225 742 231 736 229 b 451 28 665 151 574 28 b 222 340 354 28 271 221 b 269 338 236 339 251 338 b 696 736 469 338 696 510 b 579 889 696 806 663 889 b 285 647 454 889 357 754 b 342 810 304 693 342 776 b 244 885 342 863 293 885 b 50 768 188 885 50 846 b 67 754 50 760 56 754 b 83 767 75 754 83 760 b 244 850 83 818 201 850 b 307 808 271 850 307 843 b 151 414 307 776 218 574 b -17 10 44 160 3 60 b -18 0 -18 7 -18 3 b -1 -14 -18 -8 -10 -14 z "},"S":{"ha":724,"x_min":0,"x_max":0,"o":"m 272 -57 b 508 39 350 -57 453 -25 b 738 201 588 51 650 101 b 742 214 740 206 742 210 b 726 231 742 221 738 231 b 713 225 721 231 717 229 b 539 82 644 147 593 101 b 564 179 556 114 564 147 b 458 440 564 267 510 356 b 381 582 431 488 401 535 b 510 783 431 657 475 726 b 532 851 525 807 532 831 b 522 889 532 865 529 878 b 471 915 511 906 493 915 b 335 783 404 915 358 844 b 319 699 324 754 319 726 b 342 586 319 661 328 624 b 108 239 269 475 186 353 l -46 10 b -49 0 -47 7 -49 3 b -32 -17 -49 -8 -42 -17 b -17 -10 -26 -17 -19 -15 b 138 219 29 60 81 136 b 358 547 210 326 289 442 b 429 422 378 506 404 464 b 528 181 479 339 528 258 b 490 72 528 154 515 97 b 346 68 461 68 399 68 b 172 -1 299 68 172 79 b 272 -57 172 -47 233 -57 z m 469 881 b 497 850 486 881 497 868 b 481 801 497 836 492 819 b 367 624 449 750 410 689 b 354 699 358 649 354 674 b 368 771 354 722 358 747 b 469 881 397 849 439 881 z m 322 33 b 451 35 379 33 417 33 b 271 -22 399 -3 329 -22 b 207 0 260 -22 207 -21 b 322 33 207 36 288 33 z "},"T":{"ha":424,"x_min":0,"x_max":0,"o":"m 69 -4 b 85 6 76 -4 82 0 l 201 282 l 318 564 l 353 649 b 425 804 379 711 411 790 b 553 794 468 799 513 794 b 715 829 611 794 669 803 b 724 846 721 833 724 840 b 708 863 724 854 719 863 b 697 860 706 863 700 861 b 553 829 657 838 611 829 b 336 853 485 829 410 840 b 133 876 264 864 194 876 b -46 763 49 876 -46 846 b 26 674 -46 718 -11 674 l 31 674 b 49 692 39 674 49 682 b 35 707 49 700 43 707 b -11 763 4 707 -11 735 b 131 840 -11 815 51 840 b 331 818 189 840 258 831 l 388 808 b 321 661 371 782 350 735 l 286 576 b 169 296 249 489 208 390 l 53 19 b 51 11 51 17 51 13 b 69 -4 51 3 58 -4 z "},"U":{"ha":754,"x_min":0,"x_max":0,"o":"m 90 -14 b 504 363 239 -14 436 253 l 564 461 b 449 81 493 293 449 163 b 514 -11 449 42 464 -11 b 768 201 575 -11 654 74 b 774 214 771 204 774 210 b 757 231 774 221 767 231 b 743 225 753 231 747 229 b 515 24 690 168 571 24 b 482 81 489 24 482 56 b 736 764 482 208 667 611 b 764 825 736 764 744 783 b 767 833 764 826 767 829 b 749 851 767 843 761 851 b 733 840 742 851 735 847 b 474 381 699 749 568 535 b 89 21 379 228 200 21 b 42 82 49 21 42 46 b 193 535 42 179 124 374 b 296 817 218 594 296 758 b 196 883 296 867 242 883 b -21 763 132 883 -21 846 b -4 746 -21 754 -14 746 b 14 763 6 746 14 754 b 197 849 14 815 147 849 b 261 817 215 849 261 847 b 161 547 261 771 192 619 b 7 81 85 371 7 188 b 90 -14 7 31 26 -14 z "},"V":{"ha":635,"x_min":0,"x_max":0,"o":"m 133 -22 b 585 401 249 -22 478 238 b 753 833 697 571 753 749 b 728 885 753 846 753 885 b 713 869 718 885 713 878 b 719 838 713 860 719 851 b 557 421 719 781 683 614 b 133 13 418 210 210 13 b 103 68 107 13 103 42 b 219 535 103 169 174 390 b 288 779 242 603 288 729 b 175 878 288 842 247 878 b -22 751 121 878 -22 847 b -6 738 -22 743 -14 738 b 11 756 4 738 11 744 b 178 843 11 814 132 843 b 251 781 215 843 251 826 b 186 544 251 731 213 625 b 68 72 119 338 68 169 b 133 -22 68 32 81 -22 z "},"W":{"ha":1006,"x_min":0,"x_max":0,"o":"m 101 -18 b 474 351 229 -18 404 254 b 451 142 460 275 451 201 b 531 -8 451 92 456 -8 b 885 276 640 -8 817 186 b 1125 796 950 364 1125 657 b 1099 864 1125 825 1117 850 b 1088 868 1096 867 1092 868 b 1071 850 1079 868 1071 860 b 1078 838 1071 844 1074 840 b 1092 797 1088 829 1092 815 b 853 290 1092 700 940 396 b 532 28 747 164 615 28 b 486 149 488 28 486 92 b 525 431 486 231 503 332 b 711 804 625 589 711 731 b 669 857 711 825 697 857 b 642 843 660 857 649 850 b 493 446 597 801 535 625 b 100 17 351 226 193 17 b 61 81 68 17 61 50 b 165 544 61 185 124 403 b 225 783 188 621 225 743 b 113 882 225 844 182 882 b -81 776 25 882 -81 817 b -62 753 -81 765 -79 753 b -47 763 -56 753 -47 756 b 114 846 -47 799 44 846 b 189 783 157 846 189 829 b 132 554 189 742 157 640 b 26 85 72 347 26 182 b 101 -18 26 39 43 -18 z m 668 821 b 676 803 676 821 676 813 b 554 542 676 753 615 643 b 668 821 596 690 649 821 z "},"X":{"ha":764,"x_min":0,"x_max":0,"o":"m -37 -18 b -28 -15 -35 -18 -31 -17 b 192 197 22 14 103 96 b 351 386 243 256 297 319 b 369 221 358 329 361 275 b 508 -11 386 106 422 -11 b 778 201 586 -11 689 100 b 782 214 781 204 782 210 b 765 231 782 222 775 231 b 753 225 761 231 756 228 b 508 24 664 121 569 24 b 407 213 449 24 422 125 b 383 425 394 286 390 357 l 453 510 b 568 649 492 558 532 606 b 760 856 656 753 728 836 b 768 869 765 858 768 864 b 751 888 768 878 761 888 b 742 885 749 888 744 886 b 549 678 713 867 632 776 b 379 474 486 604 422 528 b 342 811 374 568 363 729 b 207 899 328 868 269 899 b 28 774 135 899 28 858 b 51 726 28 760 29 726 b 68 744 60 726 68 735 b 63 775 68 754 63 763 b 206 864 63 836 161 864 b 307 801 246 864 294 849 b 344 493 328 726 335 614 l 349 436 b 172 228 289 364 228 292 b -46 15 82 125 3 43 b -56 0 -51 13 -56 7 b -37 -18 -56 -8 -50 -18 z "},"Y":{"ha":782,"x_min":0,"x_max":0,"o":"m 149 -12 b 496 268 264 -12 410 154 b 639 482 528 310 551 344 b 536 250 606 407 571 326 b 393 -43 490 151 439 46 b 256 -112 349 -68 301 -90 b 13 -264 157 -160 64 -204 b -21 -344 -11 -293 -21 -321 b 83 -436 -21 -399 29 -436 b 179 -401 114 -436 147 -426 b 408 -89 297 -310 349 -207 l 419 -68 b 647 67 486 -29 576 15 b 796 201 703 107 749 149 b 801 215 799 204 801 211 b 785 232 801 225 796 232 b 771 225 779 232 774 229 b 629 96 719 168 674 128 b 450 -8 572 57 513 25 b 571 244 483 54 526 146 b 775 715 650 419 733 618 l 797 767 b 824 826 807 788 817 808 b 826 836 825 829 826 835 b 810 853 826 844 821 853 b 792 842 803 853 794 849 b 533 382 757 750 646 553 b 472 294 514 353 493 324 b 149 22 361 146 233 22 b 99 76 110 22 99 42 b 188 357 99 146 146 256 b 356 817 256 521 356 764 b 257 885 356 867 304 885 b 38 764 197 885 38 842 b 56 746 38 754 46 746 b 72 764 65 746 72 754 b 258 850 72 817 215 850 b 321 814 281 850 321 847 b 156 371 321 772 221 528 b 63 78 90 214 63 138 b 149 -12 63 29 88 -12 z m 365 -97 b 158 -374 313 -201 263 -293 b 83 -401 133 -393 107 -401 b 14 -347 47 -401 14 -378 b 40 -286 14 -328 24 -306 b 271 -143 85 -232 175 -187 b 365 -97 304 -128 365 -97 z "},"Z":{"ha":649,"x_min":0,"x_max":0,"o":"m -4 -429 b 89 -403 21 -429 53 -421 b 369 -58 222 -337 325 -206 b 663 201 456 -4 547 71 b 667 213 665 204 667 208 b 650 231 667 222 661 231 b 638 225 646 231 640 229 b 379 -11 539 111 456 42 b 381 15 381 -1 381 7 b 347 132 381 58 371 100 b 300 179 333 150 318 167 b 615 583 440 265 564 417 b 633 690 628 624 633 660 b 421 890 633 807 553 890 b 257 853 357 890 303 874 b 99 663 156 807 99 728 b 115 647 99 654 106 647 b 133 665 125 647 133 653 b 269 819 133 722 199 786 b 425 856 319 843 375 856 b 599 689 531 856 599 790 b 583 594 599 660 594 629 b 267 199 531 428 406 278 b 143 226 231 217 189 226 b -1 156 106 226 -1 215 b 82 107 -1 119 43 107 b 267 160 144 107 207 131 b 318 113 288 147 304 132 b 346 17 338 85 346 53 b 340 -36 346 0 344 -18 b 40 -219 243 -99 138 -146 b -69 -372 -31 -274 -69 -329 b -4 -429 -69 -407 -42 -429 z m 324 -87 b 74 -372 258 -253 153 -333 b -6 -394 64 -378 24 -394 b -35 -372 -22 -394 -35 -389 b 61 -247 -35 -349 -11 -303 b 324 -87 142 -183 235 -140 z m 143 192 b 226 178 172 192 200 186 b 92 142 182 158 126 142 b 33 156 65 142 33 144 b 143 192 33 178 106 192 z "},"[":{"ha":556,"x_min":0,"x_max":0,"o":"m 72 -410 b 89 -393 82 -410 89 -403 b 72 -375 89 -383 82 -375 l -74 -375 l 422 828 l 582 828 b 600 844 592 828 600 835 b 582 863 600 854 592 863 l 411 863 b 396 851 404 861 397 858 l -115 -386 b -117 -396 -117 -389 -117 -392 b -99 -410 -117 -404 -108 -410 l 72 -410 z "},"\\":{"ha":533,"x_min":0,"x_max":0,"o":"m 333 -18 b 353 0 342 -18 353 -11 b 350 8 353 3 351 6 l -75 894 b -89 904 -78 901 -83 904 b -107 889 -97 904 -107 900 b -106 881 -107 886 -107 883 l 318 -7 b 333 -18 321 -14 328 -18 z "},"]":{"ha":556,"x_min":0,"x_max":0,"o":"m 71 -410 b 88 -400 78 -410 85 -406 l 597 838 b 599 844 599 840 599 842 b 582 861 599 853 592 861 l 411 861 b 393 844 401 861 393 854 b 411 826 393 835 401 826 l 556 826 l 60 -375 l -100 -375 b -117 -393 -110 -375 -117 -383 b -100 -410 -117 -403 -110 -410 l 71 -410 z "},"^":{"ha":572,"x_min":0,"x_max":0,"o":"m 522 347 b 531 349 525 347 528 347 b 538 372 539 353 542 364 l 308 825 b 278 825 303 836 283 836 l 49 372 b 57 349 44 364 49 353 b 79 356 65 344 75 347 l 293 778 l 507 356 b 522 347 510 350 515 347 z "},"_":{"ha":694,"x_min":0,"x_max":0,"o":"m 694 -86 l 0 -86 l 0 -121 l 694 -121 z "},"`":{"ha":347,"x_min":0,"x_max":0,"o":"m 308 689 b 326 707 315 689 326 694 b 318 721 326 713 324 717 l 156 849 b 144 853 151 851 149 853 b 126 833 136 853 126 846 b 133 821 126 828 129 825 l 297 693 b 308 689 300 690 304 689 z "},"a":{"ha":514,"x_min":0,"x_max":0,"o":"m 278 -10 b 526 201 331 -10 401 64 b 532 214 529 204 532 210 b 515 232 532 222 525 232 b 501 225 511 232 508 232 b 278 25 468 188 325 25 b 242 71 254 25 242 46 b 271 186 242 100 254 142 b 379 393 333 285 375 385 b 382 403 381 396 382 400 b 369 417 382 410 376 414 b 293 431 367 418 339 431 b -50 94 128 431 -50 247 b 40 -10 -50 36 -19 -10 b 210 100 110 -10 167 47 b 207 71 208 89 207 81 b 278 -10 207 31 229 -10 z m 292 396 b 336 390 310 396 325 393 b 239 200 314 354 269 276 b 39 25 200 135 117 25 b -15 93 3 25 -15 57 b 292 396 -15 218 140 396 z "},"b":{"ha":496,"x_min":0,"x_max":0,"o":"m 136 -10 b 310 121 201 -10 263 46 b 361 110 328 114 344 110 b 508 201 419 110 467 156 b 514 215 511 204 514 211 b 497 232 514 224 510 232 b 483 225 493 232 488 229 b 361 144 436 174 399 144 b 326 151 350 144 339 147 b 378 326 354 203 378 263 b 319 422 378 361 369 422 b 228 278 253 422 228 326 b 279 139 228 229 240 169 b 138 25 239 72 188 25 b 72 103 94 25 72 53 b 129 335 72 153 90 228 b 439 733 201 410 368 604 b 464 818 458 768 464 797 b 401 882 464 851 438 882 b 382 879 394 882 389 882 b 217 635 338 864 289 793 b 99 351 176 544 138 454 b -11 225 33 275 -11 225 b -15 214 -14 222 -15 218 b 1 196 -15 206 -10 196 b 14 201 6 196 11 197 l 69 264 b 38 103 47 196 38 143 b 136 -10 38 38 68 -10 z m 403 849 b 429 818 414 849 429 839 b 168 432 429 740 281 556 b 361 819 200 519 288 731 b 403 849 376 838 390 849 z m 319 388 b 343 325 340 388 343 342 b 297 169 343 272 322 221 b 263 276 271 194 263 239 b 319 388 263 307 278 388 z "},"c":{"ha":374,"x_min":0,"x_max":0,"o":"m 63 -11 b 388 201 189 -11 278 85 b 392 213 390 204 392 208 b 374 231 392 221 383 231 b 363 225 369 231 365 228 b 65 24 263 110 168 24 b -3 103 21 24 -3 51 b 125 351 -3 172 43 272 b 192 386 147 374 172 386 b 231 335 221 386 231 361 b 228 308 231 326 228 319 b 246 292 228 300 235 292 b 265 331 263 292 265 314 b 192 421 265 382 243 421 b 100 378 163 421 131 406 b -36 103 17 299 -36 188 b 63 -11 -36 38 -6 -11 z "},"d":{"ha":507,"x_min":0,"x_max":0,"o":"m 36 -8 b 238 129 118 -8 188 64 b 229 65 232 106 229 85 b 281 -7 229 36 243 -7 b 522 201 329 -7 399 67 b 528 215 525 204 528 211 b 511 232 528 225 522 232 b 497 225 506 232 500 228 b 279 28 425 144 319 28 b 263 67 265 28 263 51 b 349 326 263 103 285 192 b 488 643 428 490 461 581 b 532 750 504 683 514 710 b 535 761 533 753 535 758 b 518 778 535 769 528 778 b 501 767 511 778 504 774 b 458 663 489 739 475 704 b 311 329 418 567 363 439 b 214 157 283 271 251 211 b 36 26 178 104 107 26 b -19 94 0 26 -19 57 b 38 233 -19 131 -3 179 b 290 388 140 368 242 388 b 319 385 297 388 308 385 b 342 400 326 385 342 388 b 290 422 342 422 311 422 b 10 256 232 422 118 401 b -54 93 -32 199 -54 142 b 36 -8 -54 40 -22 -8 z "},"e":{"ha":375,"x_min":0,"x_max":0,"o":"m 67 -11 b 388 201 153 -11 271 67 b 392 213 390 204 392 208 b 376 231 392 219 388 231 b 363 225 371 231 365 229 b 64 24 239 83 129 24 b -4 103 17 24 -4 56 b 8 183 -4 129 0 154 b 264 361 179 219 264 297 b 193 424 264 400 236 424 b -39 106 71 424 -39 222 b 67 -11 -39 44 -10 -11 z m 193 389 b 229 363 206 389 229 383 b 24 222 229 324 168 258 b 193 389 51 283 121 389 z "},"f":{"ha":289,"x_min":0,"x_max":0,"o":"m -119 -437 b 22 -228 -53 -437 21 -364 b 7 -68 22 -171 14 -114 b -1 18 4 -42 -1 -12 b 1 26 -1 25 1 26 b 7 28 3 28 6 28 b 44 26 18 28 29 26 b 122 40 74 26 99 31 b 303 201 179 64 225 114 b 307 213 306 204 307 208 b 292 231 307 221 303 231 b 278 225 286 231 282 229 b 108 72 219 158 164 96 b 54 61 89 64 75 61 b 4 63 42 61 25 63 b -24 53 -8 63 -18 60 l 67 258 b 433 775 175 381 401 643 b 438 807 435 783 438 799 b 361 890 438 850 413 890 b 260 813 326 890 285 868 b 164 583 232 753 200 674 b 60 332 133 508 100 425 b 38 278 53 313 44 296 l -15 219 b -19 208 -18 217 -19 213 b 0 190 -19 199 -10 190 b -35 114 -12 165 -24 139 b -201 -357 -128 -97 -201 -267 b -119 -437 -201 -400 -174 -437 z m 361 856 b 403 803 390 856 403 829 b 399 776 403 796 400 783 b 111 361 375 686 225 496 b 196 571 142 438 171 507 b 290 797 232 661 264 739 b 361 856 310 839 338 856 z m -167 -357 b -36 24 -167 -283 -111 -142 l -36 15 b -26 -74 -36 -7 -32 -37 b -12 -226 -19 -121 -12 -174 b -121 -403 -14 -354 -78 -403 b -167 -357 -143 -403 -167 -392 z "},"g":{"ha":460,"x_min":0,"x_max":0,"o":"m -69 -433 b 85 -249 -1 -433 50 -321 b 194 -1 115 -185 151 -103 b 472 201 332 75 389 111 b 478 214 475 204 478 210 b 460 231 478 222 468 231 b 447 225 456 231 450 228 b 218 53 367 138 317 110 l 369 394 b 372 403 371 397 372 401 b 360 417 372 410 367 414 b 299 426 357 418 335 426 b 32 282 238 426 138 403 b -57 88 -25 217 -57 144 b 29 -7 -57 38 -26 -7 b 203 101 99 -7 154 44 l 167 22 b 89 -28 143 8 118 -8 b -137 -346 -75 -133 -137 -264 b -69 -433 -137 -390 -117 -433 z m 299 392 b 329 389 311 392 321 390 b 60 32 272 264 167 63 b 29 28 50 29 40 28 b -22 88 -4 28 -22 51 b 58 258 -22 132 3 194 b 299 392 156 371 246 392 z m 143 -33 b 53 -236 111 -104 82 -175 b -69 -397 8 -329 -32 -397 b -103 -344 -94 -397 -103 -369 b 107 -57 -103 -278 -51 -160 b 143 -33 119 -49 132 -42 z "},"h":{"ha":544,"x_min":0,"x_max":0,"o":"m -4 -19 b 33 56 11 -19 24 38 b 301 385 113 236 256 371 b 332 390 313 389 324 390 b 367 351 354 390 367 376 b 322 218 367 335 356 290 b 265 44 289 146 265 85 b 311 -10 265 19 281 -10 b 558 201 381 -10 510 149 b 563 213 561 204 563 208 b 546 231 563 222 556 231 b 533 225 542 231 536 228 b 314 25 458 142 353 25 b 300 46 304 25 300 33 b 354 206 300 79 328 144 b 401 353 394 299 401 328 b 332 425 401 397 376 425 b 292 418 319 425 306 422 b 114 257 253 407 182 346 l 158 368 b 297 526 201 417 249 472 b 468 788 382 624 456 742 b 472 817 471 796 472 807 b 418 882 472 849 451 882 b 329 818 393 882 360 865 b 129 386 290 758 222 614 l 118 374 b -11 225 60 307 17 256 b -17 214 -14 222 -17 218 b 3 196 -17 206 -7 196 b 14 201 7 196 11 197 b 88 286 33 222 54 247 l 1 68 b -26 -1 -8 47 -26 8 b -4 -19 -26 -17 -7 -19 z m 418 847 b 438 817 432 847 438 832 b 435 796 438 810 436 800 b 333 626 428 772 397 713 b 201 469 299 581 256 531 b 358 800 272 639 325 750 b 418 847 381 833 400 847 z "},"i":{"ha":279,"x_min":0,"x_max":0,"o":"m 47 -11 b 114 19 68 -11 92 -1 b 293 201 239 135 292 200 b 299 214 296 204 299 210 b 282 231 299 221 293 231 b 268 225 276 231 271 229 b 92 44 267 224 185 129 b 49 24 75 29 60 24 b 33 53 35 24 33 36 b 90 224 38 96 63 161 b 178 394 128 306 169 381 b 179 406 179 397 179 403 b 163 421 179 415 174 421 b 149 414 157 421 151 418 l 58 308 b -11 225 18 263 -4 233 b -15 214 -14 222 -15 218 b 1 196 -15 206 -8 196 b 13 201 6 196 8 197 b 75 274 28 217 36 228 b -1 47 44 210 -1 108 b 47 -11 -1 19 11 -11 z m 282 565 b 254 596 282 581 274 596 b 218 556 235 596 218 578 b 244 524 218 539 225 524 b 282 565 258 524 282 532 z "},"j":{"ha":258,"x_min":0,"x_max":0,"o":"m -257 -439 b -179 -390 -231 -439 -203 -422 b 1 -39 -129 -325 -62 -185 b 269 201 74 11 150 67 b 274 213 272 204 274 208 b 258 231 274 221 269 231 b 244 225 254 231 249 229 b 28 22 153 121 86 65 b 181 401 108 210 175 388 b 182 408 182 404 182 407 b 164 425 182 417 174 425 b 151 419 158 425 154 422 l -18 219 b -22 208 -21 217 -22 213 b -4 192 -22 200 -15 192 b 8 197 1 192 6 193 l 111 318 b -26 -17 79 235 28 107 b -194 -149 -65 -44 -129 -87 b -317 -364 -285 -235 -317 -311 b -257 -439 -317 -396 -304 -439 z m -54 -78 b -207 -369 -110 -201 -165 -315 b -257 -404 -226 -396 -244 -404 b -282 -364 -276 -404 -282 -382 b -169 -174 -282 -319 -249 -249 b -54 -78 -126 -133 -89 -104 z m 268 553 b 240 583 268 568 260 583 b 204 543 221 583 204 565 b 231 511 204 526 211 511 b 268 553 244 511 268 519 z "},"k":{"ha":493,"x_min":0,"x_max":0,"o":"m -7 -19 b 11 -3 6 -19 8 -10 b 22 26 14 4 17 14 l 36 61 b 321 388 110 232 243 388 b 350 354 342 388 350 376 b 244 236 350 306 300 263 b 129 200 201 215 163 206 b 108 179 115 197 108 192 b 117 150 108 174 113 164 b 246 -6 140 79 174 -6 b 506 201 318 -6 379 65 b 511 214 508 204 511 210 b 494 231 511 222 506 231 b 481 225 490 231 483 229 b 251 29 372 111 303 29 b 147 168 185 29 153 143 b 385 354 251 183 385 258 b 319 422 385 390 363 422 b 119 274 253 422 165 335 b 157 367 132 307 144 338 b 342 594 226 450 292 531 b 474 822 426 703 474 779 b 418 889 474 856 454 889 b 329 825 393 889 360 872 b 126 385 289 764 221 617 b -11 225 86 336 46 290 b -15 214 -14 222 -15 218 b 3 196 -15 206 -7 196 b 15 203 7 196 13 199 b 85 282 39 228 61 256 l 4 76 b -24 6 -6 54 -15 29 b -25 -4 -25 1 -25 -3 b -7 -19 -25 -11 -19 -19 z m 418 854 b 439 821 433 854 439 838 b 201 475 439 772 321 619 b 358 807 288 679 333 768 b 418 854 381 840 403 854 z "},"l":{"ha":303,"x_min":0,"x_max":0,"o":"m 74 -10 b 315 201 144 -10 256 142 b 321 214 318 204 321 210 b 304 232 321 222 315 232 b 290 225 299 232 294 229 b 78 26 233 168 121 26 b 44 76 47 26 44 49 b 47 114 44 86 46 99 b 108 315 54 164 79 238 b 424 769 215 451 372 663 b 438 828 433 789 438 810 b 389 889 438 857 424 889 b 268 776 363 889 319 871 b 78 333 250 743 192 638 b -12 225 33 276 1 239 b -17 214 -15 222 -17 218 b 1 197 -17 206 -10 197 b 14 203 6 197 10 199 l 43 235 b 10 75 26 186 10 132 b 74 -10 10 36 26 -10 z m 388 854 b 403 828 399 854 403 842 b 392 785 403 817 400 801 b 153 429 351 703 247 554 b 299 760 192 528 246 668 b 388 854 339 831 371 854 z "},"m":{"ha":919,"x_min":0,"x_max":0,"o":"m 368 -8 b 381 -4 372 -8 376 -7 b 439 121 392 4 417 56 b 714 388 508 233 628 388 b 739 363 729 388 739 381 b 686 204 739 326 710 257 b 635 44 658 140 635 83 b 682 -7 635 15 650 -7 b 933 201 728 -7 803 53 b 939 215 936 204 939 211 b 922 232 939 225 933 232 b 908 225 917 232 913 229 b 682 28 793 94 715 28 b 669 44 672 28 669 33 b 718 190 669 75 696 138 b 774 363 746 257 774 318 b 714 422 774 397 753 422 b 471 229 633 422 542 326 b 485 332 479 265 485 301 b 421 424 485 371 471 424 b 242 278 365 424 300 357 b 253 346 246 299 253 322 b 194 419 253 381 236 419 b 135 393 175 419 153 410 b -12 225 93 354 -1 240 b -18 211 -15 222 -18 218 b 0 194 -18 203 -10 194 b 13 201 6 194 8 197 b 158 368 21 210 118 331 b 193 386 169 379 182 386 b 218 344 214 386 218 364 b 111 65 218 271 156 150 b 88 13 104 53 88 31 b 104 -4 88 6 93 -4 b 124 11 111 -4 121 4 b 421 389 175 117 329 389 b 450 331 447 389 450 356 b 406 131 450 275 428 196 b 349 11 390 106 349 32 b 368 -8 349 1 356 -8 z "},"n":{"ha":668,"x_min":0,"x_max":0,"o":"m 103 -3 b 122 10 107 -3 115 -1 b 274 247 146 49 206 161 b 469 388 335 324 404 388 b 493 365 485 388 493 385 b 436 208 493 331 461 261 b 378 43 406 143 378 83 b 428 -7 378 19 393 -7 b 682 201 496 -7 601 111 b 686 213 685 204 686 208 b 669 231 686 222 681 231 b 657 225 665 231 660 228 b 429 28 575 133 478 28 b 413 46 418 28 413 33 b 468 194 413 78 442 144 b 528 372 488 232 528 319 b 469 422 528 404 503 422 b 226 244 385 422 301 346 b 260 365 240 281 260 340 b 208 425 260 393 242 425 b 153 403 192 425 172 417 b -12 225 119 378 35 281 b -18 213 -15 222 -18 217 b 0 196 -18 204 -10 196 b 13 201 4 196 10 197 b 174 375 61 257 143 353 b 208 390 189 386 200 390 b 224 367 221 390 224 379 b 92 36 224 307 146 138 b 85 15 86 25 85 21 b 103 -3 85 4 90 -3 z "},"o":{"ha":443,"x_min":0,"x_max":0,"o":"m 60 -8 b 226 89 124 -8 181 38 b 269 81 242 83 256 81 b 457 201 338 81 400 138 b 461 213 460 204 461 208 b 446 231 461 221 457 231 b 432 225 442 231 436 229 b 271 115 367 150 315 115 b 250 118 264 115 257 117 b 329 331 292 178 329 251 b 268 429 329 367 318 429 b 146 228 189 429 146 296 b 196 106 146 172 163 131 b 60 26 163 71 115 26 b -1 108 18 26 -1 65 b 161 386 -1 192 58 318 b 169 401 167 390 169 396 b 151 418 169 410 161 418 b 143 415 149 418 146 417 b -36 108 25 338 -36 200 b 60 -8 -36 51 -7 -8 z m 268 394 b 294 329 292 394 294 349 b 217 133 294 260 261 193 b 181 228 185 156 181 201 b 268 394 181 283 217 394 z "},"p":{"ha":517,"x_min":0,"x_max":0,"o":"m -164 -387 b -147 -376 -157 -387 -150 -383 b 47 78 -101 -274 -22 -87 l 50 82 b 265 353 101 182 188 292 b 342 390 303 383 328 390 b 375 338 368 390 375 361 b 269 103 375 275 338 176 b 108 21 235 64 179 21 b 71 31 96 21 83 31 b 53 13 63 31 53 22 b 65 -4 53 6 58 -1 b 186 -24 90 -15 142 -24 b 349 25 244 -24 300 -7 b 531 201 410 65 464 125 b 535 213 533 204 535 208 b 518 231 535 221 529 231 b 506 225 514 231 508 229 b 329 53 447 160 386 92 b 211 13 293 29 254 15 b 296 79 240 28 268 50 b 410 338 363 153 410 260 b 343 425 410 382 390 425 b 244 379 321 425 288 414 b 125 258 204 349 163 306 l 188 408 b 189 414 189 410 189 413 b 171 432 189 424 182 432 b 158 426 167 432 161 429 l -12 224 b -17 213 -15 221 -17 217 b 0 196 -17 204 -11 196 b 14 201 6 196 10 197 l 111 318 b -179 -362 38 143 -110 -206 b -181 -371 -181 -365 -181 -368 b -164 -387 -181 -381 -174 -387 z "},"q":{"ha":453,"x_min":0,"x_max":0,"o":"m 89 -439 b 179 -375 117 -439 151 -422 b 243 -83 215 -314 243 -181 b 235 -8 243 -54 240 -28 b 467 201 331 38 394 124 b 472 214 469 204 472 210 b 454 231 472 222 464 231 b 442 225 450 231 444 228 b 203 15 322 90 279 46 l 344 333 b 371 392 360 365 369 389 b 372 399 372 396 372 397 b 361 414 372 406 368 411 b 297 424 358 415 335 424 b 33 282 236 424 138 400 b -57 88 -25 217 -57 144 b 31 -7 -57 29 -25 -7 b 203 100 97 -7 153 42 b 22 -360 78 -181 22 -300 b 89 -439 22 -396 44 -439 z m 297 390 b 331 386 311 390 322 389 b 221 185 303 326 264 251 b 29 28 181 125 114 28 b -22 86 -8 28 -22 51 b 58 258 -22 131 3 194 b 297 390 156 369 244 390 z m 194 -4 b 208 -82 206 -21 208 -49 b 150 -357 208 -167 186 -296 b 89 -404 131 -390 106 -404 b 57 -360 68 -404 57 -381 b 194 -4 57 -310 99 -218 z "},"r":{"ha":400,"x_min":0,"x_max":0,"o":"m 174 -10 b 211 1 186 -10 200 -6 b 413 201 278 49 368 153 b 418 214 415 204 418 210 b 400 231 418 222 408 231 b 388 225 396 231 390 228 b 192 31 336 174 263 82 b 174 25 186 26 179 25 b 151 47 163 25 151 33 b 214 183 151 79 186 136 b 281 332 240 228 281 296 b 235 375 281 356 261 375 l 206 375 b 188 381 197 375 188 375 b 200 418 188 385 189 397 b 207 438 204 425 207 432 b 189 453 207 444 201 453 b 174 444 183 453 176 449 b 129 390 163 431 149 415 b -11 225 92 344 43 286 b -15 213 -14 221 -15 217 b 1 196 -15 204 -10 196 b 14 201 6 196 11 197 b 154 367 68 263 117 319 b 197 340 161 346 179 340 l 226 340 b 246 326 243 340 246 335 b 236 294 246 318 242 307 b 185 201 218 257 185 201 b 117 47 158 160 117 90 b 174 -10 117 17 140 -10 z "},"s":{"ha":351,"x_min":0,"x_max":0,"o":"m 22 -21 b 365 201 147 -21 278 100 b 369 214 368 204 369 210 b 353 231 369 222 364 231 b 340 225 349 231 343 229 b 132 46 282 160 208 86 b 153 164 149 79 153 121 b 144 333 153 218 144 271 b 153 394 144 358 146 379 b 172 425 160 404 172 414 b 157 443 172 433 167 443 b 125 417 143 443 131 425 b -11 232 89 363 42 294 b -140 96 -51 183 -97 138 b -147 82 -144 92 -147 88 b -142 68 -147 75 -143 71 b 22 -21 -103 18 -46 -21 z m -107 79 b 8 201 -62 122 -24 164 b 108 331 50 251 83 294 b 118 161 108 278 118 225 b 28 15 118 79 97 15 b -107 79 -32 15 -71 38 z "},"t":{"ha":343,"x_min":0,"x_max":0,"o":"m 0 196 b 13 201 4 196 8 197 b 75 275 39 229 56 250 b 38 90 50 196 38 135 b 108 -8 38 42 58 -8 b 357 201 179 -8 311 147 b 363 214 360 204 363 210 b 344 231 363 222 354 231 b 332 225 340 231 336 229 b 108 26 253 136 150 26 b 71 92 79 26 71 65 b 150 382 71 169 118 300 l 306 382 b 324 400 315 382 324 390 b 306 417 324 410 315 417 l 164 417 l 171 433 b 251 629 200 503 225 563 b 254 642 253 632 254 639 b 238 658 254 650 247 658 b 221 647 231 658 224 654 b 158 493 221 647 204 610 b 122 417 146 467 135 440 l 36 417 b 18 400 26 417 18 410 b 36 382 18 390 26 382 l 104 382 b -12 225 74 329 42 282 b -18 213 -17 221 -18 217 b 0 196 -18 204 -11 196 z "},"u":{"ha":538,"x_min":0,"x_max":0,"o":"m 304 -10 b 551 201 379 -10 496 146 b 557 214 554 204 557 210 b 539 231 557 222 549 231 b 526 225 535 231 531 229 b 306 25 467 161 349 25 b 290 46 294 25 290 33 b 367 265 290 85 338 197 b 415 389 385 307 401 350 b 421 406 419 397 421 401 b 403 421 421 411 417 421 b 388 410 396 421 390 415 b 186 119 349 339 267 207 b 54 29 138 67 92 29 b 32 56 39 29 32 38 b 90 238 32 94 60 164 l 154 386 b 158 399 157 392 158 397 b 143 418 158 408 153 418 b 119 397 126 418 125 407 b -10 225 99 357 72 317 b -15 213 -12 222 -15 217 b 1 196 -15 204 -10 196 b 15 201 7 196 11 197 l 57 249 b -3 57 21 165 -3 101 b 7 17 -3 40 0 28 b 56 -6 14 7 26 -6 b 208 93 103 -4 157 38 b 310 222 244 132 279 178 b 256 47 288 169 256 88 b 274 1 256 22 265 8 b 304 -10 281 -4 290 -10 z "},"v":{"ha":618,"x_min":0,"x_max":0,"o":"m 144 -8 b 404 210 213 -8 321 104 l 406 186 b 485 106 406 144 439 106 b 632 201 544 106 606 172 b 636 213 635 204 636 208 b 619 231 636 221 631 231 b 607 225 615 231 610 229 b 485 142 554 168 514 142 b 440 200 451 142 440 169 b 457 278 440 224 446 250 b 529 390 469 294 529 369 b 508 410 529 400 521 410 b 492 403 500 410 496 407 b 422 288 468 378 439 324 b 149 25 335 168 204 25 b 129 49 136 25 129 31 b 190 228 129 89 167 176 b 243 375 221 299 243 346 b 200 426 243 397 228 426 b 154 408 186 426 171 421 b -12 225 122 385 31 275 b -18 213 -15 222 -18 217 b -1 196 -18 203 -11 196 b 13 201 4 196 8 197 b 175 379 108 315 146 358 b 199 390 188 388 194 390 b 207 375 204 390 207 388 b 158 242 207 351 181 292 b 94 47 124 161 94 94 b 122 -4 94 24 103 6 b 144 -8 129 -7 136 -8 z "},"w":{"ha":744,"x_min":0,"x_max":0,"o":"m 615 107 b 758 201 658 107 706 139 b 763 214 761 206 763 210 b 747 231 763 222 758 231 b 733 225 743 231 738 229 b 615 142 688 169 647 142 b 574 183 589 142 574 157 b 585 240 574 199 578 218 b 653 389 603 279 653 379 b 635 408 653 399 647 408 b 617 396 629 408 622 404 b 554 257 600 371 572 317 b 336 25 499 150 422 25 b 296 76 304 25 296 44 b 344 256 296 125 319 194 b 415 392 363 283 415 365 b 397 408 415 400 408 408 b 375 394 386 408 379 400 b 314 272 364 378 338 331 b 58 24 243 165 132 24 b 36 51 40 24 36 33 b 117 285 36 100 81 204 b 163 393 135 325 147 358 b 165 401 164 396 165 399 b 149 419 165 413 158 419 b 133 413 142 419 136 417 b 129 406 131 408 129 406 b -11 225 106 363 79 324 b -15 214 -14 222 -15 218 b 1 196 -15 206 -10 196 b 14 201 7 196 10 197 l 68 263 b 1 53 28 171 1 100 b 60 -11 1 18 17 -11 b 274 157 122 -11 204 69 b 263 76 267 128 263 100 b 335 -8 263 33 276 -8 b 542 164 415 -8 486 71 b 615 107 544 129 578 107 z "},"x":{"ha":569,"x_min":0,"x_max":0,"o":"m 47 -6 b 63 3 54 -6 58 -1 b 256 172 78 21 156 92 b 268 50 256 126 258 83 b 342 -10 278 19 304 -10 b 390 7 358 -10 375 -3 b 583 201 439 42 497 107 b 588 213 586 204 588 208 b 571 231 588 224 583 231 b 558 225 567 231 561 228 b 371 36 474 132 415 68 b 342 26 361 29 351 26 b 301 60 322 26 308 39 b 290 200 290 93 290 147 b 532 389 371 264 460 333 b 540 403 538 392 540 397 b 524 421 540 411 535 421 b 511 417 519 421 514 419 b 289 244 489 400 392 325 b 272 375 288 296 285 342 b 213 421 264 397 244 421 b 164 408 197 421 181 417 b 28 274 118 383 69 325 b -14 225 11 254 -1 238 b -19 213 -17 222 -19 217 b -1 196 -19 204 -11 196 b 11 201 3 196 7 197 b 54 251 26 217 38 232 b 181 378 94 300 140 356 b 211 386 192 383 203 386 b 240 363 225 386 236 376 b 254 217 253 329 253 264 b 33 21 149 132 53 44 b 31 13 32 18 31 15 b 47 -6 31 4 38 -6 z "},"y":{"ha":667,"x_min":0,"x_max":0,"o":"m 113 -428 b 276 -268 192 -428 243 -342 b 347 -92 301 -211 321 -153 l 369 -39 b 681 201 479 24 586 89 b 685 213 683 204 685 208 b 669 231 685 221 681 231 b 656 225 664 231 660 229 b 392 15 553 111 486 71 b 532 364 433 117 469 207 b 535 375 533 367 535 372 b 518 393 535 385 528 393 b 501 383 511 393 504 389 b 178 31 426 254 251 31 b 161 54 167 31 161 42 b 203 194 161 86 185 146 b 247 357 225 256 247 314 b 194 419 247 388 235 419 b -12 225 150 419 103 363 b -18 213 -15 222 -18 217 b -1 196 -18 204 -12 196 b 13 201 4 196 8 197 b 193 386 54 246 154 386 b 213 357 208 386 213 372 b 169 207 213 321 189 260 b 126 51 149 150 126 92 b 178 -3 126 22 140 -3 b 442 232 257 -3 374 139 b 342 -15 414 161 379 75 b 139 -158 282 -51 203 -103 b 26 -337 89 -200 26 -264 b 113 -428 26 -383 63 -428 z m 319 -69 b 243 -257 306 -100 275 -187 b 114 -393 204 -342 164 -393 b 61 -336 83 -393 61 -368 b 160 -185 61 -286 113 -226 b 319 -69 208 -142 268 -103 z "},"z":{"ha":531,"x_min":0,"x_max":0,"o":"m -40 -435 b 129 -292 21 -435 71 -386 b 247 -37 176 -215 217 -118 b 544 201 410 71 465 108 b 549 214 547 206 549 210 b 533 231 549 222 544 231 b 519 225 528 231 524 229 b 258 13 438 129 368 83 b 260 26 260 17 260 22 b 238 81 260 42 253 64 b 353 221 285 124 328 174 b 379 311 372 257 379 288 b 260 421 379 375 333 421 b 83 331 193 421 138 385 b -12 225 51 299 24 265 b -17 214 -15 222 -17 218 b 0 196 -17 206 -11 196 b 13 201 4 196 10 197 b 100 299 43 232 68 267 b 260 385 147 346 197 385 b 343 313 307 385 343 363 b 321 236 343 290 336 264 b 210 103 297 190 256 142 b 149 119 189 115 168 119 b 75 100 119 119 93 110 b 19 29 40 83 19 54 b 63 -8 19 7 39 -8 b 210 58 106 -8 160 19 b 225 22 219 49 225 38 b 218 -15 225 13 222 0 l 190 -33 b -69 -229 90 -99 -4 -161 b -124 -346 -106 -267 -124 -308 b -40 -435 -124 -387 -97 -435 z m 197 -69 b 101 -269 176 -115 144 -199 b -43 -400 53 -350 10 -400 b -90 -346 -72 -400 -90 -374 b -44 -254 -90 -315 -74 -286 b 197 -69 18 -189 103 -132 z m 149 85 b 179 79 158 85 169 83 b 63 26 136 47 93 26 b 54 31 58 26 54 26 b 149 85 54 56 113 85 z "},"{":{"ha":556,"x_min":0,"x_max":0,"o":"m 75 -439 b 124 -433 101 -439 115 -436 b 136 -415 132 -431 136 -424 b 119 -399 136 -407 129 -399 b 78 -404 111 -399 103 -404 b 6 -340 29 -404 6 -389 b 117 -33 6 -262 67 -136 b 194 171 165 68 194 132 b 163 221 194 193 182 207 b 210 244 176 225 193 232 b 313 469 257 279 285 382 b 451 788 340 558 386 711 b 579 851 497 842 546 851 b 619 846 607 851 613 846 b 638 865 628 846 638 854 b 578 888 638 885 594 888 b 425 810 538 888 479 874 b 279 479 356 726 315 596 b 190 274 251 385 224 294 b 110 246 168 260 143 246 b 90 221 99 246 90 236 b 110 201 90 210 97 201 b 160 169 124 201 160 192 b 85 -18 160 139 115 46 b -29 -340 43 -106 -29 -257 b 75 -439 -29 -400 4 -439 z "},"|":{"ha":556,"x_min":0,"x_max":0,"o":"m -42 -356 b -25 -344 -35 -356 -28 -351 l 460 824 b 461 831 461 826 461 828 b 443 847 461 839 457 847 b 428 838 436 847 431 843 l -57 -332 b -58 -339 -58 -335 -58 -336 b -42 -356 -58 -346 -54 -356 z "},"}":{"ha":556,"x_min":0,"x_max":0,"o":"m -85 -439 b 69 -362 -44 -439 17 -428 b 215 -31 138 -278 181 -140 b 304 174 244 63 264 139 b 385 201 324 190 350 201 b 407 225 397 201 407 213 b 385 246 407 240 394 246 b 335 278 371 246 335 254 b 410 467 335 310 382 407 b 524 800 457 567 524 703 b 414 888 524 861 471 888 b 357 865 396 888 357 883 b 379 847 357 854 365 847 b 419 851 388 847 403 851 b 489 797 457 851 489 838 b 378 482 489 707 424 576 b 300 278 340 404 300 317 b 331 226 300 250 313 240 b 285 203 318 222 300 215 b 182 -21 239 164 215 89 b 43 -339 153 -118 108 -262 b -85 -404 -3 -394 -51 -404 b -126 -399 -111 -404 -119 -399 b -143 -417 -135 -399 -143 -404 b -132 -432 -143 -424 -139 -429 b -85 -439 -129 -433 -111 -439 z "},"~":{"ha":668,"x_min":0,"x_max":0,"o":"m 457 292 b 526 315 482 292 506 300 b 600 463 581 356 600 447 b 582 482 600 474 594 482 b 565 467 574 482 565 475 b 506 343 565 457 551 378 b 454 326 490 332 472 326 b 328 408 404 326 364 369 b 190 494 290 449 249 494 b 146 486 176 494 161 492 b 63 331 72 460 63 364 b 82 294 63 321 64 294 b 97 317 94 294 97 303 b 157 453 97 353 99 433 b 190 458 169 457 181 458 b 303 385 235 458 268 425 b 457 292 339 343 386 292 z "},"":{"ha":342,"x_min":0,"x_max":0,"o":""},"":{"ha":342,"x_min":0,"x_max":0,"o":"m 149 343 b 132 332 142 343 135 339 l -115 -244 b -117 -251 -117 -247 -117 -249 b -99 -268 -117 -260 -110 -268 b -83 -257 -92 -268 -86 -264 l 164 319 b 165 326 165 322 165 324 b 149 343 165 335 160 343 z m 210 560 b 239 531 210 544 224 531 b 268 560 256 531 268 544 b 239 589 268 576 256 589 b 210 560 224 589 210 576 z "},"":{"ha":464,"x_min":0,"x_max":0,"o":"m 157 175 b 347 281 225 175 292 219 b 351 292 350 283 351 288 b 335 310 351 300 346 310 b 321 304 329 310 325 308 b 156 208 282 260 215 208 b 142 210 150 208 146 210 l 342 690 l 347 690 b 418 646 375 690 403 675 b 433 638 421 640 426 638 b 450 654 442 638 450 643 b 449 663 450 657 450 660 b 357 725 428 699 396 721 l 408 849 b 410 854 408 850 410 853 b 392 872 410 863 403 872 b 376 863 385 872 378 868 l 318 724 b 154 619 264 714 206 676 b 32 332 86 544 32 433 b 96 190 32 281 47 219 l 36 44 b 35 36 35 42 35 39 b 51 19 35 28 42 19 b 68 31 58 19 65 24 l 129 178 b 157 175 138 175 147 175 z m 179 596 b 301 683 219 640 261 669 l 110 222 b 67 329 79 246 67 288 b 179 596 67 414 110 518 z "},"":{"ha":513,"x_min":0,"x_max":0,"o":"m 311 376 b 329 393 321 376 329 385 b 311 411 329 403 321 411 l 146 411 b 175 504 158 449 168 481 b 413 851 235 726 321 851 b 519 735 475 851 519 806 b 483 625 519 697 507 658 b 481 615 481 622 481 619 b 497 599 481 608 486 599 b 511 604 503 599 508 600 b 556 736 540 644 556 692 b 411 886 556 822 499 886 b 142 513 342 886 226 832 b 111 411 133 481 122 446 l 33 411 b 15 393 24 411 15 403 b 33 376 15 385 24 376 l 99 376 b -96 17 40 214 -43 36 b -107 0 -103 14 -107 7 b -86 -19 -107 -8 -101 -19 b -71 -12 -81 -19 -74 -15 b 69 43 -60 -6 0 43 b 210 8 117 43 163 24 b 346 -25 261 -8 306 -25 b 404 0 358 -25 404 -24 b 388 17 404 8 399 17 b 347 10 379 17 369 10 b 221 42 313 10 268 25 b 76 76 178 56 128 76 b -7 63 46 76 17 71 b 135 376 47 144 99 272 l 311 376 z "},"":{"ha":558,"x_min":0,"x_max":0,"o":"m -6 197 b 6 201 -1 197 1 199 l 125 296 b 226 263 151 274 186 263 b 343 296 267 263 307 275 l 410 204 b 424 197 414 200 418 197 b 435 200 428 197 431 199 b 438 225 442 207 443 217 l 371 315 b 464 450 415 350 450 397 b 447 583 478 499 472 546 l 574 683 b 576 707 581 689 582 700 b 551 710 569 715 560 717 l 425 611 l 424 610 b 319 646 396 633 360 646 b 213 617 283 646 246 635 l 147 707 b 122 711 140 714 131 717 b 118 686 115 704 113 694 l 182 599 b 82 458 135 564 97 514 b 101 321 68 407 75 358 l -17 228 b -19 204 -24 222 -25 211 b -6 197 -15 200 -11 197 z m 319 611 b 414 569 360 611 393 596 b 431 458 436 540 442 501 b 226 297 407 369 315 297 b 132 339 186 297 153 313 b 115 450 110 368 104 407 b 319 611 139 539 231 611 z "},"":{"ha":513,"x_min":0,"x_max":0,"o":"m 360 369 b 376 388 369 369 376 378 b 360 404 376 397 369 404 l 243 404 l 615 854 b 619 865 618 857 619 861 b 603 882 619 872 614 882 b 589 876 597 882 592 881 l 229 442 l 204 867 b 188 882 204 875 196 882 b 169 864 176 882 168 876 l 196 404 l 49 404 b 31 388 39 404 31 397 b 49 369 31 378 39 369 l 188 369 l 160 294 l 36 294 b 19 276 26 294 19 286 b 36 260 19 268 26 260 l 147 260 l 51 1 b 50 -7 50 -1 50 -6 b 68 -22 50 -15 57 -22 b 85 -11 75 -22 82 -18 l 183 260 l 347 260 b 365 276 357 260 365 268 b 347 294 365 286 357 294 l 196 294 l 224 369 l 360 369 z "},"":{"ha":558,"x_min":0,"x_max":0,"o":"m -40 -353 b -25 -342 -35 -353 -28 -349 l 179 150 b 181 157 181 153 181 154 b 163 174 181 165 174 174 b 147 164 156 174 150 169 l -57 -329 b -58 -336 -58 -332 -58 -333 b -40 -353 -58 -343 -51 -353 z m 240 321 b 257 332 247 321 254 325 l 461 824 b 464 832 463 825 464 829 b 444 849 464 840 457 849 b 429 838 438 849 432 843 l 225 344 b 224 338 224 342 224 340 b 240 321 224 331 229 321 z "},"":{"ha":694,"x_min":0,"x_max":0,"o":"m 78 -407 b 321 -169 206 -407 321 -304 b 319 -137 321 -158 321 -149 b 463 69 401 -108 463 -22 b 308 436 463 165 400 272 b 261 604 279 486 261 540 b 296 731 261 660 279 704 b 472 843 336 797 406 843 b 607 793 532 843 578 826 b 647 660 639 757 647 707 b 640 606 647 621 640 615 b 657 592 640 597 647 592 b 676 607 668 592 674 597 b 682 646 682 622 682 635 b 632 817 682 704 675 769 b 472 878 596 857 543 878 b 265 749 393 878 311 828 b 225 599 246 717 225 665 b 90 346 142 547 90 453 b 142 168 90 288 106 229 b 288 -168 228 22 288 -78 b 78 -372 288 -278 193 -372 b -108 -193 -22 -372 -108 -306 b -106 -151 -108 -165 -106 -167 b -122 -133 -106 -140 -110 -133 b -139 -147 -131 -133 -136 -139 b -143 -196 -143 -158 -143 -181 b 78 -407 -143 -315 -56 -407 z m 314 -104 b 167 193 294 -22 239 69 b 124 344 135 249 124 300 b 228 558 124 425 161 506 b 278 419 233 517 249 469 b 426 69 371 257 426 156 b 314 -104 426 31 407 -60 z "},"":{"ha":347,"x_min":0,"x_max":0,"o":"m 228 775 b 200 806 228 790 218 806 b 161 764 179 806 161 788 b 189 732 161 750 169 732 b 228 775 201 732 228 743 z m 340 774 b 314 806 340 793 328 806 b 274 764 294 806 274 786 b 303 732 274 750 283 732 b 340 774 318 732 340 744 z "},"":{"ha":972,"x_min":0,"x_max":0,"o":"m 340 -21 b 886 419 560 -21 806 176 b 913 574 903 472 913 525 b 619 878 913 750 799 878 b 74 438 396 876 154 681 b 47 283 57 385 47 332 b 340 -21 47 119 147 -21 z m 619 843 b 878 574 771 840 878 744 b 853 431 878 528 869 481 b 338 14 776 201 547 14 b 82 283 176 14 82 131 b 107 426 82 329 90 376 b 619 843 183 656 413 843 z m 413 174 b 629 304 511 174 578 247 b 633 315 632 307 633 311 b 615 333 633 324 625 333 b 603 326 611 333 607 331 b 411 208 554 271 496 208 b 308 321 333 208 308 251 b 513 651 308 438 399 603 b 560 663 526 657 542 663 b 597 615 583 663 597 644 b 542 517 597 578 575 529 b 529 499 533 514 529 506 b 531 493 529 497 531 494 b 547 482 535 485 540 482 b 633 615 588 482 633 561 b 560 697 633 657 607 697 b 504 685 542 697 522 692 b 274 319 375 633 274 453 b 413 174 274 239 311 174 z "},"":{"ha":382,"x_min":0,"x_max":0,"o":"m 146 490 b 279 581 190 490 238 532 b 275 547 276 568 275 557 b 325 488 275 518 292 488 b 344 506 336 488 344 493 b 328 522 344 515 339 521 b 310 549 313 524 310 533 b 357 696 310 582 331 639 b 403 785 376 738 390 763 b 404 792 404 788 404 789 b 386 811 404 801 397 811 b 372 803 381 811 375 808 l 358 778 b 271 828 342 811 308 828 b 85 668 199 826 121 761 b 68 588 74 640 68 613 b 146 490 68 542 88 490 z m 274 793 b 335 732 310 793 331 774 l 317 694 b 144 525 294 653 210 525 b 103 586 114 525 103 557 b 117 656 103 607 107 632 b 274 793 149 733 211 793 z "},"":{"ha":431,"x_min":0,"x_max":0,"o":"m 186 -17 b 204 3 197 -17 206 -7 l 181 204 l 332 407 b 335 417 335 410 335 413 b 317 433 335 425 329 433 b 304 428 311 433 307 432 l 149 219 b 146 207 146 215 146 211 l 169 -1 b 186 -17 171 -11 178 -17 z m 67 -17 b 82 3 76 -17 83 -7 l 60 204 l 210 407 b 213 417 213 410 213 413 b 196 433 213 424 207 433 b 182 428 190 433 185 432 l 28 219 b 25 207 25 215 25 213 l 47 -1 b 67 -17 49 -11 56 -17 z "},"":{"ha":594,"x_min":0,"x_max":0,"o":"m 413 232 b 428 246 422 232 425 239 l 482 418 b 465 440 485 426 485 440 l 94 440 b 78 422 85 440 78 432 b 94 406 78 414 83 406 l 442 406 l 394 256 b 393 244 393 251 393 246 b 413 232 393 239 400 232 z "},"":{"ha":538,"x_min":0,"x_max":0,"o":"m 457 347 b 474 365 467 347 474 356 b 457 382 474 375 467 382 l 69 382 b 51 365 60 382 51 375 b 69 347 51 356 60 347 l 457 347 z "},"":{"ha":972,"x_min":0,"x_max":0,"o":"m 338 -21 b 883 419 554 -21 803 176 b 910 574 900 472 910 525 b 617 878 910 749 796 878 b 71 438 397 878 151 681 b 44 283 54 385 44 332 b 338 -21 44 89 156 -11 z m 619 843 b 875 574 769 843 875 733 b 850 431 875 528 867 481 b 335 14 774 201 544 14 b 79 283 183 14 79 115 b 104 426 79 329 88 376 b 619 843 181 656 410 843 z m 263 185 b 279 196 269 185 276 189 l 350 382 b 547 189 369 286 454 189 b 644 225 583 189 615 201 b 651 240 649 229 651 235 b 633 257 651 250 644 257 b 622 253 629 257 625 256 b 546 224 599 232 574 224 b 389 372 475 224 411 301 l 404 372 b 575 444 450 372 519 390 b 644 600 624 490 644 551 b 575 689 644 644 625 689 b 425 576 511 689 465 632 l 461 675 b 463 682 463 678 463 681 b 446 699 463 690 456 699 b 429 686 439 699 432 694 b 247 208 408 628 276 282 b 246 201 246 206 246 204 b 263 185 246 192 254 185 z m 369 414 b 544 646 439 542 489 621 b 575 654 556 651 567 654 b 611 600 601 654 611 626 b 550 469 611 563 593 511 b 404 407 500 422 440 407 b 369 414 392 407 381 410 z "},"":{"ha":347,"x_min":0,"x_max":0,"o":"m 383 753 b 400 771 393 753 400 761 b 383 788 400 781 393 788 l 135 788 b 117 771 125 788 117 781 b 135 753 117 761 125 753 l 383 753 z "},"":{"ha":297,"x_min":0,"x_max":0,"o":"m 201 613 b 321 732 268 613 321 665 b 201 851 321 799 268 851 b 82 732 135 851 82 799 b 201 613 82 665 135 613 z m 201 817 b 286 732 249 817 286 779 b 201 647 286 685 249 647 b 117 732 154 647 117 685 b 201 817 117 779 154 817 z "},"":{"ha":594,"x_min":0,"x_max":0,"o":"m 504 358 b 522 376 514 358 522 367 b 504 393 522 386 514 393 l 297 393 l 379 596 b 381 601 381 597 381 600 b 364 619 381 611 375 619 b 347 608 357 619 350 615 l 261 393 l 47 393 b 31 376 39 393 31 386 b 47 358 31 367 39 358 l 247 358 l 174 175 b 172 167 172 172 172 169 b 189 151 172 160 178 151 b 206 161 196 151 203 156 l 283 358 z m 400 49 b 418 67 410 49 418 57 b 400 83 418 75 410 83 l 13 83 b -4 67 3 83 -4 75 b 13 49 -4 57 3 49 z "},"":{"ha":278,"x_min":0,"x_max":0,"o":"m 53 474 b 75 481 58 474 68 476 b 103 488 85 486 90 488 b 210 472 138 488 171 472 b 267 488 229 472 249 476 b 274 503 271 492 274 497 b 257 519 274 511 268 519 b 210 507 242 519 240 507 b 126 519 194 507 176 510 b 218 606 163 547 193 576 b 299 768 254 647 299 718 b 206 858 299 818 258 858 b 85 756 154 858 85 811 b 106 724 85 743 92 724 b 124 739 114 724 124 728 b 119 756 124 744 119 746 b 204 822 119 793 174 822 b 264 769 233 822 264 804 b 197 633 264 731 231 672 b 43 506 160 589 101 539 b 35 492 38 503 35 497 b 53 474 35 481 42 474 z "},"":{"ha":278,"x_min":0,"x_max":0,"o":"m 193 654 b 254 593 224 656 254 626 b 144 500 254 546 210 500 b 72 539 124 500 72 514 b 57 553 72 547 65 553 b 39 533 43 553 39 546 b 147 467 39 492 104 467 b 289 594 214 467 289 514 b 243 675 289 626 272 654 b 318 778 279 694 318 732 b 218 863 318 835 268 863 b 129 804 186 863 129 846 b 147 786 129 794 136 788 b 164 804 156 786 164 794 b 219 828 164 822 206 828 b 283 778 247 828 283 813 b 257 726 283 757 271 740 b 144 686 228 699 190 686 b 129 669 136 686 129 678 b 144 653 129 660 135 653 z "},"":{"ha":347,"x_min":0,"x_max":0,"o":"m 182 689 b 193 692 186 689 189 690 l 356 819 b 363 835 360 824 363 829 b 346 850 363 843 357 850 b 335 847 342 850 339 850 l 171 719 b 165 706 167 717 165 711 b 182 689 165 697 171 689 z "},"":{"ha":543,"x_min":0,"x_max":0,"o":"m 299 -11 b 326 -6 307 -11 317 -10 b 468 119 369 13 408 58 b 472 131 471 122 472 126 b 454 149 472 139 464 149 b 443 143 450 149 446 146 b 314 26 399 99 368 56 b 299 24 310 25 304 24 b 281 51 285 24 281 39 b 364 282 281 83 338 219 b 415 411 374 304 415 403 b 399 429 415 419 407 429 b 382 418 392 429 385 425 b 339 314 369 385 356 350 b 90 28 296 217 175 28 b 39 85 57 28 39 50 b 49 135 39 99 42 117 b 153 407 63 171 153 390 b 136 425 153 415 147 425 b 119 414 129 425 122 421 b 13 136 85 328 51 233 b -186 -356 -56 -36 -147 -262 b -187 -362 -187 -358 -187 -360 b -169 -381 -187 -372 -179 -381 b -154 -369 -162 -381 -157 -376 b 13 42 -119 -287 -51 -119 b 90 -7 22 13 56 -7 b 263 119 150 -7 211 51 b 246 50 249 83 246 60 b 299 -11 246 21 264 -11 z "},"":{"ha":833,"x_min":0,"x_max":0,"o":"m 257 -201 b 272 -190 264 -201 269 -197 l 671 804 b 710 769 685 793 699 782 b 722 763 714 765 718 763 b 740 781 731 763 740 771 b 735 793 740 785 738 789 b 456 904 669 863 567 904 b 100 625 257 904 100 778 b 240 400 100 536 151 453 l 8 -178 b 7 -186 7 -181 7 -183 b 25 -201 7 -194 14 -201 b 40 -190 32 -201 38 -197 l 465 869 b 640 822 529 867 589 850 l 240 -178 b 239 -185 239 -181 239 -183 b 257 -201 239 -193 246 -201 z m 135 625 b 426 868 135 753 264 858 l 253 433 b 135 625 179 479 135 550 z "},"":{"ha":253,"x_min":0,"x_max":0,"o":"m 143 457 b 114 486 143 472 131 486 b 86 457 99 486 86 472 b 114 428 86 440 99 428 b 143 457 131 428 143 440 z "},"":{"ha":403,"x_min":0,"x_max":0,"o":"m 64 -306 b 263 -206 124 -306 217 -272 b 285 -146 276 -185 285 -165 b 214 -83 285 -108 251 -83 b 185 -85 204 -83 194 -83 l 251 -3 b 254 7 254 0 254 3 b 238 25 254 15 249 25 b 224 18 232 25 228 22 l 125 -104 b 121 -117 122 -108 121 -112 b 139 -133 121 -125 128 -133 b 144 -132 140 -133 143 -133 b 210 -118 144 -132 179 -118 b 249 -147 225 -118 249 -119 b 235 -185 249 -158 244 -171 b 64 -272 193 -243 111 -272 b 35 -268 54 -272 46 -268 b 18 -285 26 -268 18 -276 b 64 -306 18 -304 46 -306 z "},"":{"ha":278,"x_min":0,"x_max":0,"o":"m 203 771 b 211 774 206 771 208 772 l 239 788 l 124 482 b 122 474 122 479 122 476 b 139 458 122 467 129 458 b 156 469 146 458 153 463 l 286 814 b 289 826 288 818 289 821 b 272 842 289 835 282 842 b 264 840 269 842 267 842 l 196 804 b 186 789 189 801 186 796 b 203 771 186 781 192 771 z "},"":{"ha":382,"x_min":0,"x_max":0,"o":"m 182 490 b 365 647 249 490 329 558 b 382 726 376 675 382 701 b 297 825 382 775 353 825 b 114 667 229 825 149 756 b 97 588 103 639 97 611 b 182 490 97 538 125 490 z m 299 790 b 347 726 331 790 347 758 b 333 660 347 707 342 683 b 181 525 304 583 235 525 b 132 588 149 525 132 556 b 146 654 132 607 138 631 b 299 790 172 726 243 790 z "},"":{"ha":431,"x_min":0,"x_max":0,"o":"m 82 -8 b 96 -1 88 -8 93 -6 l 229 192 b 232 206 232 196 233 200 l 178 414 b 161 428 175 422 169 428 b 143 406 150 428 140 417 l 196 206 l 67 18 b 64 10 65 15 64 13 b 82 -8 64 1 71 -8 z m 200 -10 b 214 -1 206 -10 211 -7 l 347 192 b 350 206 350 196 351 200 l 296 414 b 278 426 293 421 286 426 b 263 404 268 426 260 415 l 314 204 l 186 18 b 182 6 183 15 182 10 b 200 -10 182 -3 190 -10 z "},"":{"ha":740,"x_min":0,"x_max":0,"o":"m 0 -4 b 14 3 6 -4 11 -1 l 667 861 b 669 871 669 864 669 867 b 653 888 669 878 664 888 b 639 882 647 888 642 886 l -14 24 b -17 13 -17 21 -17 17 b 0 -4 -17 4 -11 -4 z m 182 771 b 190 774 185 771 188 772 l 218 788 l 103 482 b 101 474 101 479 101 476 b 118 458 101 467 108 458 b 135 469 125 458 132 463 l 265 814 b 268 826 267 818 268 821 b 251 842 268 835 261 842 b 243 840 249 842 246 842 l 175 804 b 165 789 168 801 165 796 b 182 771 165 781 171 771 z m 342 154 b 336 140 338 150 336 146 b 353 122 336 131 343 122 l 489 122 l 449 17 b 447 8 447 14 447 11 b 464 -7 447 -1 454 -7 b 481 4 471 -7 478 -3 l 526 122 l 575 122 b 593 140 585 122 593 131 b 575 157 593 149 585 157 l 540 157 l 628 382 b 629 390 629 386 629 389 b 611 406 629 399 621 406 b 599 400 607 406 604 404 z m 394 157 l 568 324 l 503 157 z "},"":{"ha":733,"x_min":0,"x_max":0,"o":"m 25 -4 b 39 3 31 -4 36 -1 l 692 861 b 694 871 694 864 694 867 b 678 888 694 878 689 888 b 664 882 672 888 667 886 l 11 24 b 8 13 8 21 8 17 b 25 -4 8 4 14 -4 z m 207 771 b 215 774 210 771 213 772 l 243 788 l 128 482 b 126 474 126 479 126 476 b 143 458 126 467 133 458 b 160 469 150 458 157 463 l 290 814 b 293 826 292 818 293 821 b 276 842 293 835 286 842 b 268 840 274 842 271 842 l 200 804 b 190 789 193 801 190 796 b 207 771 190 781 196 771 z m 386 7 b 408 14 392 7 401 10 b 436 21 418 19 424 21 b 543 6 471 21 504 6 b 600 21 563 6 582 10 b 607 36 604 25 607 31 b 590 53 607 44 601 53 b 543 40 575 53 574 40 b 460 53 528 40 510 43 b 551 139 496 81 526 110 b 632 301 588 181 632 251 b 539 392 632 351 592 392 b 418 289 488 392 418 344 b 439 257 418 276 425 257 b 457 272 447 257 457 261 b 453 289 457 278 453 279 b 538 356 453 326 507 356 b 597 303 567 356 597 338 b 531 167 597 264 564 206 b 376 39 493 122 435 72 b 368 25 371 36 368 31 b 386 7 368 14 375 7 z "},"":{"ha":749,"x_min":0,"x_max":0,"o":"m 54 -4 b 68 3 60 -4 65 -1 l 721 861 b 724 871 724 864 724 867 b 707 888 724 878 718 888 b 693 882 701 888 696 886 l 40 24 b 38 13 38 21 38 17 b 54 -4 38 4 43 -4 z m 386 154 b 381 140 382 150 381 146 b 397 122 381 131 388 122 l 533 122 l 493 17 b 492 8 492 14 492 11 b 508 -7 492 -1 499 -7 b 525 4 515 -7 522 -3 l 571 122 l 619 122 b 638 140 629 122 638 131 b 619 157 638 149 629 157 l 585 157 l 672 382 b 674 390 674 386 674 389 b 656 406 674 399 665 406 b 643 400 651 406 649 404 z m 439 157 l 613 324 l 547 157 z m 207 654 b 268 593 238 656 268 626 b 158 500 268 546 224 500 b 86 539 138 500 86 514 b 71 553 86 547 79 553 b 53 533 57 553 53 546 b 161 467 53 492 118 467 b 303 594 228 467 303 514 b 257 675 303 626 286 654 b 332 778 293 694 332 732 b 232 863 332 835 282 863 b 143 804 200 863 143 846 b 161 786 143 794 150 788 b 178 804 169 786 178 794 b 233 828 178 822 219 828 b 297 778 261 828 297 813 b 271 726 297 757 285 740 b 158 686 242 699 204 686 b 143 669 150 686 143 678 b 158 653 143 660 149 653 z "},"":{"ha":521,"x_min":0,"x_max":0,"o":"m 275 349 b 261 340 269 349 264 346 b 88 175 224 283 161 232 b -100 -129 -29 83 -100 -32 b 58 -279 -100 -225 -33 -279 b 194 -232 106 -279 151 -262 b 328 -28 278 -172 328 -75 b 313 -8 328 -18 321 -8 b 293 -25 303 -8 293 -15 b 175 -204 293 -67 246 -153 b 60 -244 136 -232 99 -244 b -64 -131 -6 -244 -64 -212 b 110 147 -64 -56 -12 51 b 290 322 185 206 250 260 b 293 332 292 325 293 329 b 275 349 293 340 285 349 z m 365 568 b 394 540 365 553 378 540 b 422 568 410 540 422 553 b 394 597 422 585 410 597 b 365 568 378 597 365 585 z "},"":{"ha":783,"x_min":0,"x_max":0,"o":"m 126 -12 b 506 272 260 -12 406 136 b 449 68 472 189 449 118 b 525 -12 449 22 474 -12 b 799 201 603 -12 704 92 b 803 213 801 204 803 208 b 786 231 803 221 797 231 b 774 225 781 231 776 229 b 525 22 711 156 594 22 b 482 69 497 22 482 39 b 589 379 482 135 536 258 l 607 421 b 778 822 682 594 775 818 b 788 838 782 824 788 826 b 782 849 788 842 785 846 b 642 886 757 875 708 886 b 139 607 557 886 338 857 b -28 193 19 457 -28 306 b 126 -12 -28 93 11 -12 z m 743 835 b 585 460 699 721 639 585 b 124 22 490 285 292 22 b 6 194 38 22 6 114 b 165 585 6 299 51 440 b 642 851 356 824 563 851 b 743 835 692 851 726 843 z m 749 963 b 767 981 756 963 767 968 b 758 994 767 986 764 990 l 596 1122 b 585 1126 592 1125 589 1126 b 567 1107 576 1126 567 1119 b 574 1094 567 1101 569 1099 l 738 967 b 749 963 740 964 744 963 z "},"":{"ha":783,"x_min":0,"x_max":0,"o":"m 126 -12 b 506 272 260 -12 406 136 b 449 68 472 189 449 118 b 525 -12 449 22 474 -12 b 799 201 603 -12 704 92 b 803 213 801 204 803 208 b 786 231 803 221 797 231 b 774 225 781 231 776 229 b 525 22 711 156 594 22 b 482 69 497 22 482 39 b 589 379 482 135 536 258 l 607 421 b 778 822 682 594 775 818 b 788 838 782 824 788 826 b 782 849 788 842 785 846 b 642 886 757 875 708 886 b 139 607 557 886 338 857 b -28 193 19 457 -28 306 b 126 -12 -28 93 11 -12 z m 743 835 b 585 460 699 721 639 585 b 124 22 490 285 292 22 b 6 194 38 22 6 114 b 165 585 6 299 51 440 b 642 851 356 824 563 851 b 743 835 692 851 726 843 z m 594 961 b 606 964 599 961 601 963 l 768 1092 b 775 1107 772 1096 775 1101 b 758 1122 775 1115 769 1122 b 747 1119 754 1122 751 1122 l 583 992 b 578 978 579 989 578 983 b 594 961 578 969 583 961 z "},"":{"ha":783,"x_min":0,"x_max":0,"o":"m 126 -12 b 506 272 260 -12 406 136 b 449 68 472 189 449 118 b 525 -12 449 22 474 -12 b 799 201 603 -12 704 92 b 803 213 801 204 803 208 b 786 231 803 221 797 231 b 774 225 781 231 776 229 b 525 22 711 156 594 22 b 482 69 497 22 482 39 b 589 379 482 135 536 258 l 607 421 b 778 822 682 594 775 818 b 788 838 782 824 788 826 b 782 849 788 842 785 846 b 642 886 757 875 708 886 b 139 607 557 886 338 857 b -28 193 19 457 -28 306 b 126 -12 -28 93 11 -12 z m 743 835 b 585 460 699 721 639 585 b 124 22 490 285 292 22 b 6 194 38 22 6 114 b 165 585 6 299 51 440 b 642 851 356 824 563 851 b 743 835 692 851 726 843 z m 478 969 b 490 974 482 969 486 971 l 635 1079 l 722 976 b 736 971 726 972 731 971 b 753 988 744 971 753 976 b 749 1000 753 992 751 996 l 651 1114 b 638 1119 649 1118 643 1119 b 628 1117 633 1119 631 1119 l 469 1003 b 461 988 464 1000 461 993 b 478 969 461 979 467 969 z "},"":{"ha":783,"x_min":0,"x_max":0,"o":"m 126 -12 b 506 272 260 -12 406 136 b 449 68 472 189 449 118 b 525 -12 449 22 474 -12 b 799 201 603 -12 704 92 b 803 213 801 204 803 208 b 786 231 803 221 797 231 b 774 225 781 231 776 229 b 525 22 711 156 594 22 b 482 69 497 22 482 39 b 589 379 482 135 536 258 l 607 421 b 778 822 682 594 775 818 b 788 838 782 824 788 826 b 782 849 788 842 785 846 b 642 886 757 875 708 886 b 139 607 557 886 338 857 b -28 193 19 457 -28 306 b 126 -12 -28 93 11 -12 z m 743 835 b 585 460 699 721 639 585 b 124 22 490 285 292 22 b 6 194 38 22 6 114 b 165 585 6 299 51 440 b 642 851 356 824 563 851 b 743 835 692 851 726 843 z m 732 981 b 832 1069 797 981 829 1061 b 833 1076 833 1072 833 1075 b 817 1093 833 1085 826 1093 b 800 1082 810 1093 803 1089 b 732 1017 799 1081 774 1017 b 688 1051 710 1017 699 1033 b 622 1099 674 1072 657 1099 b 528 1007 563 1099 529 1051 b 546 982 528 999 528 982 b 563 996 554 982 563 989 b 622 1064 563 1036 588 1064 b 660 1032 638 1064 646 1053 b 732 981 676 1007 697 981 z "},"":{"ha":783,"x_min":0,"x_max":0,"o":"m 126 -12 b 506 272 260 -12 406 136 b 449 68 472 189 449 118 b 525 -12 449 22 474 -12 b 799 201 603 -12 704 92 b 803 213 801 204 803 208 b 786 231 803 221 797 231 b 774 225 781 231 776 229 b 525 22 711 156 594 22 b 482 69 497 22 482 39 b 589 379 482 135 536 258 l 607 421 b 778 822 682 594 775 818 b 788 838 782 824 788 826 b 782 849 788 842 785 846 b 642 886 757 875 708 886 b 139 607 557 886 338 857 b -28 193 19 457 -28 306 b 126 -12 -28 93 11 -12 z m 743 835 b 585 460 699 721 639 585 b 124 22 490 285 292 22 b 6 194 38 22 6 114 b 165 585 6 299 51 440 b 642 851 356 824 563 851 b 743 835 692 851 726 843 z m 554 1046 b 526 1076 554 1061 544 1076 b 488 1035 506 1076 488 1058 b 515 1003 488 1021 496 1003 b 554 1046 528 1003 554 1014 z m 667 1044 b 640 1076 667 1064 654 1076 b 600 1035 621 1076 600 1057 b 629 1003 600 1021 610 1003 b 667 1044 644 1003 667 1015 z "},"":{"ha":783,"x_min":0,"x_max":0,"o":"m 126 -12 b 506 272 260 -12 406 136 b 449 68 472 189 449 118 b 525 -12 449 22 474 -12 b 799 201 603 -12 704 92 b 803 213 801 204 803 208 b 786 231 803 221 797 231 b 774 225 781 231 776 229 b 525 22 711 156 594 22 b 482 69 497 22 482 39 b 589 379 482 135 536 258 l 607 421 b 778 822 682 594 775 818 b 788 838 782 824 788 826 b 782 849 788 842 785 846 b 642 886 757 875 708 886 b 139 607 557 886 338 857 b -28 193 19 457 -28 306 b 126 -12 -28 93 11 -12 z m 743 835 b 585 460 699 721 639 585 b 124 22 490 285 292 22 b 6 194 38 22 6 114 b 165 585 6 299 51 440 b 642 851 356 824 563 851 b 743 835 692 851 726 843 z m 685 947 b 807 1067 742 947 807 1000 b 728 1144 807 1110 774 1144 b 606 1025 671 1144 606 1092 b 685 947 606 982 639 947 z m 728 1110 b 772 1065 751 1110 772 1093 b 685 982 772 1024 729 982 b 640 1026 661 982 640 999 b 728 1110 640 1068 683 1110 z "},"":{"ha":1135,"x_min":0,"x_max":0,"o":"m 117 -12 b 513 297 257 -12 410 153 b 411 13 481 213 439 94 b 410 7 410 10 410 8 b 428 -10 410 0 414 -7 b 444 1 435 -10 442 -6 b 482 113 456 33 467 71 b 711 -43 506 17 596 -43 b 918 10 775 -43 846 -25 b 1149 201 1011 56 1086 132 b 1154 215 1151 204 1154 211 b 1136 232 1154 224 1146 232 b 1124 225 1132 232 1128 229 b 903 40 1040 131 972 75 b 714 -7 838 8 772 -7 b 510 165 607 -7 510 51 b 513 199 510 176 510 188 l 535 258 b 797 433 579 340 676 404 b 915 379 826 401 867 379 b 982 424 940 379 982 390 b 881 481 982 468 918 481 b 813 472 861 481 839 478 b 775 613 786 511 775 563 b 963 849 775 717 838 849 b 1075 779 1017 849 1075 819 b 1090 764 1075 771 1082 764 b 1108 779 1099 764 1108 768 b 963 883 1108 849 1025 883 b 740 614 819 883 740 746 b 776 464 740 564 751 513 b 575 361 697 443 626 407 b 771 824 686 631 765 815 b 778 838 775 828 778 832 b 774 849 778 842 776 846 b 639 886 753 872 701 886 b 149 607 557 886 347 857 b -28 178 22 447 -28 292 b 117 -12 -28 83 10 -12 z m 736 835 b 581 471 704 767 644 610 b 118 22 503 339 297 22 b 7 178 36 22 7 97 b 176 585 7 286 58 436 b 639 851 365 824 563 851 b 736 835 686 851 714 843 z m 839 442 b 881 446 856 444 868 446 b 947 425 925 446 947 432 b 919 414 947 419 938 414 b 839 442 892 414 863 422 z "},"":{"ha":643,"x_min":0,"x_max":0,"o":"m 18 -319 b 217 -219 78 -319 171 -286 b 239 -160 231 -199 239 -179 b 168 -97 239 -122 206 -97 b 139 -99 158 -97 149 -97 l 203 -19 b 275 -28 224 -25 249 -28 b 657 201 449 -28 569 103 b 663 214 660 204 663 210 b 644 231 663 222 654 231 b 632 225 640 231 635 228 b 275 7 536 117 433 7 b 69 224 131 7 69 86 b 539 857 69 467 313 857 b 625 757 594 857 625 822 b 511 560 625 681 579 586 b 500 544 504 557 500 551 b 518 526 500 535 507 526 b 524 528 521 526 522 526 b 658 757 606 560 658 668 b 539 892 658 833 619 892 b 35 222 289 892 35 483 b 167 -10 35 113 74 26 l 79 -118 b 75 -131 76 -122 75 -126 b 93 -147 75 -139 82 -147 b 99 -146 94 -147 97 -147 b 164 -132 99 -146 133 -132 b 203 -161 179 -132 203 -133 b 189 -199 203 -172 199 -185 b 18 -286 147 -257 65 -286 b -11 -282 8 -286 0 -282 b -28 -299 -19 -282 -28 -290 b 18 -319 -28 -318 0 -319 z "},"":{"ha":624,"x_min":0,"x_max":0,"o":"m 199 -43 b 636 201 378 -43 518 65 b 643 215 639 204 643 211 b 624 232 643 224 635 232 b 611 225 619 232 615 229 b 201 -7 508 107 371 -7 b -3 165 100 -7 -3 46 b 285 433 -3 304 161 407 b 403 379 314 403 356 379 b 471 424 428 379 471 389 b 369 481 471 469 407 481 b 297 472 349 481 325 478 b 249 635 267 517 249 574 b 433 849 249 740 304 849 b 563 779 486 849 557 825 b 581 763 564 768 571 763 b 597 779 590 763 597 767 b 433 883 597 846 506 883 b 214 635 289 883 214 768 b 261 464 214 576 228 518 b -37 165 126 426 -37 322 b 199 -43 -37 38 68 -43 z m 326 442 b 369 446 343 444 357 446 b 436 424 389 446 436 438 b 406 415 436 418 422 415 b 326 442 376 415 351 422 z m 532 965 b 550 983 539 965 550 971 b 542 997 550 989 547 993 l 379 1125 b 368 1129 375 1128 372 1129 b 350 1110 360 1129 350 1122 b 357 1097 350 1104 353 1101 l 521 969 b 532 965 524 967 528 965 z "},"":{"ha":624,"x_min":0,"x_max":0,"o":"m 199 -43 b 636 201 378 -43 518 65 b 643 215 639 204 643 211 b 624 232 643 224 635 232 b 611 225 619 232 615 229 b 201 -7 508 107 371 -7 b -3 165 100 -7 -3 46 b 285 433 -3 304 161 407 b 403 379 314 403 356 379 b 471 424 428 379 471 389 b 369 481 471 469 407 481 b 297 472 349 481 325 478 b 249 635 267 517 249 574 b 433 849 249 740 304 849 b 563 779 486 849 557 825 b 581 763 564 768 571 763 b 597 779 590 763 597 767 b 433 883 597 846 506 883 b 214 635 289 883 214 768 b 261 464 214 576 228 518 b -37 165 126 426 -37 322 b 199 -43 -37 38 68 -43 z m 326 442 b 369 446 343 444 357 446 b 436 424 389 446 436 438 b 406 415 436 418 422 415 b 326 442 376 415 351 422 z m 432 961 b 443 964 436 961 439 963 l 606 1092 b 613 1107 610 1096 613 1101 b 596 1122 613 1115 607 1122 b 585 1119 592 1122 589 1122 l 421 992 b 415 978 417 989 415 983 b 432 961 415 969 421 961 z "},"":{"ha":624,"x_min":0,"x_max":0,"o":"m 199 -43 b 636 201 378 -43 518 65 b 643 215 639 204 643 211 b 624 232 643 224 635 232 b 611 225 619 232 615 229 b 201 -7 508 107 371 -7 b -3 165 100 -7 -3 46 b 285 433 -3 304 161 407 b 403 379 314 403 356 379 b 471 424 428 379 471 389 b 369 481 471 469 407 481 b 297 472 349 481 325 478 b 249 635 267 517 249 574 b 433 849 249 740 304 849 b 563 779 486 849 557 825 b 581 763 564 768 571 763 b 597 779 590 763 597 767 b 433 883 597 846 506 883 b 214 635 289 883 214 768 b 261 464 214 576 228 518 b -37 165 126 426 -37 322 b 199 -43 -37 38 68 -43 z m 326 442 b 369 446 343 444 357 446 b 436 424 389 446 436 438 b 406 415 436 418 422 415 b 326 442 376 415 351 422 z m 365 965 b 378 969 369 965 374 967 l 522 1075 l 610 972 b 624 967 614 968 618 967 b 640 983 632 967 640 972 b 636 996 640 988 639 992 l 539 1110 b 525 1115 536 1114 531 1115 b 515 1113 521 1115 518 1115 l 357 999 b 349 983 351 996 349 989 b 365 965 349 975 354 965 z "},"":{"ha":624,"x_min":0,"x_max":0,"o":"m 199 -43 b 636 201 378 -43 518 65 b 643 215 639 204 643 211 b 624 232 643 224 635 232 b 611 225 619 232 615 229 b 201 -7 508 107 371 -7 b -3 165 100 -7 -3 46 b 285 433 -3 304 161 407 b 403 379 314 403 356 379 b 471 424 428 379 471 389 b 369 481 471 469 407 481 b 297 472 349 481 325 478 b 249 635 267 517 249 574 b 433 849 249 740 304 849 b 563 779 486 849 557 825 b 581 763 564 768 571 763 b 597 779 590 763 597 767 b 433 883 597 846 506 883 b 214 635 289 883 214 768 b 261 464 214 576 228 518 b -37 165 126 426 -37 322 b 199 -43 -37 38 68 -43 z m 326 442 b 369 446 343 444 357 446 b 436 424 389 446 436 438 b 406 415 436 418 422 415 b 326 442 376 415 351 422 z m 465 1042 b 438 1072 465 1057 456 1072 b 399 1031 417 1072 399 1054 b 426 999 399 1017 407 999 b 465 1042 439 999 465 1010 z m 578 1040 b 551 1072 578 1060 565 1072 b 511 1031 532 1072 511 1053 b 540 999 511 1017 521 999 b 578 1040 556 999 578 1011 z "},"":{"ha":618,"x_min":0,"x_max":0,"o":"m 81 -21 b 183 3 111 -21 146 -14 b 301 83 224 21 263 49 b 386 -17 318 8 357 -17 b 406 1 396 -17 406 -12 b 389 18 406 10 400 17 b 332 113 358 22 340 54 b 658 790 511 296 658 625 b 586 892 658 838 643 892 b 293 186 431 892 293 439 b 296 124 293 167 293 146 b 169 35 254 85 213 54 b 81 14 136 21 107 14 b -21 57 35 14 0 33 b -46 121 -37 76 -46 99 b -32 168 -46 138 -42 153 b -29 178 -31 171 -29 175 b -47 194 -29 186 -36 194 b -61 186 -53 194 -58 192 b -81 121 -74 165 -81 143 b -47 35 -81 90 -69 60 b 81 -21 -21 4 24 -21 z m 589 857 b 624 792 618 857 624 819 b 328 157 624 654 496 342 l 328 186 b 589 857 328 442 463 857 z m 663 960 b 681 978 669 960 681 965 b 672 992 681 983 678 988 l 510 1119 b 499 1124 506 1122 503 1124 b 481 1104 490 1124 481 1117 b 488 1092 481 1099 483 1096 l 651 964 b 663 960 654 961 658 960 z "},"":{"ha":618,"x_min":0,"x_max":0,"o":"m 81 -21 b 183 3 111 -21 146 -14 b 301 83 224 21 263 49 b 386 -17 318 8 357 -17 b 406 1 396 -17 406 -12 b 389 18 406 10 400 17 b 332 113 358 22 340 54 b 658 790 511 296 658 625 b 586 892 658 838 643 892 b 293 186 431 892 293 439 b 296 124 293 167 293 146 b 169 35 254 85 213 54 b 81 14 136 21 107 14 b -21 57 35 14 0 33 b -46 121 -37 76 -46 99 b -32 168 -46 138 -42 153 b -29 178 -31 171 -29 175 b -47 194 -29 186 -36 194 b -61 186 -53 194 -58 192 b -81 121 -74 165 -81 143 b -47 35 -81 90 -69 60 b 81 -21 -21 4 24 -21 z m 589 857 b 624 792 618 857 624 819 b 328 157 624 654 496 342 l 328 186 b 589 857 328 442 463 857 z m 529 963 b 540 965 533 963 536 964 l 703 1093 b 710 1108 707 1097 710 1103 b 693 1124 710 1117 704 1124 b 682 1121 689 1124 686 1124 l 518 993 b 513 979 514 990 513 985 b 529 963 513 971 518 963 z "},"":{"ha":618,"x_min":0,"x_max":0,"o":"m 81 -21 b 183 3 111 -21 146 -14 b 301 83 224 21 263 49 b 386 -17 318 8 357 -17 b 406 1 396 -17 406 -12 b 389 18 406 10 400 17 b 332 113 358 22 340 54 b 658 790 511 296 658 625 b 586 892 658 838 643 892 b 293 186 431 892 293 439 b 296 124 293 167 293 146 b 169 35 254 85 213 54 b 81 14 136 21 107 14 b -21 57 35 14 0 33 b -46 121 -37 76 -46 99 b -32 168 -46 138 -42 153 b -29 178 -31 171 -29 175 b -47 194 -29 186 -36 194 b -61 186 -53 194 -58 192 b -81 121 -74 165 -81 143 b -47 35 -81 90 -69 60 b 81 -21 -21 4 24 -21 z m 589 857 b 624 792 618 857 624 819 b 328 157 624 654 496 342 l 328 186 b 589 857 328 442 463 857 z m 478 968 b 490 972 482 968 486 969 l 635 1078 l 722 975 b 736 969 726 971 731 969 b 753 986 744 969 753 975 b 749 999 753 990 751 994 l 651 1113 b 638 1118 649 1117 643 1118 b 628 1115 633 1118 631 1118 l 469 1001 b 461 986 464 999 461 992 b 478 968 461 978 467 968 z "},"":{"ha":618,"x_min":0,"x_max":0,"o":"m 81 -21 b 183 3 111 -21 146 -14 b 301 83 224 21 263 49 b 386 -17 318 8 357 -17 b 406 1 396 -17 406 -12 b 389 18 406 10 400 17 b 332 113 358 22 340 54 b 658 790 511 296 658 625 b 586 892 658 838 643 892 b 293 186 431 892 293 439 b 296 124 293 167 293 146 b 169 35 254 85 213 54 b 81 14 136 21 107 14 b -21 57 35 14 0 33 b -46 121 -37 76 -46 99 b -32 168 -46 138 -42 153 b -29 178 -31 171 -29 175 b -47 194 -29 186 -36 194 b -61 186 -53 194 -58 192 b -81 121 -74 165 -81 143 b -47 35 -81 90 -69 60 b 81 -21 -21 4 24 -21 z m 589 857 b 624 792 618 857 624 819 b 328 157 624 654 496 342 l 328 186 b 589 857 328 442 463 857 z m 590 1049 b 563 1079 590 1064 581 1079 b 524 1038 542 1079 524 1061 b 551 1006 524 1024 532 1006 b 590 1049 564 1006 590 1017 z m 703 1047 b 676 1079 703 1067 690 1079 b 636 1038 657 1079 636 1060 b 665 1006 636 1024 646 1006 b 703 1047 681 1006 703 1018 z "},"":{"ha":872,"x_min":0,"x_max":0,"o":"m 501 396 b 518 414 511 396 518 404 b 501 431 518 424 511 431 l 319 431 b 503 799 378 586 438 742 b 508 811 507 801 508 807 b 492 829 508 819 504 829 b 479 824 488 829 483 826 b 279 431 407 761 342 594 l 114 431 b 96 414 104 431 96 424 b 114 396 96 404 104 396 l 267 396 b 125 71 218 267 174 143 b 11 101 81 86 40 101 b -60 35 -25 101 -60 74 b 19 -36 -60 -6 -28 -36 b 138 29 47 -36 94 -22 b 353 -12 196 8 268 -12 b 831 522 635 -12 831 267 b 451 889 831 743 671 889 b 267 857 390 889 324 879 b 118 683 182 824 118 758 b 146 636 118 660 125 636 b 165 654 156 636 165 643 b 157 667 165 658 161 664 b 153 683 154 669 153 674 b 157 711 153 690 153 700 b 271 821 174 764 219 799 b 454 854 329 846 396 854 b 796 521 647 854 796 735 b 351 22 796 296 625 22 b 158 60 276 22 213 40 b 306 396 210 139 256 263 z m 11 67 b 103 42 33 67 65 56 b 19 -3 85 25 56 -3 b -26 33 0 -3 -26 10 b 11 67 -26 51 -10 67 z "},"":{"ha":754,"x_min":0,"x_max":0,"o":"m 513 -12 b 768 201 585 -12 717 146 b 774 214 771 204 774 210 b 756 231 774 222 767 231 b 743 225 751 231 746 228 b 513 22 714 192 567 22 b 476 61 490 22 476 36 b 582 364 476 122 535 251 b 693 649 622 460 663 558 b 722 789 713 704 722 751 b 638 892 722 839 701 892 b 267 615 506 892 351 724 b 328 771 294 686 318 743 b 336 811 333 786 336 800 b 318 857 336 833 328 847 b 236 886 301 876 271 886 b 43 774 181 886 43 840 b 61 754 43 765 49 754 b 78 768 68 754 78 760 b 240 851 78 813 189 851 b 300 813 264 851 300 847 b 160 451 300 788 239 643 b -19 17 101 310 38 153 b -21 8 -21 13 -21 10 b -3 -8 -21 -3 -14 -8 b 13 3 4 -8 10 -4 l 197 447 b 636 857 271 594 497 857 b 688 789 674 857 688 826 b 661 660 688 756 678 713 b 550 378 632 571 590 472 b 442 64 518 301 442 138 b 513 -12 442 24 460 -12 z m 565 981 b 665 1069 631 981 663 1061 b 667 1076 667 1072 667 1075 b 650 1093 667 1085 660 1093 b 633 1082 643 1093 636 1089 b 565 1017 632 1081 607 1017 b 521 1051 543 1017 532 1033 b 456 1099 507 1072 490 1099 b 361 1007 396 1099 363 1051 b 379 982 361 999 361 982 b 396 996 388 982 396 989 b 456 1064 396 1036 421 1064 b 493 1032 471 1064 479 1053 b 565 981 510 1007 531 981 z "},"":{"ha":749,"x_min":0,"x_max":0,"o":"m 235 -19 b 560 203 357 -19 474 76 b 706 539 631 307 681 432 b 829 683 772 569 829 635 b 811 706 829 694 825 706 b 794 689 803 706 794 699 b 714 582 794 642 756 610 b 724 693 721 621 724 660 b 614 864 724 769 697 864 b 489 688 538 864 489 756 b 632 521 489 610 542 521 b 667 525 643 521 656 522 b 529 225 642 431 594 319 b 235 15 447 107 340 15 b 67 261 114 15 67 153 b 510 868 67 483 246 868 b 553 863 535 868 547 863 b 571 881 560 863 571 867 b 517 903 571 901 535 903 b 33 260 228 903 33 519 b 235 -19 33 142 89 -19 z m 618 829 b 690 689 672 829 690 736 b 675 564 690 651 685 607 b 631 556 661 560 646 556 b 524 689 565 556 524 625 b 618 829 524 738 558 829 z m 628 974 b 646 992 635 974 646 979 b 638 1006 646 997 643 1001 l 475 1133 b 464 1138 471 1136 468 1138 b 446 1118 456 1138 446 1131 b 453 1106 446 1113 449 1110 l 617 978 b 628 974 619 975 624 974 z "},"":{"ha":749,"x_min":0,"x_max":0,"o":"m 235 -19 b 560 203 357 -19 474 76 b 706 539 631 307 681 432 b 829 683 772 569 829 635 b 811 706 829 694 825 706 b 794 689 803 706 794 699 b 714 582 794 642 756 610 b 724 693 721 621 724 660 b 614 864 724 769 697 864 b 489 688 538 864 489 756 b 632 521 489 610 542 521 b 667 525 643 521 656 522 b 529 225 642 431 594 319 b 235 15 447 107 340 15 b 67 261 114 15 67 153 b 510 868 67 483 246 868 b 553 863 535 868 547 863 b 571 881 560 863 571 867 b 517 903 571 901 535 903 b 33 260 228 903 33 519 b 235 -19 33 142 89 -19 z m 618 829 b 690 689 672 829 690 736 b 675 564 690 651 685 607 b 631 556 661 560 646 556 b 524 689 565 556 524 625 b 618 829 524 738 558 829 z m 486 964 b 497 967 490 964 493 965 l 660 1094 b 667 1110 664 1099 667 1104 b 650 1125 667 1118 661 1125 b 639 1122 646 1125 643 1125 l 475 994 b 469 981 471 992 469 986 b 486 964 469 972 475 964 z "},"":{"ha":749,"x_min":0,"x_max":0,"o":"m 235 -19 b 560 203 357 -19 474 76 b 706 539 631 307 681 432 b 829 683 772 569 829 635 b 811 706 829 694 825 706 b 794 689 803 706 794 699 b 714 582 794 642 756 610 b 724 693 721 621 724 660 b 614 864 724 769 697 864 b 489 688 538 864 489 756 b 632 521 489 610 542 521 b 667 525 643 521 656 522 b 529 225 642 431 594 319 b 235 15 447 107 340 15 b 67 261 114 15 67 153 b 510 868 67 483 246 868 b 553 863 535 868 547 863 b 571 881 560 863 571 867 b 517 903 571 901 535 903 b 33 260 228 903 33 519 b 235 -19 33 142 89 -19 z m 618 829 b 690 689 672 829 690 736 b 675 564 690 651 685 607 b 631 556 661 560 646 556 b 524 689 565 556 524 625 b 618 829 524 738 558 829 z m 425 971 b 438 975 429 971 433 972 l 582 1081 l 669 978 b 683 972 674 974 678 972 b 700 989 692 972 700 978 b 696 1001 700 993 699 997 l 599 1115 b 585 1121 596 1119 590 1121 b 575 1118 581 1121 578 1121 l 417 1004 b 408 989 411 1001 408 994 b 425 971 408 981 414 971 z "},"":{"ha":749,"x_min":0,"x_max":0,"o":"m 235 -19 b 560 203 357 -19 474 76 b 706 539 631 307 681 432 b 829 683 772 569 829 635 b 811 706 829 694 825 706 b 794 689 803 706 794 699 b 714 582 794 642 756 610 b 724 693 721 621 724 660 b 614 864 724 769 697 864 b 489 688 538 864 489 756 b 632 521 489 610 542 521 b 667 525 643 521 656 522 b 529 225 642 431 594 319 b 235 15 447 107 340 15 b 67 261 114 15 67 153 b 510 868 67 483 246 868 b 553 863 535 868 547 863 b 571 881 560 863 571 867 b 517 903 571 901 535 903 b 33 260 228 903 33 519 b 235 -19 33 142 89 -19 z m 618 829 b 690 689 672 829 690 736 b 675 564 690 651 685 607 b 631 556 661 560 646 556 b 524 689 565 556 524 625 b 618 829 524 738 558 829 z m 617 985 b 717 1074 682 985 714 1065 b 718 1081 718 1076 718 1079 b 701 1097 718 1089 711 1097 b 685 1086 694 1097 688 1093 b 617 1021 683 1085 658 1021 b 572 1056 594 1021 583 1038 b 507 1103 558 1076 542 1103 b 413 1011 447 1103 414 1056 b 431 986 413 1003 413 986 b 447 1000 439 986 447 993 b 507 1068 447 1040 472 1068 b 544 1036 522 1068 531 1057 b 617 985 561 1011 582 985 z "},"":{"ha":749,"x_min":0,"x_max":0,"o":"m 235 -19 b 560 203 357 -19 474 76 b 706 539 631 307 681 432 b 829 683 772 569 829 635 b 811 706 829 694 825 706 b 794 689 803 706 794 699 b 714 582 794 642 756 610 b 724 693 721 621 724 660 b 614 864 724 769 697 864 b 489 688 538 864 489 756 b 632 521 489 610 542 521 b 667 525 643 521 656 522 b 529 225 642 431 594 319 b 235 15 447 107 340 15 b 67 261 114 15 67 153 b 510 868 67 483 246 868 b 553 863 535 868 547 863 b 571 881 560 863 571 867 b 517 903 571 901 535 903 b 33 260 228 903 33 519 b 235 -19 33 142 89 -19 z m 618 829 b 690 689 672 829 690 736 b 675 564 690 651 685 607 b 631 556 661 560 646 556 b 524 689 565 556 524 625 b 618 829 524 738 558 829 z m 492 1042 b 464 1072 492 1057 482 1072 b 425 1031 443 1072 425 1054 b 453 999 425 1017 433 999 b 492 1042 465 999 492 1010 z m 604 1040 b 578 1072 604 1060 592 1072 b 538 1031 558 1072 538 1053 b 567 999 538 1017 547 999 b 604 1040 582 999 604 1011 z "},"":{"ha":472,"x_min":0,"x_max":0,"o":"m 29 217 b 40 221 33 217 38 218 l 217 364 l 317 199 b 332 190 319 193 326 190 b 350 208 340 190 350 199 b 347 217 350 211 349 214 l 244 386 l 440 546 b 447 561 444 549 447 556 b 431 578 447 569 442 578 b 419 574 426 578 422 576 l 226 417 l 126 583 b 111 592 122 589 117 592 b 94 574 103 592 94 583 b 96 565 94 571 94 568 l 199 394 l 18 249 b 11 236 14 246 11 240 b 29 217 11 228 18 217 z "},"":{"ha":813,"x_min":0,"x_max":0,"o":"m 51 -19 b 65 -14 57 -19 61 -18 l 140 72 b 299 -19 178 15 229 -19 b 383 -1 325 -19 354 -14 b 768 538 583 79 721 329 b 892 682 836 569 892 633 b 875 706 892 692 889 706 b 857 686 865 706 857 697 b 778 582 857 653 826 611 b 788 682 783 617 788 651 b 771 792 788 718 783 754 l 842 874 b 846 885 844 876 846 881 b 829 903 846 893 840 903 b 815 896 824 903 819 900 l 753 825 b 681 864 736 846 713 864 b 553 689 604 864 553 764 b 568 613 553 664 557 638 l 150 136 b 131 261 138 169 131 213 b 190 525 131 333 147 422 b 576 868 311 819 496 868 b 614 864 599 868 599 864 b 632 881 626 864 632 869 b 579 903 632 901 599 903 b 158 539 488 903 288 850 b 96 257 117 439 96 342 b 124 107 96 200 106 150 l 39 10 b 35 -3 35 6 35 1 b 51 -19 35 -11 40 -19 z m 585 581 b 696 521 613 542 651 521 b 729 525 707 521 718 522 b 369 31 679 328 547 101 b 297 15 344 21 319 15 b 165 101 232 15 183 61 z m 739 564 b 694 556 725 560 710 556 b 610 608 665 556 633 568 l 744 761 b 753 683 750 738 753 711 b 739 564 753 647 747 606 z m 682 829 b 729 797 703 829 718 814 l 593 643 b 588 686 589 657 588 672 b 682 829 588 742 625 829 z "},"":{"ha":754,"x_min":0,"x_max":0,"o":"m 90 -14 b 504 363 239 -14 436 253 l 564 461 b 449 81 493 293 449 163 b 514 -11 449 42 464 -11 b 768 201 575 -11 654 74 b 774 214 771 204 774 210 b 757 231 774 221 767 231 b 743 225 753 231 747 229 b 515 24 690 168 571 24 b 482 81 489 24 482 56 b 736 764 482 208 667 611 b 764 825 736 764 744 783 b 767 833 764 826 767 829 b 749 851 767 843 761 851 b 733 840 742 851 735 847 b 474 381 699 749 568 535 b 89 21 379 228 200 21 b 42 82 49 21 42 46 b 193 535 42 179 124 374 b 296 817 218 594 296 758 b 196 883 296 867 242 883 b -21 763 132 883 -21 846 b -4 746 -21 754 -14 746 b 14 763 6 746 14 754 b 197 849 14 815 147 849 b 261 817 215 849 261 847 b 161 547 261 771 192 619 b 7 81 85 371 7 188 b 90 -14 7 31 26 -14 z m 543 963 b 561 981 550 963 561 968 b 553 994 561 986 558 990 l 390 1122 b 379 1126 386 1125 383 1126 b 361 1107 371 1126 361 1119 b 368 1094 361 1101 364 1099 l 532 967 b 543 963 535 964 539 963 z "},"":{"ha":754,"x_min":0,"x_max":0,"o":"m 90 -14 b 504 363 239 -14 436 253 l 564 461 b 449 81 493 293 449 163 b 514 -11 449 42 464 -11 b 768 201 575 -11 654 74 b 774 214 771 204 774 210 b 757 231 774 221 767 231 b 743 225 753 231 747 229 b 515 24 690 168 571 24 b 482 81 489 24 482 56 b 736 764 482 208 667 611 b 764 825 736 764 744 783 b 767 833 764 826 767 829 b 749 851 767 843 761 851 b 733 840 742 851 735 847 b 474 381 699 749 568 535 b 89 21 379 228 200 21 b 42 82 49 21 42 46 b 193 535 42 179 124 374 b 296 817 218 594 296 758 b 196 883 296 867 242 883 b -21 763 132 883 -21 846 b -4 746 -21 754 -14 746 b 14 763 6 746 14 754 b 197 849 14 815 147 849 b 261 817 215 849 261 847 b 161 547 261 771 192 619 b 7 81 85 371 7 188 b 90 -14 7 31 26 -14 z m 450 960 b 461 963 454 960 457 961 l 624 1090 b 631 1106 628 1094 631 1100 b 614 1121 631 1114 625 1121 b 603 1118 610 1121 607 1121 l 439 990 b 433 976 435 988 433 982 b 450 960 433 968 439 960 z "},"":{"ha":754,"x_min":0,"x_max":0,"o":"m 90 -14 b 504 363 239 -14 436 253 l 564 461 b 449 81 493 293 449 163 b 514 -11 449 42 464 -11 b 768 201 575 -11 654 74 b 774 214 771 204 774 210 b 757 231 774 221 767 231 b 743 225 753 231 747 229 b 515 24 690 168 571 24 b 482 81 489 24 482 56 b 736 764 482 208 667 611 b 764 825 736 764 744 783 b 767 833 764 826 767 829 b 749 851 767 843 761 851 b 733 840 742 851 735 847 b 474 381 699 749 568 535 b 89 21 379 228 200 21 b 42 82 49 21 42 46 b 193 535 42 179 124 374 b 296 817 218 594 296 758 b 196 883 296 867 242 883 b -21 763 132 883 -21 846 b -4 746 -21 754 -14 746 b 14 763 6 746 14 754 b 197 849 14 815 147 849 b 261 817 215 849 261 847 b 161 547 261 771 192 619 b 7 81 85 371 7 188 b 90 -14 7 31 26 -14 z m 363 967 b 375 971 367 967 371 968 l 519 1076 l 607 974 b 621 968 611 969 615 968 b 638 985 629 968 638 974 b 633 997 638 989 636 993 l 536 1111 b 522 1117 533 1115 528 1117 b 513 1114 518 1117 515 1117 l 354 1000 b 346 985 349 997 346 990 b 363 967 346 976 351 967 z "},"":{"ha":754,"x_min":0,"x_max":0,"o":"m 90 -14 b 504 363 239 -14 436 253 l 564 461 b 449 81 493 293 449 163 b 514 -11 449 42 464 -11 b 768 201 575 -11 654 74 b 774 214 771 204 774 210 b 757 231 774 221 767 231 b 743 225 753 231 747 229 b 515 24 690 168 571 24 b 482 81 489 24 482 56 b 736 764 482 208 667 611 b 764 825 736 764 744 783 b 767 833 764 826 767 829 b 749 851 767 843 761 851 b 733 840 742 851 735 847 b 474 381 699 749 568 535 b 89 21 379 228 200 21 b 42 82 49 21 42 46 b 193 535 42 179 124 374 b 296 817 218 594 296 758 b 196 883 296 867 242 883 b -21 763 132 883 -21 846 b -4 746 -21 754 -14 746 b 14 763 6 746 14 754 b 197 849 14 815 147 849 b 261 817 215 849 261 847 b 161 547 261 771 192 619 b 7 81 85 371 7 188 b 90 -14 7 31 26 -14 z m 478 1042 b 450 1072 478 1057 468 1072 b 411 1031 429 1072 411 1054 b 439 999 411 1017 419 999 b 478 1042 451 999 478 1010 z m 590 1040 b 564 1072 590 1060 578 1072 b 524 1031 544 1072 524 1053 b 553 999 524 1017 533 999 b 590 1040 568 999 590 1011 z "},"":{"ha":782,"x_min":0,"x_max":0,"o":"m 149 -12 b 496 268 264 -12 410 154 b 639 482 528 310 551 344 b 536 250 606 407 571 326 b 393 -43 490 151 439 46 b 256 -112 349 -68 301 -90 b 13 -264 157 -160 64 -204 b -21 -344 -11 -293 -21 -321 b 83 -436 -21 -399 29 -436 b 179 -401 114 -436 147 -426 b 408 -89 297 -310 349 -207 l 419 -68 b 647 67 486 -29 576 15 b 796 201 703 107 749 149 b 801 215 799 204 801 211 b 785 232 801 225 796 232 b 771 225 779 232 774 229 b 629 96 719 168 674 128 b 450 -8 572 57 513 25 b 571 244 483 54 526 146 b 775 715 650 419 733 618 l 797 767 b 824 826 807 788 817 808 b 826 836 825 829 826 835 b 810 853 826 844 821 853 b 792 842 803 853 794 849 b 533 382 757 750 646 553 b 472 294 514 353 493 324 b 149 22 361 146 233 22 b 99 76 110 22 99 42 b 188 357 99 146 146 256 b 356 817 256 521 356 764 b 257 885 356 867 304 885 b 38 764 197 885 38 842 b 56 746 38 754 46 746 b 72 764 65 746 72 754 b 258 850 72 817 215 850 b 321 814 281 850 321 847 b 156 371 321 772 221 528 b 63 78 90 214 63 138 b 149 -12 63 29 88 -12 z m 365 -97 b 158 -374 313 -201 263 -293 b 83 -401 133 -393 107 -401 b 14 -347 47 -401 14 -378 b 40 -286 14 -328 24 -306 b 271 -143 85 -232 175 -187 b 365 -97 304 -128 365 -97 z m 506 964 b 517 967 510 964 513 965 l 679 1094 b 686 1110 683 1099 686 1104 b 669 1125 686 1118 681 1125 b 658 1122 665 1125 663 1125 l 494 994 b 489 981 490 992 489 986 b 506 964 489 972 494 964 z "},"":{"ha":639,"x_min":0,"x_max":0,"o":"m 258 182 b 563 346 351 182 476 226 b 642 585 613 417 642 507 b 522 747 642 656 613 747 b 228 506 425 747 319 642 l 264 592 b 343 807 297 672 343 772 b 246 883 343 858 299 883 b 183 875 226 883 206 881 b 50 775 129 861 50 818 b 68 753 50 764 56 753 b 83 767 76 753 83 758 b 192 842 83 794 136 828 b 244 849 211 846 229 849 b 307 810 268 849 307 842 b 231 603 307 778 254 661 b 93 274 190 504 138 382 b -17 10 44 158 3 60 b -18 1 -18 7 -18 4 b -1 -14 -18 -7 -12 -14 b 15 -3 6 -14 13 -10 b 111 229 32 42 68 128 b 522 713 214 439 388 713 b 606 585 588 713 606 643 b 533 365 606 518 583 435 b 258 217 457 257 342 217 b 171 246 244 217 171 224 b 153 264 171 256 163 264 b 136 246 143 264 136 256 b 258 182 136 194 214 182 z "},"":{"ha":421,"x_min":0,"x_max":0,"o":"m -232 -383 b -215 -372 -225 -383 -218 -379 b 31 239 -212 -367 -93 -62 b 289 824 140 508 254 775 b 347 857 304 844 326 857 b 393 794 378 857 393 825 b 197 436 393 719 318 610 b 164 315 172 399 164 357 b 188 115 164 249 188 185 b 86 15 188 57 157 15 b 0 43 57 15 28 26 b -10 46 -3 44 -7 46 b -26 26 -19 46 -26 36 b -19 14 -26 22 -25 17 b 88 -21 15 -10 51 -21 b 433 201 208 -21 338 92 b 438 213 436 204 438 208 b 421 231 438 221 431 231 b 408 225 417 231 411 229 b 211 54 360 169 286 99 b 222 115 218 72 222 92 b 199 317 222 182 199 246 b 226 417 199 353 206 386 b 428 796 351 600 428 711 b 349 892 428 840 401 892 b 261 843 315 892 283 874 b -4 249 224 792 107 521 b -247 -360 -124 -43 -239 -336 b -249 -367 -249 -362 -249 -364 b -232 -383 -249 -375 -242 -383 z "},"":{"ha":511,"x_min":0,"x_max":0,"o":"m 278 -10 b 526 201 331 -10 401 64 b 532 214 529 204 532 210 b 515 232 532 222 525 232 b 501 225 511 232 508 232 b 278 25 468 188 325 25 b 242 71 254 25 242 46 b 271 186 242 100 254 142 b 379 393 333 285 375 385 b 382 403 381 396 382 400 b 369 417 382 410 376 414 b 293 431 367 418 339 431 b -50 94 128 431 -50 247 b 40 -10 -50 36 -19 -10 b 210 100 110 -10 167 47 b 207 71 208 89 207 81 b 278 -10 207 31 229 -10 z m 292 396 b 336 390 310 396 325 393 b 239 200 314 354 269 276 b 39 25 200 135 117 25 b -15 93 3 25 -15 57 b 292 396 -15 218 140 396 z m 338 506 b 356 524 344 506 356 511 b 347 538 356 529 353 533 l 185 665 b 174 669 181 668 178 669 b 156 650 165 669 156 663 b 163 638 156 644 158 642 l 326 510 b 338 506 329 507 333 506 z "},"":{"ha":511,"x_min":0,"x_max":0,"o":"m 278 -10 b 526 201 331 -10 401 64 b 532 214 529 204 532 210 b 515 232 532 222 525 232 b 501 225 511 232 508 232 b 278 25 468 188 325 25 b 242 71 254 25 242 46 b 271 186 242 100 254 142 b 379 393 333 285 375 385 b 382 403 381 396 382 400 b 369 417 382 410 376 414 b 293 431 367 418 339 431 b -50 94 128 431 -50 247 b 40 -10 -50 36 -19 -10 b 210 100 110 -10 167 47 b 207 71 208 89 207 81 b 278 -10 207 31 229 -10 z m 292 396 b 336 390 310 396 325 393 b 239 200 314 354 269 276 b 39 25 200 135 117 25 b -15 93 3 25 -15 57 b 292 396 -15 218 140 396 z m 194 500 b 206 503 199 500 201 501 l 368 631 b 375 646 372 635 375 640 b 358 661 375 654 369 661 b 347 658 354 661 351 661 l 183 531 b 178 517 179 528 178 522 b 194 500 178 508 183 500 z "},"":{"ha":511,"x_min":0,"x_max":0,"o":"m 278 -10 b 526 201 331 -10 401 64 b 532 214 529 204 532 210 b 515 232 532 222 525 232 b 501 225 511 232 508 232 b 278 25 468 188 325 25 b 242 71 254 25 242 46 b 271 186 242 100 254 142 b 379 393 333 285 375 385 b 382 403 381 396 382 400 b 369 417 382 410 376 414 b 293 431 367 418 339 431 b -50 94 128 431 -50 247 b 40 -10 -50 36 -19 -10 b 210 100 110 -10 167 47 b 207 71 208 89 207 81 b 278 -10 207 31 229 -10 z m 292 396 b 336 390 310 396 325 393 b 239 200 314 354 269 276 b 39 25 200 135 117 25 b -15 93 3 25 -15 57 b 292 396 -15 218 140 396 z m 150 511 b 163 515 154 511 158 513 l 307 621 l 394 518 b 408 513 399 514 403 513 b 425 529 417 513 425 518 b 421 542 425 533 424 538 l 324 656 b 310 661 321 660 315 661 b 300 658 306 661 303 661 l 142 544 b 133 529 136 542 133 535 b 150 511 133 521 139 511 z "},"":{"ha":511,"x_min":0,"x_max":0,"o":"m 278 -10 b 526 201 331 -10 401 64 b 532 214 529 204 532 210 b 515 232 532 222 525 232 b 501 225 511 232 508 232 b 278 25 468 188 325 25 b 242 71 254 25 242 46 b 271 186 242 100 254 142 b 379 393 333 285 375 385 b 382 403 381 396 382 400 b 369 417 382 410 376 414 b 293 431 367 418 339 431 b -50 94 128 431 -50 247 b 40 -10 -50 36 -19 -10 b 210 100 110 -10 167 47 b 207 71 208 89 207 81 b 278 -10 207 31 229 -10 z m 292 396 b 336 390 310 396 325 393 b 239 200 314 354 269 276 b 39 25 200 135 117 25 b -15 93 3 25 -15 57 b 292 396 -15 218 140 396 z m 340 526 b 440 615 406 526 438 607 b 442 622 442 618 442 621 b 425 639 442 631 435 639 b 408 628 418 639 411 635 b 340 563 407 626 382 563 b 296 597 318 563 307 579 b 231 644 282 618 265 644 b 136 553 171 644 138 597 b 154 528 136 544 136 528 b 171 542 163 528 171 535 b 231 610 171 582 196 610 b 268 578 246 610 254 599 b 340 526 285 553 306 526 z "},"":{"ha":511,"x_min":0,"x_max":0,"o":"m 278 -10 b 526 201 331 -10 401 64 b 532 214 529 204 532 210 b 515 232 532 222 525 232 b 501 225 511 232 508 232 b 278 25 468 188 325 25 b 242 71 254 25 242 46 b 271 186 242 100 254 142 b 379 393 333 285 375 385 b 382 403 381 396 382 400 b 369 417 382 410 376 414 b 293 431 367 418 339 431 b -50 94 128 431 -50 247 b 40 -10 -50 36 -19 -10 b 210 100 110 -10 167 47 b 207 71 208 89 207 81 b 278 -10 207 31 229 -10 z m 292 396 b 336 390 310 396 325 393 b 239 200 314 354 269 276 b 39 25 200 135 117 25 b -15 93 3 25 -15 57 b 292 396 -15 218 140 396 z m 265 597 b 238 628 265 613 256 628 b 199 586 217 628 199 610 b 226 554 199 572 207 554 b 265 597 239 554 265 565 z m 378 596 b 351 628 378 615 365 628 b 311 586 332 628 311 608 b 340 554 311 572 321 554 b 378 596 356 554 378 567 z "},"":{"ha":511,"x_min":0,"x_max":0,"o":"m 278 -10 b 526 201 331 -10 401 64 b 532 214 529 204 532 210 b 515 232 532 222 525 232 b 501 225 511 232 508 232 b 278 25 468 188 325 25 b 242 71 254 25 242 46 b 271 186 242 100 254 142 b 379 393 333 285 375 385 b 382 403 381 396 382 400 b 369 417 382 410 376 414 b 293 431 367 418 339 431 b -50 94 128 431 -50 247 b 40 -10 -50 36 -19 -10 b 210 100 110 -10 167 47 b 207 71 208 89 207 81 b 278 -10 207 31 229 -10 z m 292 396 b 336 390 310 396 325 393 b 239 200 314 354 269 276 b 39 25 200 135 117 25 b -15 93 3 25 -15 57 b 292 396 -15 218 140 396 z m 313 489 b 435 608 369 489 435 542 b 356 686 435 651 401 686 b 233 567 299 686 233 633 b 313 489 233 524 267 489 z m 356 651 b 400 607 379 651 400 635 b 313 524 400 565 357 524 b 268 568 289 524 268 540 b 356 651 268 610 311 651 z "},"":{"ha":738,"x_min":0,"x_max":0,"o":"m 435 -8 b 753 201 526 -8 631 60 b 758 213 756 204 758 208 b 742 231 758 222 750 231 b 728 225 736 231 732 229 b 435 26 614 93 515 26 b 338 117 375 26 338 56 b 346 175 338 136 340 156 b 618 310 500 182 588 249 b 632 360 628 328 632 344 b 568 425 632 394 606 425 b 386 322 499 425 433 376 b 282 426 382 389 340 426 b -12 225 179 426 74 324 b -18 213 -15 222 -18 217 b -1 196 -18 204 -12 196 b 13 201 3 196 8 197 b 278 392 129 335 208 392 b 351 315 324 392 351 363 b 344 269 351 301 349 286 l 319 211 b 238 215 301 213 271 215 b 97 190 186 215 129 210 b 29 85 49 160 29 119 b 118 -1 29 36 67 -1 b 303 122 194 -1 257 63 b 435 -8 303 47 347 -8 z m 238 181 b 299 178 260 181 282 179 b 121 33 267 126 194 33 b 64 86 92 33 64 53 b 115 161 64 110 79 138 b 238 181 139 175 190 181 z m 567 390 b 597 360 583 390 597 381 b 588 325 597 350 594 338 b 358 211 563 275 489 221 b 567 390 390 299 489 390 z "},"":{"ha":374,"x_min":0,"x_max":0,"o":"m -112 -310 b 86 -210 -53 -310 40 -276 b 108 -150 100 -189 108 -169 b 38 -87 108 -112 75 -87 b 8 -89 28 -87 18 -87 l 71 -11 b 388 201 193 -7 281 88 b 392 213 390 204 392 208 b 374 231 392 221 383 231 b 363 225 369 231 365 228 b 65 24 263 110 168 24 b -3 103 21 24 -3 51 b 125 351 -3 172 43 272 b 192 386 147 374 172 386 b 231 335 221 386 231 361 b 228 308 231 326 228 319 b 246 292 228 300 235 292 b 265 331 263 292 265 314 b 192 421 265 382 243 421 b 100 378 163 421 131 406 b -36 103 17 299 -36 188 b 31 -7 -36 49 -15 6 l -51 -108 b -56 -121 -54 -112 -56 -117 b -37 -137 -56 -129 -49 -137 b -32 -136 -36 -137 -33 -137 b 33 -122 -32 -136 3 -122 b 72 -151 49 -122 72 -124 b 58 -189 72 -162 68 -175 b -112 -276 17 -247 -65 -276 b -142 -272 -122 -276 -131 -272 b -158 -289 -150 -272 -158 -281 b -112 -310 -158 -308 -131 -310 z "},"":{"ha":375,"x_min":0,"x_max":0,"o":"m 67 -11 b 388 201 153 -11 271 67 b 392 213 390 204 392 208 b 376 231 392 219 388 231 b 363 225 371 231 365 229 b 64 24 239 83 129 24 b -4 103 17 24 -4 56 b 8 183 -4 129 0 154 b 264 361 179 219 264 297 b 193 424 264 400 236 424 b -39 106 71 424 -39 222 b 67 -11 -39 44 -10 -11 z m 193 389 b 229 363 206 389 229 383 b 24 222 229 324 168 258 b 193 389 51 283 121 389 z m 274 504 b 292 522 281 504 292 510 b 283 536 292 528 289 532 l 121 664 b 110 668 117 667 114 668 b 92 649 101 668 92 661 b 99 636 92 643 94 640 l 263 508 b 274 504 265 506 269 504 z "},"":{"ha":375,"x_min":0,"x_max":0,"o":"m 67 -11 b 388 201 153 -11 271 67 b 392 213 390 204 392 208 b 376 231 392 219 388 231 b 363 225 371 231 365 229 b 64 24 239 83 129 24 b -4 103 17 24 -4 56 b 8 183 -4 129 0 154 b 264 361 179 219 264 297 b 193 424 264 400 236 424 b -39 106 71 424 -39 222 b 67 -11 -39 44 -10 -11 z m 193 389 b 229 363 206 389 229 383 b 24 222 229 324 168 258 b 193 389 51 283 121 389 z m 133 503 b 144 506 138 503 140 504 l 307 633 b 314 649 311 638 314 643 b 297 664 314 657 308 664 b 286 661 293 664 290 664 l 122 533 b 117 519 118 531 117 525 b 133 503 117 511 122 503 z "},"":{"ha":375,"x_min":0,"x_max":0,"o":"m 67 -11 b 388 201 153 -11 271 67 b 392 213 390 204 392 208 b 376 231 392 219 388 231 b 363 225 371 231 365 229 b 64 24 239 83 129 24 b -4 103 17 24 -4 56 b 8 183 -4 129 0 154 b 264 361 179 219 264 297 b 193 424 264 400 236 424 b -39 106 71 424 -39 222 b 67 -11 -39 44 -10 -11 z m 193 389 b 229 363 206 389 229 383 b 24 222 229 324 168 258 b 193 389 51 283 121 389 z m 63 510 b 75 514 67 510 71 511 l 219 619 l 307 517 b 321 511 311 513 315 511 b 338 528 329 511 338 517 b 333 540 338 532 336 536 l 236 654 b 222 660 233 658 228 660 b 213 657 218 660 215 660 l 54 543 b 46 528 49 540 46 533 b 63 510 46 519 51 510 z "},"":{"ha":375,"x_min":0,"x_max":0,"o":"m 67 -11 b 388 201 153 -11 271 67 b 392 213 390 204 392 208 b 376 231 392 219 388 231 b 363 225 371 231 365 229 b 64 24 239 83 129 24 b -4 103 17 24 -4 56 b 8 183 -4 129 0 154 b 264 361 179 219 264 297 b 193 424 264 400 236 424 b -39 106 71 424 -39 222 b 67 -11 -39 44 -10 -11 z m 193 389 b 229 363 206 389 229 383 b 24 222 229 324 168 258 b 193 389 51 283 121 389 z m 201 589 b 174 619 201 604 192 619 b 135 578 153 619 135 601 b 163 546 135 564 143 546 b 201 589 175 546 201 557 z m 314 588 b 288 619 314 607 301 619 b 247 578 268 619 247 600 b 276 546 247 564 257 546 b 314 588 292 546 314 558 z "},"":{"ha":279,"x_min":0,"x_max":0,"o":"m 47 -11 b 114 19 68 -11 92 -1 b 293 201 239 135 292 200 b 299 214 296 204 299 210 b 282 231 299 221 293 231 b 268 225 276 231 271 229 b 92 44 267 224 185 129 b 49 24 75 29 60 24 b 33 53 35 24 33 36 b 90 224 38 96 63 161 b 178 394 128 306 169 381 b 179 406 179 397 179 403 b 163 421 179 415 174 421 b 149 414 157 421 151 418 l 58 308 b -11 225 18 263 -4 233 b -15 214 -14 222 -15 218 b 1 196 -15 206 -8 196 b 13 201 6 196 8 197 b 75 274 28 217 36 228 b -1 47 44 210 -1 108 b 47 -11 -1 19 11 -11 z m 214 508 b 232 526 221 508 232 514 b 224 540 232 532 229 536 l 61 668 b 50 672 57 671 54 672 b 32 653 42 672 32 665 b 39 640 32 647 35 644 l 203 513 b 214 508 206 510 210 508 z "},"":{"ha":279,"x_min":0,"x_max":0,"o":"m 47 -11 b 114 19 68 -11 92 -1 b 293 201 239 135 292 200 b 299 214 296 204 299 210 b 282 231 299 221 293 231 b 268 225 276 231 271 229 b 92 44 267 224 185 129 b 49 24 75 29 60 24 b 33 53 35 24 33 36 b 90 224 38 96 63 161 b 178 394 128 306 169 381 b 179 406 179 397 179 403 b 163 421 179 415 174 421 b 149 414 157 421 151 418 l 58 308 b -11 225 18 263 -4 233 b -15 214 -14 222 -15 218 b 1 196 -15 206 -8 196 b 13 201 6 196 8 197 b 75 274 28 217 36 228 b -1 47 44 210 -1 108 b 47 -11 -1 19 11 -11 z m 186 503 b 197 506 190 503 193 504 l 360 633 b 367 649 364 638 367 643 b 350 664 367 657 361 664 b 339 661 346 664 343 664 l 175 533 b 169 519 171 531 169 525 b 186 503 169 511 175 503 z "},"":{"ha":279,"x_min":0,"x_max":0,"o":"m 47 -11 b 114 19 68 -11 92 -1 b 293 201 239 135 292 200 b 299 214 296 204 299 210 b 282 231 299 221 293 231 b 268 225 276 231 271 229 b 92 44 267 224 185 129 b 49 24 75 29 60 24 b 33 53 35 24 33 36 b 90 224 38 96 63 161 b 178 394 128 306 169 381 b 179 406 179 397 179 403 b 163 421 179 415 174 421 b 149 414 157 421 151 418 l 58 308 b -11 225 18 263 -4 233 b -15 214 -14 222 -15 218 b 1 196 -15 206 -8 196 b 13 201 6 196 8 197 b 75 274 28 217 36 228 b -1 47 44 210 -1 108 b 47 -11 -1 19 11 -11 z m 47 515 b 60 519 51 515 56 517 l 204 625 l 292 522 b 306 517 296 518 300 517 b 322 533 314 517 322 522 b 318 546 322 538 321 542 l 221 660 b 207 665 218 664 213 665 b 197 663 203 665 200 665 l 39 549 b 31 533 33 546 31 539 b 47 515 31 525 36 515 z "},"":{"ha":279,"x_min":0,"x_max":0,"o":"m 47 -11 b 114 19 68 -11 92 -1 b 293 201 239 135 292 200 b 299 214 296 204 299 210 b 282 231 299 221 293 231 b 268 225 276 231 271 229 b 92 44 267 224 185 129 b 49 24 75 29 60 24 b 33 53 35 24 33 36 b 90 224 38 96 63 161 b 178 394 128 306 169 381 b 179 406 179 397 179 403 b 163 421 179 415 174 421 b 149 414 157 421 151 418 l 58 308 b -11 225 18 263 -4 233 b -15 214 -14 222 -15 218 b 1 196 -15 206 -8 196 b 13 201 6 196 8 197 b 75 274 28 217 36 228 b -1 47 44 210 -1 108 b 47 -11 -1 19 11 -11 z m 186 592 b 158 622 186 607 176 622 b 119 581 138 622 119 604 b 147 549 119 567 128 549 b 186 592 160 549 186 560 z m 299 590 b 272 622 299 610 286 622 b 232 581 253 622 232 603 b 261 549 232 567 242 549 b 299 590 276 549 299 561 z "},"":{"ha":428,"x_min":0,"x_max":0,"o":"m 315 664 b 324 665 318 664 321 664 l 393 701 b 394 675 394 693 394 685 b 339 413 394 601 371 506 b 331 418 338 415 333 417 b 292 422 329 418 315 422 b 11 256 233 422 121 400 b -53 96 -31 200 -53 143 b 39 -8 -53 44 -26 -8 b 244 138 124 -8 196 69 b 429 675 318 243 429 504 b 426 719 429 690 428 706 l 499 758 b 508 774 504 761 508 767 b 492 790 508 782 503 790 b 483 789 489 790 486 790 l 418 754 b 346 831 401 806 360 831 b 328 814 338 831 328 824 b 340 797 328 807 332 800 b 386 738 363 789 381 769 l 307 696 b 299 681 301 693 299 688 b 315 664 299 672 304 664 z m 292 388 b 329 385 301 388 322 385 b 215 157 293 292 251 207 b 39 26 178 104 104 26 b -18 94 3 26 -18 57 b 39 235 -18 131 -1 181 b 292 388 140 368 242 388 z "},"":{"ha":668,"x_min":0,"x_max":0,"o":"m 103 -3 b 122 10 107 -3 115 -1 b 274 247 146 49 206 161 b 469 388 335 324 404 388 b 493 365 485 388 493 385 b 436 208 493 331 461 261 b 378 43 406 143 378 83 b 428 -7 378 19 393 -7 b 682 201 496 -7 601 111 b 686 213 685 204 686 208 b 669 231 686 222 681 231 b 657 225 665 231 660 228 b 429 28 575 133 478 28 b 413 46 418 28 413 33 b 468 194 413 78 442 144 b 528 372 488 232 528 319 b 469 422 528 404 503 422 b 226 244 385 422 301 346 b 260 365 240 281 260 340 b 208 425 260 393 242 425 b 153 403 192 425 172 417 b -12 225 119 378 35 281 b -18 213 -15 222 -18 217 b 0 196 -18 204 -10 196 b 13 201 4 196 10 197 b 174 375 61 257 143 353 b 208 390 189 386 200 390 b 224 367 221 390 224 379 b 92 36 224 307 146 138 b 85 15 86 25 85 21 b 103 -3 85 4 90 -3 z m 475 519 b 575 608 540 519 572 600 b 576 615 576 611 576 614 b 560 632 576 624 569 632 b 543 621 553 632 546 628 b 475 556 542 619 517 556 b 431 590 453 556 442 572 b 365 638 417 611 400 638 b 271 546 306 638 272 590 b 289 521 271 538 271 521 b 306 535 297 521 306 528 b 365 603 306 575 331 603 b 403 571 381 603 389 592 b 475 519 419 546 440 519 z "},"":{"ha":443,"x_min":0,"x_max":0,"o":"m 60 -8 b 226 89 124 -8 181 38 b 269 81 242 83 256 81 b 457 201 338 81 400 138 b 461 213 460 204 461 208 b 446 231 461 221 457 231 b 432 225 442 231 436 229 b 271 115 367 150 315 115 b 250 118 264 115 257 117 b 329 331 292 178 329 251 b 268 429 329 367 318 429 b 146 228 189 429 146 296 b 196 106 146 172 163 131 b 60 26 163 71 115 26 b -1 108 18 26 -1 65 b 161 386 -1 192 58 318 b 169 401 167 390 169 396 b 151 418 169 410 161 418 b 143 415 149 418 146 417 b -36 108 25 338 -36 200 b 60 -8 -36 51 -7 -8 z m 268 394 b 294 329 292 394 294 349 b 217 133 294 260 261 193 b 181 228 185 156 181 201 b 268 394 181 283 217 394 z m 310 508 b 328 526 317 508 328 514 b 319 540 328 532 325 536 l 157 668 b 146 672 153 671 150 672 b 128 653 138 672 128 665 b 135 640 128 647 131 644 l 299 513 b 310 508 301 510 306 508 z "},"":{"ha":443,"x_min":0,"x_max":0,"o":"m 60 -8 b 226 89 124 -8 181 38 b 269 81 242 83 256 81 b 457 201 338 81 400 138 b 461 213 460 204 461 208 b 446 231 461 221 457 231 b 432 225 442 231 436 229 b 271 115 367 150 315 115 b 250 118 264 115 257 117 b 329 331 292 178 329 251 b 268 429 329 367 318 429 b 146 228 189 429 146 296 b 196 106 146 172 163 131 b 60 26 163 71 115 26 b -1 108 18 26 -1 65 b 161 386 -1 192 58 318 b 169 401 167 390 169 396 b 151 418 169 410 161 418 b 143 415 149 418 146 417 b -36 108 25 338 -36 200 b 60 -8 -36 51 -7 -8 z m 268 394 b 294 329 292 394 294 349 b 217 133 294 260 261 193 b 181 228 185 156 181 201 b 268 394 181 283 217 394 z m 200 500 b 211 503 204 500 207 501 l 374 631 b 381 646 378 635 381 640 b 364 661 381 654 375 661 b 353 658 360 661 357 661 l 189 531 b 183 517 185 528 183 522 b 200 500 183 508 189 500 z "},"":{"ha":443,"x_min":0,"x_max":0,"o":"m 60 -8 b 226 89 124 -8 181 38 b 269 81 242 83 256 81 b 457 201 338 81 400 138 b 461 213 460 204 461 208 b 446 231 461 221 457 231 b 432 225 442 231 436 229 b 271 115 367 150 315 115 b 250 118 264 115 257 117 b 329 331 292 178 329 251 b 268 429 329 367 318 429 b 146 228 189 429 146 296 b 196 106 146 172 163 131 b 60 26 163 71 115 26 b -1 108 18 26 -1 65 b 161 386 -1 192 58 318 b 169 401 167 390 169 396 b 151 418 169 410 161 418 b 143 415 149 418 146 417 b -36 108 25 338 -36 200 b 60 -8 -36 51 -7 -8 z m 268 394 b 294 329 292 394 294 349 b 217 133 294 260 261 193 b 181 228 185 156 181 201 b 268 394 181 283 217 394 z m 108 514 b 121 518 113 514 117 515 l 265 624 l 353 521 b 367 515 357 517 361 515 b 383 532 375 515 383 521 b 379 544 383 536 382 540 l 282 658 b 268 664 279 663 274 664 b 258 661 264 664 261 664 l 100 547 b 92 532 94 544 92 538 b 108 514 92 524 97 514 z "},"":{"ha":443,"x_min":0,"x_max":0,"o":"m 60 -8 b 226 89 124 -8 181 38 b 269 81 242 83 256 81 b 457 201 338 81 400 138 b 461 213 460 204 461 208 b 446 231 461 221 457 231 b 432 225 442 231 436 229 b 271 115 367 150 315 115 b 250 118 264 115 257 117 b 329 331 292 178 329 251 b 268 429 329 367 318 429 b 146 228 189 429 146 296 b 196 106 146 172 163 131 b 60 26 163 71 115 26 b -1 108 18 26 -1 65 b 161 386 -1 192 58 318 b 169 401 167 390 169 396 b 151 418 169 410 161 418 b 143 415 149 418 146 417 b -36 108 25 338 -36 200 b 60 -8 -36 51 -7 -8 z m 268 394 b 294 329 292 394 294 349 b 217 133 294 260 261 193 b 181 228 185 156 181 201 b 268 394 181 283 217 394 z m 311 529 b 411 618 376 529 408 610 b 413 625 413 621 413 624 b 396 642 413 633 406 642 b 379 631 389 642 382 638 b 311 565 378 629 353 565 b 267 600 289 565 278 582 b 201 647 253 621 236 647 b 107 556 142 647 108 600 b 125 531 107 547 107 531 b 142 544 133 531 142 538 b 201 613 142 585 167 613 b 239 581 217 613 225 601 b 311 529 256 556 276 529 z "},"":{"ha":443,"x_min":0,"x_max":0,"o":"m 60 -8 b 226 89 124 -8 181 38 b 269 81 242 83 256 81 b 457 201 338 81 400 138 b 461 213 460 204 461 208 b 446 231 461 221 457 231 b 432 225 442 231 436 229 b 271 115 367 150 315 115 b 250 118 264 115 257 117 b 329 331 292 178 329 251 b 268 429 329 367 318 429 b 146 228 189 429 146 296 b 196 106 146 172 163 131 b 60 26 163 71 115 26 b -1 108 18 26 -1 65 b 161 386 -1 192 58 318 b 169 401 167 390 169 396 b 151 418 169 410 161 418 b 143 415 149 418 146 417 b -36 108 25 338 -36 200 b 60 -8 -36 51 -7 -8 z m 268 394 b 294 329 292 394 294 349 b 217 133 294 260 261 193 b 181 228 185 156 181 201 b 268 394 181 283 217 394 z m 244 585 b 217 615 244 600 235 615 b 178 574 196 615 178 597 b 206 542 178 560 186 542 b 244 585 218 542 244 553 z m 357 583 b 331 615 357 603 344 615 b 290 574 311 615 290 596 b 319 542 290 560 300 542 b 357 583 335 542 357 554 z "},"":{"ha":538,"x_min":0,"x_max":0,"o":"m 457 347 b 474 365 467 347 474 356 b 457 382 474 375 467 382 l 69 382 b 51 365 60 382 51 375 b 69 347 51 356 60 347 z m 258 201 b 229 231 258 217 246 231 b 201 201 214 231 201 217 b 229 172 201 185 214 172 b 258 201 246 172 258 185 z m 314 514 b 285 543 314 531 301 543 b 257 514 269 543 257 531 b 285 486 257 499 269 486 b 314 514 301 486 314 499 z "},"":{"ha":439,"x_min":0,"x_max":0,"o":"m -71 -17 b -60 -12 -67 -17 -62 -15 l -17 28 b 58 -10 0 6 28 -10 b 225 89 113 -10 176 33 b 268 81 240 83 254 81 b 453 201 336 81 396 138 b 458 215 457 206 458 210 b 440 232 458 222 449 232 b 428 225 436 232 431 229 b 268 115 361 150 314 115 b 247 118 261 115 254 117 b 313 246 275 156 297 199 b 326 332 321 272 326 303 l 326 342 l 390 401 b 396 414 393 404 396 410 b 378 432 396 422 388 432 b 367 428 374 432 369 431 l 318 383 b 299 417 314 397 307 408 b 267 428 293 422 282 428 b 235 421 258 428 247 426 b 144 228 181 392 144 304 l 144 222 l -3 86 b -4 106 -4 92 -4 99 b 160 386 -4 190 56 317 b 167 400 165 389 167 394 b 150 418 167 408 160 418 b 140 415 147 418 143 417 b -39 106 22 336 -39 201 b -32 58 -39 88 -36 72 l -82 13 b -89 0 -86 8 -89 4 b -71 -17 -89 -8 -81 -17 z m 149 179 b 193 106 156 147 171 122 b 58 25 161 71 104 25 b 10 51 39 25 17 36 z m 215 133 b 179 207 190 150 181 181 l 292 310 b 281 257 290 292 286 274 b 215 133 264 208 240 167 z m 267 394 b 289 357 281 394 286 371 l 181 256 b 250 389 188 315 217 372 b 267 394 257 393 263 394 z "},"":{"ha":538,"x_min":0,"x_max":0,"o":"m 304 -10 b 551 201 379 -10 496 146 b 557 214 554 204 557 210 b 539 231 557 222 549 231 b 526 225 535 231 531 229 b 306 25 467 161 349 25 b 290 46 294 25 290 33 b 367 265 290 85 338 197 b 415 389 385 307 401 350 b 421 406 419 397 421 401 b 403 421 421 411 417 421 b 388 410 396 421 390 415 b 186 119 349 339 267 207 b 54 29 138 67 92 29 b 32 56 39 29 32 38 b 90 238 32 94 60 164 l 154 386 b 158 399 157 392 158 397 b 143 418 158 408 153 418 b 119 397 126 418 125 407 b -10 225 99 357 72 317 b -15 213 -12 222 -15 217 b 1 196 -15 204 -10 196 b 15 201 7 196 11 197 l 57 249 b -3 57 21 165 -3 101 b 7 17 -3 40 0 28 b 56 -6 14 7 26 -6 b 208 93 103 -4 157 38 b 310 222 244 132 279 178 b 256 47 288 169 256 88 b 274 1 256 22 265 8 b 304 -10 281 -4 290 -10 z m 356 507 b 374 525 363 507 374 513 b 365 539 374 531 371 535 l 203 667 b 192 671 199 669 196 671 b 174 651 183 671 174 664 b 181 639 174 646 176 643 l 344 511 b 356 507 347 508 351 507 z "},"":{"ha":538,"x_min":0,"x_max":0,"o":"m 304 -10 b 551 201 379 -10 496 146 b 557 214 554 204 557 210 b 539 231 557 222 549 231 b 526 225 535 231 531 229 b 306 25 467 161 349 25 b 290 46 294 25 290 33 b 367 265 290 85 338 197 b 415 389 385 307 401 350 b 421 406 419 397 421 401 b 403 421 421 411 417 421 b 388 410 396 421 390 415 b 186 119 349 339 267 207 b 54 29 138 67 92 29 b 32 56 39 29 32 38 b 90 238 32 94 60 164 l 154 386 b 158 399 157 392 158 397 b 143 418 158 408 153 418 b 119 397 126 418 125 407 b -10 225 99 357 72 317 b -15 213 -12 222 -15 217 b 1 196 -15 204 -10 196 b 15 201 7 196 11 197 l 57 249 b -3 57 21 165 -3 101 b 7 17 -3 40 0 28 b 56 -6 14 7 26 -6 b 208 93 103 -4 157 38 b 310 222 244 132 279 178 b 256 47 288 169 256 88 b 274 1 256 22 265 8 b 304 -10 281 -4 290 -10 z m 229 506 b 240 508 233 506 236 507 l 403 636 b 410 651 407 640 410 646 b 393 667 410 660 404 667 b 382 664 389 667 386 667 l 218 536 b 213 522 214 533 213 528 b 229 506 213 514 218 506 z "},"":{"ha":538,"x_min":0,"x_max":0,"o":"m 304 -10 b 551 201 379 -10 496 146 b 557 214 554 204 557 210 b 539 231 557 222 549 231 b 526 225 535 231 531 229 b 306 25 467 161 349 25 b 290 46 294 25 290 33 b 367 265 290 85 338 197 b 415 389 385 307 401 350 b 421 406 419 397 421 401 b 403 421 421 411 417 421 b 388 410 396 421 390 415 b 186 119 349 339 267 207 b 54 29 138 67 92 29 b 32 56 39 29 32 38 b 90 238 32 94 60 164 l 154 386 b 158 399 157 392 158 397 b 143 418 158 408 153 418 b 119 397 126 418 125 407 b -10 225 99 357 72 317 b -15 213 -12 222 -15 217 b 1 196 -15 204 -10 196 b 15 201 7 196 11 197 l 57 249 b -3 57 21 165 -3 101 b 7 17 -3 40 0 28 b 56 -6 14 7 26 -6 b 208 93 103 -4 157 38 b 310 222 244 132 279 178 b 256 47 288 169 256 88 b 274 1 256 22 265 8 b 304 -10 281 -4 290 -10 z m 153 514 b 165 518 157 514 161 515 l 310 624 l 397 521 b 411 515 401 517 406 515 b 428 532 419 515 428 521 b 424 544 428 536 426 540 l 326 658 b 313 664 324 663 318 664 b 303 661 308 664 306 664 l 144 547 b 136 532 139 544 136 538 b 153 514 136 524 142 514 z "},"":{"ha":538,"x_min":0,"x_max":0,"o":"m 304 -10 b 551 201 379 -10 496 146 b 557 214 554 204 557 210 b 539 231 557 222 549 231 b 526 225 535 231 531 229 b 306 25 467 161 349 25 b 290 46 294 25 290 33 b 367 265 290 85 338 197 b 415 389 385 307 401 350 b 421 406 419 397 421 401 b 403 421 421 411 417 421 b 388 410 396 421 390 415 b 186 119 349 339 267 207 b 54 29 138 67 92 29 b 32 56 39 29 32 38 b 90 238 32 94 60 164 l 154 386 b 158 399 157 392 158 397 b 143 418 158 408 153 418 b 119 397 126 418 125 407 b -10 225 99 357 72 317 b -15 213 -12 222 -15 217 b 1 196 -15 204 -10 196 b 15 201 7 196 11 197 l 57 249 b -3 57 21 165 -3 101 b 7 17 -3 40 0 28 b 56 -6 14 7 26 -6 b 208 93 103 -4 157 38 b 310 222 244 132 279 178 b 256 47 288 169 256 88 b 274 1 256 22 265 8 b 304 -10 281 -4 290 -10 z m 274 592 b 246 622 274 607 264 622 b 207 581 225 622 207 604 b 235 549 207 567 215 549 b 274 592 247 549 274 560 z m 386 590 b 360 622 386 610 374 622 b 319 581 340 622 319 603 b 349 549 319 567 329 549 b 386 590 364 549 386 561 z "},"":{"ha":667,"x_min":0,"x_max":0,"o":"m 113 -428 b 276 -268 192 -428 243 -342 b 347 -92 301 -211 321 -153 l 369 -39 b 681 201 479 24 586 89 b 685 213 683 204 685 208 b 669 231 685 221 681 231 b 656 225 664 231 660 229 b 392 15 553 111 486 71 b 532 364 433 117 469 207 b 535 375 533 367 535 372 b 518 393 535 385 528 393 b 501 383 511 393 504 389 b 178 31 426 254 251 31 b 161 54 167 31 161 42 b 203 194 161 86 185 146 b 247 357 225 256 247 314 b 194 419 247 388 235 419 b -12 225 150 419 103 363 b -18 213 -15 222 -18 217 b -1 196 -18 204 -12 196 b 13 201 4 196 8 197 b 193 386 54 246 154 386 b 213 357 208 386 213 372 b 169 207 213 321 189 260 b 126 51 149 150 126 92 b 178 -3 126 22 140 -3 b 442 232 257 -3 374 139 b 342 -15 414 161 379 75 b 139 -158 282 -51 203 -103 b 26 -337 89 -200 26 -264 b 113 -428 26 -383 63 -428 z m 319 -69 b 243 -257 306 -100 275 -187 b 114 -393 204 -342 164 -393 b 61 -336 83 -393 61 -368 b 160 -185 61 -286 113 -226 b 319 -69 208 -142 268 -103 z m 314 506 b 325 508 318 506 321 507 l 488 636 b 494 651 492 640 494 646 b 478 667 494 660 489 667 b 467 664 474 667 471 667 l 303 536 b 297 522 299 533 297 528 b 314 506 297 514 303 506 z "},"":{"ha":507,"x_min":0,"x_max":0,"o":"m -176 -404 b -160 -394 -169 -404 -164 -403 b 40 74 -89 -231 -19 -68 b 340 401 132 260 271 401 b 368 361 363 401 368 383 b 354 288 368 336 360 306 b 239 83 335 217 293 136 b 113 25 203 49 168 25 b 69 33 92 25 79 33 b 53 15 58 33 53 25 b 64 -1 53 8 57 3 b 161 -12 74 -7 117 -12 b 349 38 218 -12 289 -1 b 517 200 413 81 464 142 b 522 215 521 204 522 210 b 507 231 522 222 517 231 b 493 225 501 231 497 229 b 329 67 436 164 378 99 b 229 28 299 46 264 35 b 388 278 307 85 364 194 b 400 360 393 297 400 329 b 342 436 400 399 388 436 b 113 257 275 436 186 356 l 157 365 b 296 522 203 418 243 461 b 472 819 349 583 472 740 b 418 889 472 853 457 889 b 329 826 393 889 360 872 b 126 385 282 754 200 564 b -11 225 82 336 44 293 b -15 211 -14 221 -15 217 b 0 196 -15 204 -10 196 b 14 201 6 196 10 197 b 88 289 42 236 64 261 l 11 96 b -192 -381 -56 -64 -142 -268 b -193 -387 -193 -383 -193 -385 b -176 -404 -193 -394 -187 -404 z m 418 854 b 439 824 433 854 439 839 b 269 546 439 757 322 608 b 196 463 242 514 218 486 b 358 807 258 610 321 749 b 418 854 381 840 403 854 z "},"":{"ha":667,"x_min":0,"x_max":0,"o":"m 113 -428 b 276 -268 192 -428 243 -342 b 347 -92 301 -211 321 -153 l 369 -39 b 681 201 479 24 586 89 b 685 213 683 204 685 208 b 669 231 685 221 681 231 b 656 225 664 231 660 229 b 392 15 553 111 486 71 b 532 364 433 117 469 207 b 535 375 533 367 535 372 b 518 393 535 385 528 393 b 501 383 511 393 504 389 b 178 31 426 254 251 31 b 161 54 167 31 161 42 b 203 194 161 86 185 146 b 247 357 225 256 247 314 b 194 419 247 388 235 419 b -12 225 150 419 103 363 b -18 213 -15 222 -18 217 b -1 196 -18 204 -12 196 b 13 201 4 196 8 197 b 193 386 54 246 154 386 b 213 357 208 386 213 372 b 169 207 213 321 189 260 b 126 51 149 150 126 92 b 178 -3 126 22 140 -3 b 442 232 257 -3 374 139 b 342 -15 414 161 379 75 b 139 -158 282 -51 203 -103 b 26 -337 89 -200 26 -264 b 113 -428 26 -383 63 -428 z m 319 -69 b 243 -257 306 -100 275 -187 b 114 -393 204 -342 164 -393 b 61 -336 83 -393 61 -368 b 160 -185 61 -286 113 -226 b 319 -69 208 -142 268 -103 z m 360 588 b 332 618 360 603 350 618 b 293 576 311 618 293 600 b 321 544 293 563 301 544 b 360 588 333 544 360 556 z m 472 586 b 446 618 472 606 460 618 b 406 576 426 618 406 599 b 435 544 406 563 415 544 b 472 586 450 544 472 557 z "},"":{"ha":783,"x_min":0,"x_max":0,"o":"m 126 -12 b 506 272 260 -12 406 136 b 449 68 472 189 449 118 b 525 -12 449 22 474 -12 b 799 201 603 -12 704 92 b 803 213 801 204 803 208 b 786 231 803 221 797 231 b 774 225 781 231 776 229 b 525 22 711 156 594 22 b 482 69 497 22 482 39 b 589 379 482 135 536 258 l 607 421 b 778 822 682 594 775 818 b 788 838 782 824 788 826 b 782 849 788 842 785 846 b 642 886 757 875 708 886 b 139 607 557 886 338 857 b -28 193 19 457 -28 306 b 126 -12 -28 93 11 -12 z m 743 835 b 585 460 699 721 639 585 b 124 22 490 285 292 22 b 6 194 38 22 6 114 b 165 585 6 299 51 440 b 642 851 356 824 563 851 b 743 835 692 851 726 843 z m 793 1029 b 810 1047 803 1029 810 1038 b 793 1064 810 1057 803 1064 l 544 1064 b 526 1047 535 1064 526 1057 b 544 1029 526 1038 535 1029 z "},"":{"ha":511,"x_min":0,"x_max":0,"o":"m 278 -10 b 526 201 331 -10 401 64 b 532 214 529 204 532 210 b 515 232 532 222 525 232 b 501 225 511 232 508 232 b 278 25 468 188 325 25 b 242 71 254 25 242 46 b 271 186 242 100 254 142 b 379 393 333 285 375 385 b 382 403 381 396 382 400 b 369 417 382 410 376 414 b 293 431 367 418 339 431 b -50 94 128 431 -50 247 b 40 -10 -50 36 -19 -10 b 210 100 110 -10 167 47 b 207 71 208 89 207 81 b 278 -10 207 31 229 -10 z m 292 396 b 336 390 310 396 325 393 b 239 200 314 354 269 276 b 39 25 200 135 117 25 b -15 93 3 25 -15 57 b 292 396 -15 218 140 396 z m 415 569 b 432 588 425 569 432 578 b 415 604 432 597 425 604 l 167 604 b 149 588 157 604 149 597 b 167 569 149 578 157 569 z "},"":{"ha":783,"x_min":0,"x_max":0,"o":"m 126 -12 b 506 272 260 -12 406 136 b 449 68 472 189 449 118 b 525 -12 449 22 474 -12 b 799 201 603 -12 704 92 b 803 213 801 204 803 208 b 786 231 803 221 797 231 b 774 225 781 231 776 229 b 525 22 711 156 594 22 b 482 69 497 22 482 39 b 589 379 482 135 536 258 l 607 421 b 778 822 682 594 775 818 b 788 838 782 824 788 826 b 782 849 788 842 785 846 b 642 886 757 875 708 886 b 139 607 557 886 338 857 b -28 193 19 457 -28 306 b 126 -12 -28 93 11 -12 z m 743 835 b 585 460 699 721 639 585 b 124 22 490 285 292 22 b 6 194 38 22 6 114 b 165 585 6 299 51 440 b 642 851 356 824 563 851 b 743 835 692 851 726 843 z m 688 972 b 764 996 710 972 736 978 b 832 1090 799 1018 832 1065 b 814 1108 832 1100 825 1108 b 799 1096 806 1108 799 1103 b 763 1039 799 1078 779 1054 b 688 1007 742 1019 714 1007 b 628 1064 656 1007 628 1029 b 631 1090 628 1078 631 1085 b 613 1108 631 1100 624 1108 b 597 1096 604 1108 599 1103 b 593 1064 594 1085 593 1074 b 688 972 593 1013 633 972 z "},"":{"ha":511,"x_min":0,"x_max":0,"o":"m 278 -10 b 526 201 331 -10 401 64 b 532 214 529 204 532 210 b 515 232 532 222 525 232 b 501 225 511 232 508 232 b 278 25 468 188 325 25 b 242 71 254 25 242 46 b 271 186 242 100 254 142 b 379 393 333 285 375 385 b 382 403 381 396 382 400 b 369 417 382 410 376 414 b 293 431 367 418 339 431 b -50 94 128 431 -50 247 b 40 -10 -50 36 -19 -10 b 210 100 110 -10 167 47 b 207 71 208 89 207 81 b 278 -10 207 31 229 -10 z m 292 396 b 336 390 310 396 325 393 b 239 200 314 354 269 276 b 39 25 200 135 117 25 b -15 93 3 25 -15 57 b 292 396 -15 218 140 396 z m 318 518 b 394 542 340 518 367 524 b 463 636 429 564 463 611 b 444 654 463 646 456 654 b 429 642 436 654 429 649 b 393 585 429 624 410 600 b 318 553 372 565 344 553 b 258 610 286 553 258 575 b 261 636 258 624 261 631 b 243 654 261 646 254 654 b 228 642 235 654 229 649 b 224 610 225 631 224 619 b 318 518 224 558 264 518 z "},"":{"ha":783,"x_min":0,"x_max":0,"o":"m 126 -12 b 506 272 260 -12 406 136 b 449 68 472 189 449 118 b 474 4 449 42 457 18 b 368 -86 432 -17 388 -53 b 344 -161 353 -111 344 -137 b 469 -267 344 -228 406 -267 b 526 -257 488 -267 507 -262 b 539 -240 535 -254 539 -247 b 521 -222 539 -232 531 -222 b 469 -231 511 -222 503 -231 b 379 -162 431 -231 379 -212 b 399 -104 379 -144 386 -125 b 522 -12 421 -65 475 -25 l 525 -12 b 799 201 603 -12 704 92 b 803 213 801 204 803 208 b 786 231 803 221 797 231 b 774 225 781 231 776 229 b 525 22 711 156 594 22 b 482 69 497 22 482 39 b 589 379 482 135 536 258 l 607 421 b 778 822 682 594 775 818 b 788 838 782 824 788 826 b 782 849 788 842 785 846 b 642 886 757 875 708 886 b 139 607 557 886 338 857 b -28 193 19 457 -28 306 b 126 -12 -28 93 11 -12 z m 743 835 b 585 460 699 721 639 585 b 124 22 490 285 292 22 b 6 194 38 22 6 114 b 165 585 6 299 51 440 b 642 851 356 824 563 851 b 743 835 692 851 726 843 z "},"":{"ha":511,"x_min":0,"x_max":0,"o":"m 228 -264 b 285 -254 246 -264 265 -260 b 297 -237 293 -251 297 -244 b 279 -219 297 -229 289 -219 b 228 -228 269 -219 261 -228 b 138 -160 189 -228 138 -210 b 157 -101 138 -142 144 -122 b 299 -6 183 -57 247 -15 b 526 201 349 10 417 81 b 532 214 529 204 532 210 b 515 232 532 222 525 232 b 501 225 511 232 508 232 b 278 25 468 188 325 25 b 242 71 254 25 242 46 b 271 186 242 100 254 142 b 379 393 333 285 375 385 b 382 403 381 396 382 400 b 369 417 382 410 376 414 b 293 431 367 418 339 431 b -50 94 128 431 -50 247 b 40 -10 -50 36 -19 -10 b 210 100 110 -10 167 47 b 207 71 208 89 207 81 b 232 7 207 46 215 22 b 126 -83 190 -14 146 -50 b 103 -158 111 -108 103 -135 b 228 -264 103 -225 164 -264 z m 292 396 b 336 390 310 396 325 393 b 239 200 314 354 269 276 b 39 25 200 135 117 25 b -15 93 3 25 -15 57 b 292 396 -15 218 140 396 z "},"":{"ha":643,"x_min":0,"x_max":0,"o":"m 275 -28 b 657 201 449 -28 569 103 b 663 214 660 204 663 210 b 644 231 663 222 654 231 b 632 225 640 231 635 228 b 275 7 536 117 433 7 b 69 224 131 7 69 86 b 539 857 69 467 313 857 b 625 757 594 857 625 822 b 511 560 625 681 579 586 b 500 544 504 557 500 551 b 518 526 500 535 507 526 b 524 528 521 526 522 526 b 658 757 606 560 658 668 b 539 892 658 833 619 892 b 35 222 289 892 35 483 b 275 -28 35 78 104 -28 z m 524 964 b 535 967 528 964 531 965 l 697 1094 b 704 1110 701 1099 704 1104 b 688 1125 704 1118 699 1125 b 676 1122 683 1125 681 1125 l 513 994 b 507 981 508 992 507 986 b 524 964 507 972 513 964 z "},"":{"ha":374,"x_min":0,"x_max":0,"o":"m 63 -11 b 388 201 189 -11 278 85 b 392 213 390 204 392 208 b 374 231 392 221 383 231 b 363 225 369 231 365 228 b 65 24 263 110 168 24 b -3 103 21 24 -3 51 b 125 351 -3 172 43 272 b 192 386 147 374 172 386 b 231 335 221 386 231 361 b 228 308 231 326 228 319 b 246 292 228 300 235 292 b 265 331 263 292 265 314 b 192 421 265 382 243 421 b 100 378 163 421 131 406 b -36 103 17 299 -36 188 b 63 -11 -36 38 -6 -11 z m 215 504 b 226 507 219 504 222 506 l 389 635 b 396 650 393 639 396 644 b 379 665 396 658 390 665 b 368 663 375 665 372 665 l 204 535 b 199 521 200 532 199 526 b 215 504 199 513 204 504 z "},"":{"ha":643,"x_min":0,"x_max":0,"o":"m 275 -28 b 657 201 449 -28 569 103 b 663 214 660 204 663 210 b 644 231 663 222 654 231 b 632 225 640 231 635 228 b 275 7 536 117 433 7 b 69 224 131 7 69 86 b 539 857 69 467 313 857 b 625 757 594 857 625 822 b 511 560 625 681 579 586 b 500 544 504 557 500 551 b 518 526 500 535 507 526 b 524 528 521 526 522 526 b 658 757 606 560 658 668 b 539 892 658 833 619 892 b 35 222 289 892 35 483 b 275 -28 35 78 104 -28 z m 426 967 b 439 971 431 967 435 968 l 583 1076 l 671 974 b 685 968 675 969 679 968 b 701 985 693 968 701 974 b 697 997 701 989 700 993 l 600 1111 b 586 1117 597 1115 592 1117 b 576 1114 582 1117 579 1117 l 418 1000 b 410 985 413 997 410 990 b 426 967 410 976 415 967 z "},"":{"ha":374,"x_min":0,"x_max":0,"o":"m 63 -11 b 388 201 189 -11 278 85 b 392 213 390 204 392 208 b 374 231 392 221 383 231 b 363 225 369 231 365 228 b 65 24 263 110 168 24 b -3 103 21 24 -3 51 b 125 351 -3 172 43 272 b 192 386 147 374 172 386 b 231 335 221 386 231 361 b 228 308 231 326 228 319 b 246 292 228 300 235 292 b 265 331 263 292 265 314 b 192 421 265 382 243 421 b 100 378 163 421 131 406 b -36 103 17 299 -36 188 b 63 -11 -36 38 -6 -11 z m 71 507 b 83 511 75 507 79 508 l 228 617 l 315 514 b 329 508 319 510 324 508 b 346 525 338 508 346 514 b 342 538 346 529 344 533 l 244 651 b 231 657 242 656 236 657 b 221 654 226 657 224 657 l 63 540 b 54 525 57 538 54 531 b 71 507 54 517 60 507 z "},"":{"ha":643,"x_min":0,"x_max":0,"o":"m 275 -28 b 657 201 449 -28 569 103 b 663 214 660 204 663 210 b 644 231 663 222 654 231 b 632 225 640 231 635 228 b 275 7 536 117 433 7 b 69 224 131 7 69 86 b 539 857 69 467 313 857 b 625 757 594 857 625 822 b 511 560 625 681 579 586 b 500 544 504 557 500 551 b 518 526 500 535 507 526 b 524 528 521 526 522 526 b 658 757 606 560 658 668 b 539 892 658 833 619 892 b 35 222 289 892 35 483 b 275 -28 35 78 104 -28 z m 644 1043 b 615 1072 644 1058 632 1072 b 588 1043 600 1072 588 1058 b 615 1014 588 1026 600 1014 b 644 1043 632 1014 644 1026 z "},"":{"ha":374,"x_min":0,"x_max":0,"o":"m 63 -11 b 388 201 189 -11 278 85 b 392 213 390 204 392 208 b 374 231 392 221 383 231 b 363 225 369 231 365 228 b 65 24 263 110 168 24 b -3 103 21 24 -3 51 b 125 351 -3 172 43 272 b 192 386 147 374 172 386 b 231 335 221 386 231 361 b 228 308 231 326 228 319 b 246 292 228 300 235 292 b 265 331 263 292 265 314 b 192 421 265 382 243 421 b 100 378 163 421 131 406 b -36 103 17 299 -36 188 b 63 -11 -36 38 -6 -11 z m 290 581 b 261 610 290 596 278 610 b 233 581 246 610 233 596 b 261 551 233 564 246 551 b 290 581 278 551 290 564 z "},"":{"ha":643,"x_min":0,"x_max":0,"o":"m 275 -28 b 657 201 449 -28 569 103 b 663 214 660 204 663 210 b 644 231 663 222 654 231 b 632 225 640 231 635 228 b 275 7 536 117 433 7 b 69 224 131 7 69 86 b 539 857 69 467 313 857 b 625 757 594 857 625 822 b 511 560 625 681 579 586 b 500 544 504 557 500 551 b 518 526 500 535 507 526 b 524 528 521 526 522 526 b 658 757 606 560 658 668 b 539 892 658 833 619 892 b 35 222 289 892 35 483 b 275 -28 35 78 104 -28 z m 572 965 b 582 969 575 965 579 967 l 740 1083 b 747 1097 746 1086 747 1092 b 731 1114 747 1106 742 1114 b 721 1111 726 1114 724 1114 l 575 1007 l 488 1108 b 474 1114 485 1113 479 1114 b 457 1097 465 1114 457 1107 b 461 1086 457 1093 458 1089 l 558 972 b 572 965 563 968 567 965 z "},"":{"ha":374,"x_min":0,"x_max":0,"o":"m 63 -11 b 388 201 189 -11 278 85 b 392 213 390 204 392 208 b 374 231 392 221 383 231 b 363 225 369 231 365 228 b 65 24 263 110 168 24 b -3 103 21 24 -3 51 b 125 351 -3 172 43 272 b 192 386 147 374 172 386 b 231 335 221 386 231 361 b 228 308 231 326 228 319 b 246 292 228 300 235 292 b 265 331 263 292 265 314 b 192 421 265 382 243 421 b 100 378 163 421 131 406 b -36 103 17 299 -36 188 b 63 -11 -36 38 -6 -11 z m 224 510 b 233 514 226 510 231 511 l 392 628 b 399 642 397 631 399 636 b 382 658 399 650 393 658 b 372 656 378 658 375 658 l 226 551 l 139 653 b 125 658 136 657 131 658 b 108 642 117 658 108 651 b 113 631 108 638 110 633 l 210 517 b 224 510 214 513 218 510 z "},"":{"ha":872,"x_min":0,"x_max":0,"o":"m 19 -36 b 138 29 47 -36 94 -22 b 353 -12 196 8 268 -12 b 831 522 635 -12 831 267 b 451 889 831 743 671 889 b 267 857 390 889 324 879 b 118 683 182 824 118 758 b 146 636 118 660 125 636 b 165 654 156 636 165 643 b 157 667 165 658 161 664 b 153 683 154 669 153 674 b 157 711 153 690 153 700 b 271 821 174 764 219 799 b 454 854 329 846 396 854 b 796 521 647 854 796 735 b 351 22 796 296 625 22 b 158 60 276 22 213 40 b 307 397 210 139 257 264 b 503 799 369 564 433 738 b 508 811 507 801 508 807 b 492 829 508 819 504 829 b 479 824 488 829 483 826 b 272 410 404 758 336 581 b 125 71 222 276 175 146 b 11 101 81 86 40 101 b -60 35 -25 101 -60 74 b 19 -36 -60 -6 -28 -36 z m 11 67 b 103 42 33 67 65 56 b 19 -3 85 25 56 -3 b -26 33 0 -3 -26 10 b 11 67 -26 51 -10 67 z m 546 967 b 556 971 549 967 553 968 l 714 1085 b 721 1099 719 1088 721 1093 b 704 1115 721 1107 715 1115 b 694 1113 700 1115 697 1115 l 549 1008 l 461 1110 b 447 1115 458 1114 453 1115 b 431 1099 439 1115 431 1108 b 435 1088 431 1094 432 1090 l 532 974 b 546 967 536 969 540 967 z "},"":{"ha":507,"x_min":0,"x_max":0,"o":"m 36 -8 b 238 129 118 -8 188 64 b 229 65 232 106 229 85 b 281 -7 229 36 243 -7 b 522 201 329 -7 399 67 b 528 215 525 204 528 211 b 511 232 528 225 522 232 b 497 225 506 232 500 228 b 279 28 425 144 319 28 b 263 67 265 28 263 51 b 349 326 263 103 285 192 b 488 643 428 490 461 581 b 532 750 504 683 514 710 b 535 761 533 753 535 758 b 518 778 535 769 528 778 b 501 767 511 778 504 774 b 458 663 489 739 475 704 b 311 329 418 567 363 439 b 214 157 283 271 251 211 b 36 26 178 104 107 26 b -19 94 0 26 -19 57 b 38 233 -19 131 -3 179 b 290 388 140 368 242 388 b 319 385 297 388 308 385 b 342 400 326 385 342 388 b 290 422 342 422 311 422 b 10 256 232 422 118 401 b -54 93 -32 199 -54 142 b 36 -8 -54 40 -22 -8 z m 560 593 b 574 600 565 593 569 596 b 644 736 586 617 644 697 b 614 768 644 753 632 768 b 585 740 599 768 585 756 b 603 713 585 728 593 717 b 546 621 592 688 568 650 b 543 611 543 618 543 615 b 560 593 543 603 549 593 z "},"":{"ha":872,"x_min":0,"x_max":0,"o":"m 501 396 b 518 414 511 396 518 404 b 501 431 518 424 511 431 l 319 431 b 503 799 378 586 438 742 b 508 811 507 801 508 807 b 492 829 508 819 504 829 b 479 824 488 829 483 826 b 279 431 407 761 342 594 l 114 431 b 96 414 104 431 96 424 b 114 396 96 404 104 396 l 267 396 b 125 71 218 267 174 143 b 11 101 81 86 40 101 b -60 35 -25 101 -60 74 b 19 -36 -60 -6 -28 -36 b 138 29 47 -36 94 -22 b 353 -12 196 8 268 -12 b 831 522 635 -12 831 267 b 451 889 831 743 671 889 b 267 857 390 889 324 879 b 118 683 182 824 118 758 b 146 636 118 660 125 636 b 165 654 156 636 165 643 b 157 667 165 658 161 664 b 153 683 154 669 153 674 b 157 711 153 690 153 700 b 271 821 174 764 219 799 b 454 854 329 846 396 854 b 796 521 647 854 796 735 b 351 22 796 296 625 22 b 158 60 276 22 213 40 b 306 396 210 139 256 263 z m 11 67 b 103 42 33 67 65 56 b 19 -3 85 25 56 -3 b -26 33 0 -3 -26 10 b 11 67 -26 51 -10 67 z "},"":{"ha":507,"x_min":0,"x_max":0,"o":"m 579 610 b 596 628 589 610 596 618 b 579 644 596 638 589 644 l 488 644 b 532 750 504 683 514 710 b 535 761 533 753 535 758 b 518 778 535 769 528 778 b 501 767 511 778 504 774 b 458 663 489 739 475 704 l 450 644 l 350 644 b 332 628 340 644 332 638 b 350 610 332 618 340 610 l 436 610 b 311 329 399 522 353 419 b 214 157 283 271 251 211 b 36 26 178 104 107 26 b -19 94 0 26 -19 57 b 38 233 -19 131 -3 179 b 290 388 140 368 242 388 b 319 385 297 388 308 385 b 342 400 326 385 342 388 b 290 422 342 422 311 422 b 10 256 232 422 118 401 b -54 93 -32 199 -54 142 b 36 -8 -54 40 -22 -8 b 238 129 118 -8 188 64 b 229 65 232 106 229 85 b 281 -7 229 36 243 -7 b 522 201 329 -7 399 67 b 528 215 525 204 528 211 b 511 232 528 225 522 232 b 497 225 506 232 500 228 b 279 28 425 144 319 28 b 263 67 265 28 263 51 b 349 326 263 103 285 192 b 474 610 414 463 449 549 l 579 610 z "},"":{"ha":624,"x_min":0,"x_max":0,"o":"m 199 -43 b 636 201 378 -43 518 65 b 643 215 639 204 643 211 b 624 232 643 224 635 232 b 611 225 619 232 615 229 b 201 -7 508 107 371 -7 b -3 165 100 -7 -3 46 b 285 433 -3 304 161 407 b 403 379 314 403 356 379 b 471 424 428 379 471 389 b 369 481 471 469 407 481 b 297 472 349 481 325 478 b 249 635 267 517 249 574 b 433 849 249 740 304 849 b 563 779 486 849 557 825 b 581 763 564 768 571 763 b 597 779 590 763 597 767 b 433 883 597 846 506 883 b 214 635 289 883 214 768 b 261 464 214 576 228 518 b -37 165 126 426 -37 322 b 199 -43 -37 38 68 -43 z m 326 442 b 369 446 343 444 357 446 b 436 424 389 446 436 438 b 406 415 436 418 422 415 b 326 442 376 415 351 422 z m 617 1026 b 633 1044 626 1026 633 1035 b 617 1061 633 1054 626 1061 l 368 1061 b 350 1044 358 1061 350 1054 b 368 1026 350 1035 358 1026 z "},"":{"ha":375,"x_min":0,"x_max":0,"o":"m 67 -11 b 388 201 153 -11 271 67 b 392 213 390 204 392 208 b 376 231 392 219 388 231 b 363 225 371 231 365 229 b 64 24 239 83 129 24 b -4 103 17 24 -4 56 b 8 183 -4 129 0 154 b 264 361 179 219 264 297 b 193 424 264 400 236 424 b -39 106 71 424 -39 222 b 67 -11 -39 44 -10 -11 z m 193 389 b 229 363 206 389 229 383 b 24 222 229 324 168 258 b 193 389 51 283 121 389 z m 322 568 b 339 586 332 568 339 576 b 322 603 339 596 332 603 l 74 603 b 56 586 64 603 56 596 b 74 568 56 576 64 568 z "},"":{"ha":624,"x_min":0,"x_max":0,"o":"m 199 -43 b 636 201 378 -43 518 65 b 643 215 639 204 643 211 b 624 232 643 224 635 232 b 611 225 619 232 615 229 b 201 -7 508 107 371 -7 b -3 165 100 -7 -3 46 b 285 433 -3 304 161 407 b 403 379 314 403 356 379 b 471 424 428 379 471 389 b 369 481 471 469 407 481 b 297 472 349 481 325 478 b 249 635 267 517 249 574 b 433 849 249 740 304 849 b 563 779 486 849 557 825 b 581 763 564 768 571 763 b 597 779 590 763 597 767 b 433 883 597 846 506 883 b 214 635 289 883 214 768 b 261 464 214 576 228 518 b -37 165 126 426 -37 322 b 199 -43 -37 38 68 -43 z m 326 442 b 369 446 343 444 357 446 b 436 424 389 446 436 438 b 406 415 436 418 422 415 b 326 442 376 415 351 422 z m 504 974 b 581 997 526 974 553 979 b 649 1092 615 1019 649 1067 b 631 1110 649 1101 642 1110 b 615 1097 622 1110 615 1104 b 579 1040 615 1079 596 1056 b 504 1008 558 1021 531 1008 b 444 1065 472 1008 444 1031 b 447 1092 444 1079 447 1086 b 429 1110 447 1101 440 1110 b 414 1097 421 1110 415 1104 b 410 1065 411 1086 410 1075 b 504 974 410 1014 450 974 z "},"":{"ha":375,"x_min":0,"x_max":0,"o":"m 67 -11 b 388 201 153 -11 271 67 b 392 213 390 204 392 208 b 376 231 392 219 388 231 b 363 225 371 231 365 229 b 64 24 239 83 129 24 b -4 103 17 24 -4 56 b 8 183 -4 129 0 154 b 264 361 179 219 264 297 b 193 424 264 400 236 424 b -39 106 71 424 -39 222 b 67 -11 -39 44 -10 -11 z m 193 389 b 229 363 206 389 229 383 b 24 222 229 324 168 258 b 193 389 51 283 121 389 z m 217 515 b 293 539 239 515 265 521 b 361 633 328 561 361 608 b 343 651 361 643 354 651 b 328 639 335 651 328 646 b 292 582 328 621 308 597 b 217 550 271 563 243 550 b 157 607 185 550 157 572 b 160 633 157 621 160 628 b 142 651 160 643 153 651 b 126 639 133 651 128 646 b 122 607 124 628 122 617 b 217 515 122 556 163 515 z "},"":{"ha":624,"x_min":0,"x_max":0,"o":"m 199 -43 b 636 201 378 -43 518 65 b 643 215 639 204 643 211 b 624 232 643 224 635 232 b 611 225 619 232 615 229 b 201 -7 508 107 371 -7 b -3 165 100 -7 -3 46 b 285 433 -3 304 161 407 b 403 379 314 403 356 379 b 471 424 428 379 471 389 b 369 481 471 469 407 481 b 297 472 349 481 325 478 b 249 635 267 517 249 574 b 433 849 249 740 304 849 b 563 779 486 849 557 825 b 581 763 564 768 571 763 b 597 779 590 763 597 767 b 433 883 597 846 506 883 b 214 635 289 883 214 768 b 261 464 214 576 228 518 b -37 165 126 426 -37 322 b 199 -43 -37 38 68 -43 z m 326 442 b 369 446 343 444 357 446 b 436 424 389 446 436 438 b 406 415 436 418 422 415 b 326 442 376 415 351 422 z m 574 1040 b 544 1069 574 1056 561 1069 b 517 1040 529 1069 517 1056 b 544 1011 517 1024 529 1011 b 574 1040 561 1011 574 1024 z "},"":{"ha":375,"x_min":0,"x_max":0,"o":"m 67 -11 b 388 201 153 -11 271 67 b 392 213 390 204 392 208 b 376 231 392 219 388 231 b 363 225 371 231 365 229 b 64 24 239 83 129 24 b -4 103 17 24 -4 56 b 8 183 -4 129 0 154 b 264 361 179 219 264 297 b 193 424 264 400 236 424 b -39 106 71 424 -39 222 b 67 -11 -39 44 -10 -11 z m 193 389 b 229 363 206 389 229 383 b 24 222 229 324 168 258 b 193 389 51 283 121 389 z m 272 586 b 243 615 272 601 260 615 b 215 586 228 615 215 601 b 243 557 215 569 228 557 b 272 586 260 557 272 569 z "},"":{"ha":624,"x_min":0,"x_max":0,"o":"m 115 -297 b 172 -287 133 -297 153 -293 b 185 -271 181 -285 185 -278 b 167 -253 185 -262 176 -253 b 115 -261 157 -253 149 -261 b 25 -193 76 -261 25 -243 b 44 -135 25 -175 32 -156 b 176 -42 68 -93 128 -51 b 199 -43 183 -43 192 -43 b 636 201 378 -43 518 65 b 643 215 639 204 643 211 b 624 232 643 224 635 232 b 611 225 619 232 615 229 b 201 -7 508 107 371 -7 b -3 165 100 -7 -3 46 b 285 433 -3 304 161 407 b 403 379 314 403 356 379 b 471 424 428 379 471 389 b 369 481 471 469 407 481 b 297 472 349 481 325 478 b 249 635 267 517 249 574 b 433 849 249 740 304 849 b 563 779 486 849 557 825 b 581 763 564 768 571 763 b 597 779 590 763 597 767 b 433 883 597 846 506 883 b 214 635 289 883 214 768 b 261 464 214 576 228 518 b -37 165 126 426 -37 322 b 113 -31 -37 67 24 -3 b 14 -117 74 -51 32 -86 b -10 -192 -1 -142 -10 -168 b 115 -297 -10 -258 51 -297 z m 326 442 b 369 446 343 444 357 446 b 436 424 389 446 436 438 b 406 415 436 418 422 415 b 326 442 376 415 351 422 z "},"":{"ha":375,"x_min":0,"x_max":0,"o":"m 15 -268 b 72 -258 33 -268 53 -264 b 85 -242 81 -256 85 -249 b 67 -224 85 -233 76 -224 b 15 -232 57 -224 49 -232 b -75 -164 -24 -232 -75 -214 b -56 -106 -75 -146 -68 -126 b 88 -10 -31 -64 31 -21 b 388 201 171 1 279 76 b 392 213 390 204 392 208 b 376 231 392 219 388 231 b 363 225 371 231 365 229 b 64 24 239 83 129 24 b -4 103 17 24 -4 56 b 8 183 -4 129 0 154 b 264 361 179 219 264 297 b 193 424 264 400 236 424 b -39 106 71 424 -39 222 b 14 0 -39 61 -24 19 b -86 -87 -25 -21 -67 -56 b -110 -162 -101 -112 -110 -139 b 15 -268 -110 -229 -49 -268 z m 193 389 b 229 363 206 389 229 383 b 24 222 229 324 168 258 b 193 389 51 283 121 389 z "},"":{"ha":624,"x_min":0,"x_max":0,"o":"m 199 -43 b 636 201 378 -43 518 65 b 643 215 639 204 643 211 b 624 232 643 224 635 232 b 611 225 619 232 615 229 b 201 -7 508 107 371 -7 b -3 165 100 -7 -3 46 b 285 433 -3 304 161 407 b 403 379 314 403 356 379 b 471 424 428 379 471 389 b 369 481 471 469 407 481 b 297 472 349 481 325 478 b 249 635 267 517 249 574 b 433 849 249 740 304 849 b 563 779 486 849 557 825 b 581 763 564 768 571 763 b 597 779 590 763 597 767 b 433 883 597 846 506 883 b 214 635 289 883 214 768 b 261 464 214 576 228 518 b -37 165 126 426 -37 322 b 199 -43 -37 38 68 -43 z m 326 442 b 369 446 343 444 357 446 b 436 424 389 446 436 438 b 406 415 436 418 422 415 b 326 442 376 415 351 422 z m 485 967 b 494 971 488 967 492 968 l 653 1085 b 660 1099 658 1088 660 1093 b 643 1115 660 1107 654 1115 b 633 1113 639 1115 636 1115 l 488 1008 l 400 1110 b 386 1115 397 1114 392 1115 b 369 1099 378 1115 369 1108 b 374 1088 369 1094 371 1090 l 471 974 b 485 967 475 969 479 967 z "},"":{"ha":375,"x_min":0,"x_max":0,"o":"m 67 -11 b 388 201 153 -11 271 67 b 392 213 390 204 392 208 b 376 231 392 219 388 231 b 363 225 371 231 365 229 b 64 24 239 83 129 24 b -4 103 17 24 -4 56 b 8 183 -4 129 0 154 b 264 361 179 219 264 297 b 193 424 264 400 236 424 b -39 106 71 424 -39 222 b 67 -11 -39 44 -10 -11 z m 193 389 b 229 363 206 389 229 383 b 24 222 229 324 168 258 b 193 389 51 283 121 389 z m 222 514 b 232 518 225 514 229 515 l 390 632 b 397 646 396 635 397 640 b 381 663 397 654 392 663 b 371 660 376 663 374 663 l 225 556 l 138 657 b 124 663 135 661 129 663 b 107 646 115 663 107 656 b 111 635 107 642 108 638 l 208 521 b 222 514 213 517 217 514 z "},"":{"ha":928,"x_min":0,"x_max":0,"o":"m -172 -33 b 268 343 -83 -33 106 144 b 497 671 360 454 443 572 b 536 668 508 669 522 668 b 874 739 668 668 804 699 b 500 71 840 600 719 211 b 351 131 447 86 397 108 b 240 175 311 149 274 167 b 206 181 228 179 215 181 b 151 131 176 181 151 163 b 224 21 151 90 186 47 b 343 -15 250 3 289 -15 b 504 32 397 -15 453 3 b 618 17 540 22 579 17 b 779 56 669 17 724 26 b 942 201 832 83 875 129 b 947 213 944 204 947 208 b 928 231 947 222 940 231 b 917 225 924 231 919 228 b 763 86 857 160 810 111 b 621 51 714 61 667 51 b 544 60 594 51 569 54 b 917 781 794 244 917 729 b 900 800 917 796 907 800 b 882 788 892 800 883 794 b 536 703 846 746 694 703 b 514 704 529 703 521 704 b 560 850 538 746 560 797 b 489 925 560 890 533 925 b 374 786 424 925 374 849 b 461 678 374 733 406 694 b 243 368 408 585 329 474 b -172 1 83 174 -99 1 b -190 -15 -182 1 -190 -6 b -172 -33 -190 -25 -182 -33 z m 206 146 b 338 99 239 146 296 118 b 458 47 375 81 415 63 b 342 19 424 31 385 19 b 243 49 297 19 265 33 b 186 124 207 75 186 111 b 206 146 186 135 190 146 z m 489 890 b 526 849 511 890 526 872 b 479 710 526 803 501 754 b 408 788 438 721 408 743 b 489 890 408 826 440 890 z m 613 967 b 625 971 617 967 621 968 l 769 1076 l 857 974 b 871 968 861 969 865 968 b 888 985 879 968 888 974 b 883 997 888 989 886 993 l 786 1111 b 772 1117 783 1115 778 1117 b 763 1114 768 1117 765 1117 l 604 1000 b 596 985 599 997 596 990 b 613 967 596 976 601 967 z "},"":{"ha":460,"x_min":0,"x_max":0,"o":"m -69 -433 b 85 -249 -1 -433 50 -321 b 194 -1 115 -185 151 -103 b 472 201 332 75 389 111 b 478 214 475 204 478 210 b 460 231 478 222 468 231 b 447 225 456 231 450 228 b 218 53 367 138 317 110 l 369 394 b 372 403 371 397 372 401 b 360 417 372 410 367 414 b 299 426 357 418 335 426 b 32 282 238 426 138 403 b -57 88 -25 217 -57 144 b 29 -7 -57 38 -26 -7 b 203 101 99 -7 154 44 l 167 22 b 89 -28 143 8 118 -8 b -137 -346 -75 -133 -137 -264 b -69 -433 -137 -390 -117 -433 z m 299 392 b 329 389 311 392 321 390 b 60 32 272 264 167 63 b 29 28 50 29 40 28 b -22 88 -4 28 -22 51 b 58 258 -22 132 3 194 b 299 392 156 371 246 392 z m 143 -33 b 53 -236 111 -104 82 -175 b -69 -397 8 -329 -32 -397 b -103 -344 -94 -397 -103 -369 b 107 -57 -103 -278 -51 -160 b 143 -33 119 -49 132 -42 z m 172 511 b 185 515 176 511 181 513 l 329 621 l 417 518 b 431 513 421 514 425 513 b 447 529 439 513 447 518 b 443 542 447 533 446 538 l 346 656 b 332 661 343 660 338 661 b 322 658 328 661 325 661 l 164 544 b 156 529 158 542 156 535 b 172 511 156 521 161 511 z "},"":{"ha":928,"x_min":0,"x_max":0,"o":"m -172 -33 b 268 343 -83 -33 106 144 b 497 671 360 454 443 572 b 536 668 508 669 522 668 b 874 739 668 668 804 699 b 500 71 840 600 719 211 b 351 131 447 86 397 108 b 240 175 311 149 274 167 b 206 181 228 179 215 181 b 151 131 176 181 151 163 b 224 21 151 90 186 47 b 343 -15 250 3 289 -15 b 504 32 397 -15 453 3 b 618 17 540 22 579 17 b 779 56 669 17 724 26 b 942 201 832 83 875 129 b 947 213 944 204 947 208 b 928 231 947 222 940 231 b 917 225 924 231 919 228 b 763 86 857 160 810 111 b 621 51 714 61 667 51 b 544 60 594 51 569 54 b 917 781 794 244 917 729 b 900 800 917 796 907 800 b 882 788 892 800 883 794 b 536 703 846 746 694 703 b 514 704 529 703 521 704 b 560 850 538 746 560 797 b 489 925 560 890 533 925 b 374 786 424 925 374 849 b 461 678 374 733 406 694 b 243 368 408 585 329 474 b -172 1 83 174 -99 1 b -190 -15 -182 1 -190 -6 b -172 -33 -190 -25 -182 -33 z m 206 146 b 338 99 239 146 296 118 b 458 47 375 81 415 63 b 342 19 424 31 385 19 b 243 49 297 19 265 33 b 186 124 207 75 186 111 b 206 146 186 135 190 146 z m 489 890 b 526 849 511 890 526 872 b 479 710 526 803 501 754 b 408 788 438 721 408 743 b 489 890 408 826 440 890 z m 760 971 b 836 994 782 971 808 976 b 904 1089 871 1017 904 1064 b 886 1107 904 1099 897 1107 b 871 1094 878 1107 871 1101 b 835 1038 871 1076 851 1053 b 760 1006 814 1018 786 1006 b 700 1063 728 1006 700 1028 b 703 1089 700 1076 703 1083 b 685 1107 703 1099 696 1107 b 669 1094 676 1107 671 1101 b 665 1063 667 1083 665 1072 b 760 971 665 1011 706 971 z "},"":{"ha":460,"x_min":0,"x_max":0,"o":"m -69 -433 b 85 -249 -1 -433 50 -321 b 194 -1 115 -185 151 -103 b 472 201 332 75 389 111 b 478 214 475 204 478 210 b 460 231 478 222 468 231 b 447 225 456 231 450 228 b 218 53 367 138 317 110 l 369 394 b 372 403 371 397 372 401 b 360 417 372 410 367 414 b 299 426 357 418 335 426 b 32 282 238 426 138 403 b -57 88 -25 217 -57 144 b 29 -7 -57 38 -26 -7 b 203 101 99 -7 154 44 l 167 22 b 89 -28 143 8 118 -8 b -137 -346 -75 -133 -137 -264 b -69 -433 -137 -390 -117 -433 z m 299 392 b 329 389 311 392 321 390 b 60 32 272 264 167 63 b 29 28 50 29 40 28 b -22 88 -4 28 -22 51 b 58 258 -22 132 3 194 b 299 392 156 371 246 392 z m 143 -33 b 53 -236 111 -104 82 -175 b -69 -397 8 -329 -32 -397 b -103 -344 -94 -397 -103 -369 b 107 -57 -103 -278 -51 -160 b 143 -33 119 -49 132 -42 z m 283 518 b 360 542 306 518 332 524 b 428 636 394 564 428 611 b 410 654 428 646 421 654 b 394 642 401 654 394 649 b 358 585 394 624 375 600 b 283 553 338 565 310 553 b 224 610 251 553 224 575 b 226 636 224 624 226 631 b 208 654 226 646 219 654 b 193 642 200 654 194 649 b 189 610 190 631 189 619 b 283 518 189 558 229 518 z "},"":{"ha":928,"x_min":0,"x_max":0,"o":"m -172 -33 b 268 343 -83 -33 106 144 b 497 671 360 454 443 572 b 536 668 508 669 522 668 b 874 739 668 668 804 699 b 500 71 840 600 719 211 b 351 131 447 86 397 108 b 240 175 311 149 274 167 b 206 181 228 179 215 181 b 151 131 176 181 151 163 b 224 21 151 90 186 47 b 343 -15 250 3 289 -15 b 504 32 397 -15 453 3 b 618 17 540 22 579 17 b 779 56 669 17 724 26 b 942 201 832 83 875 129 b 947 213 944 204 947 208 b 928 231 947 222 940 231 b 917 225 924 231 919 228 b 763 86 857 160 810 111 b 621 51 714 61 667 51 b 544 60 594 51 569 54 b 917 781 794 244 917 729 b 900 800 917 796 907 800 b 882 788 892 800 883 794 b 536 703 846 746 694 703 b 514 704 529 703 521 704 b 560 850 538 746 560 797 b 489 925 560 890 533 925 b 374 786 424 925 374 849 b 461 678 374 733 406 694 b 243 368 408 585 329 474 b -172 1 83 174 -99 1 b -190 -15 -182 1 -190 -6 b -172 -33 -190 -25 -182 -33 z m 206 146 b 338 99 239 146 296 118 b 458 47 375 81 415 63 b 342 19 424 31 385 19 b 243 49 297 19 265 33 b 186 124 207 75 186 111 b 206 146 186 135 190 146 z m 489 890 b 526 849 511 890 526 872 b 479 710 526 803 501 754 b 408 788 438 721 408 743 b 489 890 408 826 440 890 z m 760 1047 b 731 1076 760 1063 747 1076 b 703 1047 715 1076 703 1063 b 731 1018 703 1031 715 1018 b 760 1047 747 1018 760 1031 z "},"":{"ha":460,"x_min":0,"x_max":0,"o":"m -69 -433 b 85 -249 -1 -433 50 -321 b 194 -1 115 -185 151 -103 b 472 201 332 75 389 111 b 478 214 475 204 478 210 b 460 231 478 222 468 231 b 447 225 456 231 450 228 b 218 53 367 138 317 110 l 369 394 b 372 403 371 397 372 401 b 360 417 372 410 367 414 b 299 426 357 418 335 426 b 32 282 238 426 138 403 b -57 88 -25 217 -57 144 b 29 -7 -57 38 -26 -7 b 203 101 99 -7 154 44 l 167 22 b 89 -28 143 8 118 -8 b -137 -346 -75 -133 -137 -264 b -69 -433 -137 -390 -117 -433 z m 299 392 b 329 389 311 392 321 390 b 60 32 272 264 167 63 b 29 28 50 29 40 28 b -22 88 -4 28 -22 51 b 58 258 -22 132 3 194 b 299 392 156 371 246 392 z m 143 -33 b 53 -236 111 -104 82 -175 b -69 -397 8 -329 -32 -397 b -103 -344 -94 -397 -103 -369 b 107 -57 -103 -278 -51 -160 b 143 -33 119 -49 132 -42 z m 343 586 b 314 615 343 601 331 615 b 286 586 299 615 286 601 b 314 557 286 569 299 557 b 343 586 331 557 343 569 z "},"":{"ha":928,"x_min":0,"x_max":0,"o":"m 232 -246 b 246 -239 238 -246 242 -243 b 317 -103 258 -222 317 -142 b 286 -71 317 -86 304 -71 b 257 -99 271 -71 257 -83 b 275 -126 257 -111 265 -122 b 218 -218 264 -151 240 -189 b 215 -228 215 -221 215 -224 b 232 -246 215 -236 221 -246 z m -172 -33 b 268 343 -83 -33 106 144 b 497 671 360 454 443 572 b 536 668 508 669 522 668 b 874 739 668 668 804 699 b 500 71 840 600 719 211 b 351 131 447 86 397 108 b 240 175 311 149 274 167 b 206 181 228 179 215 181 b 151 131 176 181 151 163 b 224 21 151 90 186 47 b 343 -15 250 3 289 -15 b 504 32 397 -15 453 3 b 618 17 540 22 579 17 b 779 56 669 17 724 26 b 942 201 832 83 875 129 b 947 213 944 204 947 208 b 928 231 947 222 940 231 b 917 225 924 231 919 228 b 763 86 857 160 810 111 b 621 51 714 61 667 51 b 544 60 594 51 569 54 b 917 781 794 244 917 729 b 900 800 917 796 907 800 b 882 788 892 800 883 794 b 536 703 846 746 694 703 b 514 704 529 703 521 704 b 560 850 538 746 560 797 b 489 925 560 890 533 925 b 374 786 424 925 374 849 b 461 678 374 733 406 694 b 243 368 408 585 329 474 b -172 1 83 174 -99 1 b -190 -15 -182 1 -190 -6 b -172 -33 -190 -25 -182 -33 z m 206 146 b 338 99 239 146 296 118 b 458 47 375 81 415 63 b 342 19 424 31 385 19 b 243 49 297 19 265 33 b 186 124 207 75 186 111 b 206 146 186 135 190 146 z m 489 890 b 526 849 511 890 526 872 b 479 710 526 803 501 754 b 408 788 438 721 408 743 b 489 890 408 826 440 890 z "},"":{"ha":460,"x_min":0,"x_max":0,"o":"m -69 -433 b 85 -249 -1 -433 50 -321 b 194 -1 115 -185 151 -103 b 472 201 332 75 389 111 b 478 214 475 204 478 210 b 460 231 478 222 468 231 b 447 225 456 231 450 228 b 218 53 367 138 317 110 l 369 394 b 372 403 371 397 372 401 b 360 417 372 410 367 414 b 299 426 357 418 335 426 b 32 282 238 426 138 403 b -57 88 -25 217 -57 144 b 29 -7 -57 38 -26 -7 b 203 101 99 -7 154 44 l 167 22 b 89 -28 143 8 118 -8 b -137 -346 -75 -133 -137 -264 b -69 -433 -137 -390 -117 -433 z m 299 392 b 329 389 311 392 321 390 b 60 32 272 264 167 63 b 29 28 50 29 40 28 b -22 88 -4 28 -22 51 b 58 258 -22 132 3 194 b 299 392 156 371 246 392 z m 143 -33 b 53 -236 111 -104 82 -175 b -69 -397 8 -329 -32 -397 b -103 -344 -94 -397 -103 -369 b 107 -57 -103 -278 -51 -160 b 143 -33 119 -49 132 -42 z m 344 679 b 331 672 339 679 335 676 b 260 536 318 656 260 575 b 290 504 260 519 272 504 b 319 532 306 504 319 517 b 301 560 319 544 311 556 b 358 651 313 585 336 622 b 361 661 361 654 361 657 b 344 679 361 669 356 679 z "},"":{"ha":813,"x_min":0,"x_max":0,"o":"m 561 -4 b 826 201 643 -4 735 100 b 831 213 829 204 831 208 b 815 231 831 222 825 231 b 801 225 811 231 806 231 b 561 31 719 135 626 31 b 522 75 532 31 522 47 b 639 438 522 147 583 299 b 819 858 676 528 743 681 b 822 867 821 861 822 865 b 804 885 822 875 815 885 b 788 874 797 885 790 881 b 624 493 751 786 678 624 b 386 425 576 414 472 425 b 171 394 299 425 231 428 b 332 815 239 569 332 765 b 236 889 332 865 286 889 b 128 864 210 889 168 882 b 40 776 83 844 40 808 b 58 758 40 767 49 758 b 74 772 67 758 74 764 b 160 840 74 792 113 822 b 233 854 185 850 214 854 b 297 814 258 854 297 849 b 65 226 297 779 151 435 l -19 22 b -21 15 -21 19 -21 17 b -3 -1 -21 7 -14 -1 b 13 10 4 -1 10 3 b 97 214 29 50 61 125 l 129 292 l 133 299 b 385 390 165 385 239 390 b 593 417 454 390 525 385 b 488 76 547 300 488 156 b 561 -4 488 33 508 -4 z m 419 975 b 432 979 424 975 428 976 l 576 1085 l 664 982 b 678 976 668 978 672 976 b 694 993 686 976 694 982 b 690 1006 694 997 693 1001 l 593 1119 b 579 1125 590 1124 585 1125 b 569 1122 575 1125 572 1125 l 411 1008 b 403 993 406 1006 403 999 b 419 975 403 985 408 975 z "},"":{"ha":544,"x_min":0,"x_max":0,"o":"m -4 -19 b 33 56 11 -19 24 38 b 301 385 113 236 256 371 b 332 390 313 389 324 390 b 367 351 354 390 367 376 b 322 218 367 335 356 290 b 265 44 289 146 265 85 b 311 -10 265 19 281 -10 b 558 201 381 -10 510 149 b 563 213 561 204 563 208 b 546 231 563 222 556 231 b 533 225 542 231 536 228 b 314 25 458 142 353 25 b 300 46 304 25 300 33 b 354 206 300 79 328 144 b 401 353 394 299 401 328 b 332 425 401 397 376 425 b 292 418 319 425 306 422 b 114 257 253 407 182 346 l 158 368 b 297 526 201 417 249 472 b 468 788 382 624 456 742 b 472 817 471 796 472 807 b 418 882 472 849 451 882 b 329 818 393 882 360 865 b 129 386 290 758 222 614 l 118 374 b -11 225 60 307 17 256 b -17 214 -14 222 -17 218 b 3 196 -17 206 -7 196 b 14 201 7 196 11 197 b 88 286 33 222 54 247 l 1 68 b -26 -1 -8 47 -26 8 b -4 -19 -26 -17 -7 -19 z m 418 847 b 438 817 432 847 438 832 b 435 796 438 810 436 800 b 333 626 428 772 397 713 b 201 469 299 581 256 531 b 358 800 272 639 325 750 b 418 847 381 833 400 847 z m 303 974 b 315 978 307 974 311 975 l 460 1083 l 547 981 b 561 975 551 976 556 975 b 578 992 569 975 578 981 b 574 1004 578 996 576 1000 l 476 1118 b 463 1124 474 1122 468 1124 b 453 1121 458 1124 456 1124 l 294 1007 b 286 992 289 1004 286 997 b 303 974 286 983 292 974 z "},"":{"ha":813,"x_min":0,"x_max":0,"o":"m 561 -4 b 826 201 643 -4 735 100 b 831 213 829 204 831 208 b 815 231 831 222 825 231 b 801 225 811 231 806 231 b 561 31 719 135 626 31 b 522 75 532 31 522 47 b 639 438 522 147 583 299 b 735 663 661 492 694 569 l 838 663 b 854 681 847 663 854 671 b 838 697 854 690 847 697 l 750 697 l 819 858 b 822 867 821 861 822 865 b 804 885 822 875 815 885 b 788 874 797 885 790 881 b 711 697 769 829 740 765 l 296 697 b 332 815 318 753 332 794 b 236 889 332 865 286 889 b 128 864 210 889 168 882 b 40 776 83 844 40 808 b 58 758 40 767 49 758 b 74 772 67 758 74 764 b 160 840 74 792 113 822 b 233 854 185 850 214 854 b 297 814 258 854 297 849 b 258 697 297 803 282 758 l 158 697 b 140 681 149 697 140 690 b 158 663 140 671 149 663 l 244 663 b 65 226 194 535 118 354 l -19 22 b -21 15 -21 19 -21 17 b -3 -1 -21 7 -14 -1 b 13 10 4 -1 10 3 b 97 214 29 50 61 125 l 129 292 l 133 299 b 385 390 165 385 239 390 b 593 417 454 390 525 385 b 488 76 547 300 488 156 b 561 -4 488 33 508 -4 z m 171 394 b 282 663 206 486 249 583 l 696 663 l 624 493 b 386 425 576 414 472 425 b 171 394 299 425 231 428 z "},"":{"ha":544,"x_min":0,"x_max":0,"o":"m 488 725 b 504 743 497 725 504 733 b 488 760 504 753 497 760 l 457 760 l 468 788 b 472 817 471 796 472 807 b 418 882 472 849 451 882 b 329 818 393 882 360 865 b 296 760 319 803 308 783 l 239 760 b 221 743 229 760 221 753 b 239 725 221 733 229 725 l 278 725 b 129 386 239 647 189 535 l 118 374 b -11 225 60 307 17 256 b -17 214 -14 222 -17 218 b 3 196 -17 206 -7 196 b 14 201 7 196 11 197 b 88 286 33 222 54 247 l 1 68 b -26 -1 -8 47 -26 8 b -4 -19 -26 -17 -7 -19 b 33 56 11 -19 24 38 b 301 385 113 236 256 371 b 332 390 313 389 324 390 b 367 351 354 390 367 376 b 322 218 367 335 356 290 b 265 44 289 146 265 85 b 311 -10 265 19 281 -10 b 558 201 381 -10 510 149 b 563 213 561 204 563 208 b 546 231 563 222 556 231 b 533 225 542 231 536 228 b 314 25 458 142 353 25 b 300 46 304 25 300 33 b 354 206 300 79 328 144 b 401 353 394 299 401 328 b 332 425 401 397 376 425 b 292 418 319 425 306 422 b 114 257 253 407 182 346 l 158 368 b 297 526 201 417 249 472 b 439 725 354 593 408 668 z m 201 469 b 315 725 247 579 285 664 l 400 725 b 333 626 383 697 361 665 b 201 469 299 581 256 531 z m 418 847 b 438 817 432 847 438 832 b 435 796 438 810 436 800 b 418 760 432 788 426 775 l 333 760 l 358 800 b 418 847 381 833 400 847 z "},"":{"ha":618,"x_min":0,"x_max":0,"o":"m 81 -21 b 183 3 111 -21 146 -14 b 301 83 224 21 263 49 b 386 -17 318 8 357 -17 b 406 1 396 -17 406 -12 b 389 18 406 10 400 17 b 332 113 358 22 340 54 b 658 790 511 296 658 625 b 586 892 658 838 643 892 b 293 186 431 892 293 439 b 296 124 293 167 293 146 b 169 35 254 85 213 54 b 81 14 136 21 107 14 b -21 57 35 14 0 33 b -46 121 -37 76 -46 99 b -32 168 -46 138 -42 153 b -29 178 -31 171 -29 175 b -47 194 -29 186 -36 194 b -61 186 -53 194 -58 192 b -81 121 -74 165 -81 143 b -47 35 -81 90 -69 60 b 81 -21 -21 4 24 -21 z m 589 857 b 624 792 618 857 624 819 b 328 157 624 654 496 342 l 328 186 b 589 857 328 442 463 857 z m 661 981 b 761 1069 726 981 758 1061 b 763 1076 763 1072 763 1075 b 746 1093 763 1085 756 1093 b 729 1082 739 1093 732 1089 b 661 1017 728 1081 703 1017 b 617 1051 639 1017 628 1033 b 551 1099 603 1072 586 1099 b 457 1007 492 1099 458 1051 b 475 982 457 999 457 982 b 492 996 483 982 492 989 b 551 1064 492 1036 517 1064 b 589 1032 567 1064 575 1053 b 661 981 606 1007 626 981 z "},"":{"ha":279,"x_min":0,"x_max":0,"o":"m 47 -11 b 114 19 68 -11 92 -1 b 293 201 239 135 292 200 b 299 214 296 204 299 210 b 282 231 299 221 293 231 b 268 225 276 231 271 229 b 92 44 267 224 185 129 b 49 24 75 29 60 24 b 33 53 35 24 33 36 b 90 224 38 96 63 161 b 178 394 128 306 169 381 b 179 406 179 397 179 403 b 163 421 179 415 174 421 b 149 414 157 421 151 418 l 58 308 b -11 225 18 263 -4 233 b -15 214 -14 222 -15 218 b 1 196 -15 206 -8 196 b 13 201 6 196 8 197 b 75 274 28 217 36 228 b -1 47 44 210 -1 108 b 47 -11 -1 19 11 -11 z m 260 528 b 360 617 325 528 357 608 b 361 624 361 619 361 622 b 344 640 361 632 354 640 b 328 629 338 640 331 636 b 260 564 326 628 301 564 b 215 599 238 564 226 581 b 150 646 201 619 185 646 b 56 554 90 646 57 599 b 74 529 56 546 56 529 b 90 543 82 529 90 536 b 150 611 90 583 115 611 b 188 579 165 611 174 600 b 260 528 204 554 225 528 z "},"":{"ha":618,"x_min":0,"x_max":0,"o":"m 81 -21 b 183 3 111 -21 146 -14 b 301 83 224 21 263 49 b 386 -17 318 8 357 -17 b 406 1 396 -17 406 -12 b 389 18 406 10 400 17 b 332 113 358 22 340 54 b 658 790 511 296 658 625 b 586 892 658 838 643 892 b 293 186 431 892 293 439 b 296 124 293 167 293 146 b 169 35 254 85 213 54 b 81 14 136 21 107 14 b -21 57 35 14 0 33 b -46 121 -37 76 -46 99 b -32 168 -46 138 -42 153 b -29 178 -31 171 -29 175 b -47 194 -29 186 -36 194 b -61 186 -53 194 -58 192 b -81 121 -74 165 -81 143 b -47 35 -81 90 -69 60 b 81 -21 -21 4 24 -21 z m 589 857 b 624 792 618 857 624 819 b 328 157 624 654 496 342 l 328 186 b 589 857 328 442 463 857 z m 738 1036 b 754 1054 747 1036 754 1044 b 738 1071 754 1064 747 1071 l 489 1071 b 471 1054 479 1071 471 1064 b 489 1036 471 1044 479 1036 z "},"":{"ha":279,"x_min":0,"x_max":0,"o":"m 47 -11 b 114 19 68 -11 92 -1 b 293 201 239 135 292 200 b 299 214 296 204 299 210 b 282 231 299 221 293 231 b 268 225 276 231 271 229 b 92 44 267 224 185 129 b 49 24 75 29 60 24 b 33 53 35 24 33 36 b 90 224 38 96 63 161 b 178 394 128 306 169 381 b 179 406 179 397 179 403 b 163 421 179 415 174 421 b 149 414 157 421 151 418 l 58 308 b -11 225 18 263 -4 233 b -15 214 -14 222 -15 218 b 1 196 -15 206 -8 196 b 13 201 6 196 8 197 b 75 274 28 217 36 228 b -1 47 44 210 -1 108 b 47 -11 -1 19 11 -11 z m 326 572 b 343 590 336 572 343 581 b 326 607 343 600 336 607 l 78 607 b 60 590 68 607 60 600 b 78 572 60 581 68 572 z "},"":{"ha":618,"x_min":0,"x_max":0,"o":"m 81 -21 b 183 3 111 -21 146 -14 b 301 83 224 21 263 49 b 386 -17 318 8 357 -17 b 406 1 396 -17 406 -12 b 389 18 406 10 400 17 b 332 113 358 22 340 54 b 658 790 511 296 658 625 b 586 892 658 838 643 892 b 293 186 431 892 293 439 b 296 124 293 167 293 146 b 169 35 254 85 213 54 b 81 14 136 21 107 14 b -21 57 35 14 0 33 b -46 121 -37 76 -46 99 b -32 168 -46 138 -42 153 b -29 178 -31 171 -29 175 b -47 194 -29 186 -36 194 b -61 186 -53 194 -58 192 b -81 121 -74 165 -81 143 b -47 35 -81 90 -69 60 b 81 -21 -21 4 24 -21 z m 589 857 b 624 792 618 857 624 819 b 328 157 624 654 496 342 l 328 186 b 589 857 328 442 463 857 z m 629 974 b 706 997 651 974 678 979 b 774 1092 740 1019 774 1067 b 756 1110 774 1101 767 1110 b 740 1097 747 1110 740 1104 b 704 1040 740 1079 721 1056 b 629 1008 683 1021 656 1008 b 569 1065 597 1008 569 1031 b 572 1092 569 1079 572 1086 b 554 1110 572 1101 565 1110 b 539 1097 546 1110 540 1104 b 535 1065 536 1086 535 1075 b 629 974 535 1014 575 974 z "},"":{"ha":283,"x_min":0,"x_max":0,"o":"m 47 -11 b 114 19 68 -11 92 -1 b 293 201 239 135 292 200 b 299 214 296 204 299 210 b 282 231 299 221 293 231 b 268 225 276 231 271 229 b 92 44 267 224 185 129 b 49 24 75 29 60 24 b 33 53 35 24 33 36 b 90 224 38 96 63 161 b 178 394 128 306 169 381 b 179 406 179 397 179 403 b 163 421 179 415 174 421 b 149 414 157 421 151 418 l 58 308 b -11 225 18 263 -4 233 b -15 214 -14 222 -15 218 b 1 196 -15 206 -8 196 b 13 201 6 196 8 197 b 75 274 28 217 36 228 b -1 47 44 210 -1 108 b 47 -11 -1 19 11 -11 z m 208 519 b 285 543 231 519 257 525 b 353 638 319 565 353 613 b 335 656 353 647 346 656 b 319 643 326 656 319 650 b 283 586 319 625 300 601 b 208 554 263 567 235 554 b 149 611 176 554 149 576 b 151 638 149 625 151 632 b 133 656 151 647 144 656 b 118 643 125 656 119 650 b 114 611 115 632 114 621 b 208 519 114 560 154 519 z "},"":{"ha":618,"x_min":0,"x_max":0,"o":"m 326 -272 b 383 -262 344 -272 364 -268 b 396 -246 392 -260 396 -253 b 378 -228 396 -237 388 -228 b 326 -236 368 -228 360 -236 b 236 -168 288 -236 236 -218 b 256 -110 236 -150 243 -131 b 392 -17 281 -68 342 -25 b 407 3 401 -15 407 -7 b 389 18 407 14 397 17 b 332 113 356 22 340 54 b 658 790 511 296 658 625 b 586 892 658 838 643 892 b 293 186 431 892 293 439 b 296 124 293 167 293 146 b 169 35 254 85 213 54 b 81 14 136 21 107 14 b -21 57 35 14 0 33 b -46 121 -37 76 -46 99 b -32 168 -46 138 -42 153 b -29 178 -31 171 -29 175 b -47 194 -29 186 -36 194 b -61 186 -53 194 -58 192 b -81 121 -74 165 -81 143 b -47 35 -81 90 -69 60 b 81 -21 -21 4 24 -21 b 183 3 111 -21 146 -14 b 301 83 224 21 263 49 b 340 3 310 44 325 18 b 225 -92 297 -17 246 -56 b 201 -167 210 -117 201 -143 b 326 -272 201 -233 263 -272 z m 589 857 b 624 792 618 857 624 819 b 328 157 624 654 496 342 l 328 186 b 589 857 328 442 463 857 z "},"":{"ha":279,"x_min":0,"x_max":0,"o":"m -7 -265 b 50 -256 11 -265 31 -261 b 63 -239 58 -253 63 -246 b 44 -221 63 -231 54 -221 b -7 -229 35 -221 26 -229 b -97 -161 -46 -229 -97 -211 b -78 -103 -97 -143 -90 -124 b 50 -11 -54 -62 1 -22 b 114 19 71 -10 93 0 b 293 201 239 135 292 200 b 299 214 296 204 299 210 b 282 231 299 221 293 231 b 268 225 276 231 271 229 b 92 44 267 224 185 129 b 51 24 76 31 63 24 b 33 53 35 24 33 36 b 90 224 38 96 63 161 b 178 394 128 306 169 381 b 179 406 179 397 179 403 b 163 421 179 415 174 421 b 149 414 157 421 151 418 l 58 308 b -11 225 18 263 -4 233 b -15 214 -14 222 -15 218 b 1 196 -15 206 -8 196 b 13 201 6 196 8 197 b 75 274 28 217 36 228 b -1 47 44 210 -1 108 b 7 10 -1 35 1 21 b -108 -85 -36 -10 -86 -49 b -132 -160 -124 -110 -132 -136 b -7 -265 -132 -226 -71 -265 z m 282 565 b 254 596 282 581 274 596 b 218 556 235 596 218 578 b 244 524 218 539 225 524 b 282 565 258 524 282 532 z "},"":{"ha":618,"x_min":0,"x_max":0,"o":"m 81 -21 b 183 3 111 -21 146 -14 b 301 83 224 21 263 49 b 386 -17 318 8 357 -17 b 406 1 396 -17 406 -12 b 389 18 406 10 400 17 b 332 113 358 22 340 54 b 658 790 511 296 658 625 b 586 892 658 838 643 892 b 293 186 431 892 293 439 b 296 124 293 167 293 146 b 169 35 254 85 213 54 b 81 14 136 21 107 14 b -21 57 35 14 0 33 b -46 121 -37 76 -46 99 b -32 168 -46 138 -42 153 b -29 178 -31 171 -29 175 b -47 194 -29 186 -36 194 b -61 186 -53 194 -58 192 b -81 121 -74 165 -81 143 b -47 35 -81 90 -69 60 b 81 -21 -21 4 24 -21 z m 589 857 b 624 792 618 857 624 819 b 328 157 624 654 496 342 l 328 186 b 589 857 328 442 463 857 z m 649 1044 b 619 1074 649 1060 636 1074 b 592 1044 604 1074 592 1060 b 619 1015 592 1028 604 1015 b 649 1044 636 1015 649 1028 z "},"":{"ha":279,"x_min":0,"x_max":0,"o":"m 47 -11 b 114 19 68 -11 92 -1 b 293 201 239 135 292 200 b 299 214 296 204 299 210 b 282 231 299 221 293 231 b 268 225 276 231 271 229 b 92 44 267 224 185 129 b 49 24 75 29 60 24 b 33 53 35 24 33 36 b 90 224 38 96 63 161 b 178 394 128 306 169 381 b 179 406 179 397 179 403 b 163 421 179 415 174 421 b 149 414 157 421 151 418 l 58 308 b -11 225 18 263 -4 233 b -15 214 -14 222 -15 218 b 1 196 -15 206 -8 196 b 13 201 6 196 8 197 b 75 274 28 217 36 228 b -1 47 44 210 -1 108 b 47 -11 -1 19 11 -11 z "},"":{"ha":782,"x_min":0,"x_max":0,"o":"m 149 -12 b 496 268 264 -12 410 154 b 639 482 528 310 551 344 b 536 250 606 407 571 326 b 393 -43 490 151 439 46 b 256 -112 349 -68 301 -90 b 13 -264 157 -160 64 -204 b -21 -344 -11 -293 -21 -321 b 83 -436 -21 -399 29 -436 b 179 -401 114 -436 147 -426 b 408 -89 297 -310 349 -207 l 419 -68 b 647 67 486 -29 576 15 b 796 201 703 107 749 149 b 801 215 799 204 801 211 b 785 232 801 225 796 232 b 771 225 779 232 774 229 b 629 96 719 168 674 128 b 450 -8 572 57 513 25 b 571 244 483 54 526 146 b 775 715 650 419 733 618 l 797 767 b 824 826 807 788 817 808 b 826 836 825 829 826 835 b 810 853 826 844 821 853 b 792 842 803 853 794 849 b 533 382 757 750 646 553 b 472 294 514 353 493 324 b 149 22 361 146 233 22 b 99 76 110 22 99 42 b 188 357 99 146 146 256 b 356 817 256 521 356 764 b 257 885 356 867 304 885 b 38 764 197 885 38 842 b 56 746 38 754 46 746 b 72 764 65 746 72 754 b 258 850 72 817 215 850 b 321 814 281 850 321 847 b 156 371 321 772 221 528 b 63 78 90 214 63 138 b 149 -12 63 29 88 -12 z m 365 -97 b 158 -374 313 -201 263 -293 b 83 -401 133 -393 107 -401 b 14 -347 47 -401 14 -378 b 40 -286 14 -328 24 -306 b 271 -143 85 -232 175 -187 b 365 -97 304 -128 365 -97 z "},"":{"ha":538,"x_min":0,"x_max":0,"o":"m 22 -439 b 100 -390 49 -439 76 -422 b 281 -39 150 -325 217 -185 b 549 201 353 11 429 67 b 553 213 551 204 553 208 b 538 231 553 221 549 231 b 524 225 533 231 528 229 b 307 22 432 121 365 65 b 460 401 388 210 454 388 b 461 408 461 404 461 407 b 443 425 461 417 453 425 b 431 419 438 425 433 422 b 261 219 431 419 307 274 b 92 44 213 161 160 107 b 49 24 75 29 60 24 b 33 53 35 24 33 36 b 90 224 38 96 63 161 b 178 394 128 306 169 381 b 179 406 179 397 179 403 b 163 421 179 415 174 421 b 149 414 157 421 151 418 l 58 308 b -11 225 18 263 -4 233 b -15 214 -14 222 -15 218 b 1 196 -15 206 -8 196 b 13 201 6 196 8 197 b 75 274 28 217 36 228 b -1 47 44 210 -1 108 b 47 -11 -1 19 11 -11 b 114 19 68 -11 92 -1 b 253 157 168 71 199 99 b 390 318 285 192 390 318 b 253 -17 358 235 307 107 b 85 -149 214 -44 150 -87 b -37 -364 -6 -235 -37 -311 b 22 -439 -37 -396 -25 -439 z m 225 -78 b 72 -369 169 -201 114 -315 b 22 -404 53 -396 35 -404 b -3 -364 3 -404 -3 -382 b 110 -174 -3 -319 31 -249 b 225 -78 153 -133 190 -104 z m 547 553 b 519 583 547 568 539 583 b 483 543 500 583 483 565 b 510 511 483 526 490 511 b 547 553 524 511 547 519 z m 282 565 b 254 596 282 581 274 596 b 218 556 235 596 218 578 b 244 524 218 539 225 524 b 282 565 258 524 282 532 z "},"":{"ha":574,"x_min":0,"x_max":0,"o":"m -28 -415 b 50 -393 -4 -415 22 -408 b 290 -18 150 -337 208 -214 b 588 201 396 33 474 74 b 592 213 590 204 592 208 b 575 231 592 222 586 231 b 563 225 571 231 567 229 b 310 31 467 117 396 74 b 544 647 400 249 499 486 b 554 714 551 671 554 693 b 371 881 554 813 481 881 b 79 510 178 881 79 694 b 214 61 79 285 207 72 b 228 53 217 56 222 53 b 246 69 236 53 246 60 b 243 79 246 72 244 76 b 115 511 240 82 115 293 b 371 846 115 669 192 846 b 519 715 450 846 519 800 b 511 657 519 697 517 678 b 263 7 465 499 368 260 b -3 -139 192 -26 110 -65 b -125 -317 -90 -196 -125 -264 b -28 -415 -125 -369 -86 -415 z m 243 -40 b 33 -362 172 -208 118 -315 b -28 -379 13 -374 -10 -379 b -90 -315 -68 -379 -90 -354 b 17 -168 -90 -272 -58 -217 b 243 -40 110 -108 181 -71 z m 274 969 b 286 974 278 969 282 971 l 431 1079 l 518 976 b 532 971 522 972 526 971 b 549 988 540 971 549 976 b 544 1000 549 992 547 996 l 447 1114 b 433 1119 444 1118 439 1119 b 424 1117 429 1119 426 1119 l 265 1003 b 257 988 260 1000 257 993 b 274 969 257 979 263 969 z "},"":{"ha":258,"x_min":0,"x_max":0,"o":"m -257 -439 b -179 -390 -231 -439 -203 -422 b 1 -39 -129 -325 -62 -185 b 269 201 74 11 150 67 b 274 213 272 204 274 208 b 258 231 274 221 269 231 b 244 225 254 231 249 229 b 28 22 153 121 86 65 b 181 401 108 210 175 388 b 182 408 182 404 182 407 b 164 425 182 417 174 425 b 151 419 158 425 154 422 l -18 219 b -22 208 -21 217 -22 213 b -4 192 -22 200 -15 192 b 8 197 1 192 6 193 l 111 318 b -26 -17 79 235 28 107 b -194 -149 -65 -44 -129 -87 b -317 -364 -285 -235 -317 -311 b -257 -439 -317 -396 -304 -439 z m -54 -78 b -207 -369 -110 -201 -165 -315 b -257 -404 -226 -396 -244 -404 b -282 -364 -276 -404 -282 -382 b -169 -174 -282 -319 -249 -249 b -54 -78 -126 -133 -89 -104 z m 58 513 b 71 517 63 513 67 514 l 215 622 l 303 519 b 317 514 307 515 311 514 b 333 531 325 514 333 519 b 329 543 333 535 332 539 l 232 657 b 218 663 229 661 224 663 b 208 660 214 663 211 663 l 50 546 b 42 531 44 543 42 536 b 58 513 42 522 47 513 z "},"":{"ha":729,"x_min":0,"x_max":0,"o":"m 163 -243 b 176 -236 168 -243 172 -240 b 247 -100 189 -219 247 -139 b 217 -68 247 -83 235 -68 b 188 -96 201 -68 188 -81 b 206 -124 188 -108 196 -119 b 149 -215 194 -149 171 -186 b 146 -225 146 -218 146 -221 b 163 -243 146 -233 151 -243 z m -3 -10 b 14 1 4 -10 11 -6 l 172 386 b 260 411 189 399 225 411 b 367 315 321 411 356 374 b 425 54 392 176 403 104 b 501 -8 438 26 463 -8 b 581 31 533 -8 561 13 b 743 201 631 79 706 161 b 747 213 746 204 747 208 b 732 231 747 221 743 231 b 718 225 728 231 722 229 b 557 56 681 183 607 103 b 504 26 544 44 524 26 b 457 68 482 26 467 47 b 400 322 421 146 421 235 b 294 443 386 379 363 422 b 508 578 363 478 438 525 b 786 828 636 672 749 778 b 792 839 789 831 792 835 b 774 857 792 847 786 857 b 760 850 768 857 763 854 b 493 611 724 801 614 701 b 193 438 389 533 276 464 b 329 775 256 589 311 726 b 338 815 335 790 338 804 b 240 890 338 868 292 890 b 44 775 178 890 44 844 b 61 760 44 768 51 760 b 79 774 69 760 79 765 b 239 856 79 819 192 856 b 303 814 276 856 303 844 b 75 240 303 782 164 457 b -18 14 35 143 -1 58 b -19 6 -19 11 -19 8 b -3 -10 -19 -1 -14 -10 z "},"":{"ha":493,"x_min":0,"x_max":0,"o":"m 49 -246 b 63 -239 54 -246 58 -243 b 133 -103 75 -222 133 -142 b 103 -71 133 -86 121 -71 b 74 -99 88 -71 74 -83 b 92 -126 74 -111 82 -122 b 35 -218 81 -151 57 -189 b 32 -228 32 -221 32 -224 b 49 -246 32 -236 38 -246 z m -7 -19 b 11 -3 6 -19 8 -10 b 22 26 14 4 17 14 l 36 61 b 321 388 110 232 243 388 b 350 354 342 388 350 376 b 244 236 350 306 300 263 b 129 200 201 215 163 206 b 108 179 115 197 108 192 b 117 150 108 174 113 164 b 246 -6 140 79 174 -6 b 506 201 318 -6 379 65 b 511 214 508 204 511 210 b 494 231 511 222 506 231 b 481 225 490 231 483 229 b 251 29 372 111 303 29 b 147 168 185 29 153 143 b 385 354 251 183 385 258 b 319 422 385 390 363 422 b 119 274 253 422 165 335 b 157 367 132 307 144 338 b 342 594 226 450 292 531 b 474 822 426 703 474 779 b 418 889 474 856 454 889 b 329 825 393 889 360 872 b 126 385 289 764 221 617 b -11 225 86 336 46 290 b -15 214 -14 222 -15 218 b 3 196 -15 206 -7 196 b 15 203 7 196 13 199 b 85 282 39 228 61 256 l 4 76 b -24 6 -6 54 -15 29 b -25 -4 -25 1 -25 -3 b -7 -19 -25 -11 -19 -19 z m 418 854 b 439 821 433 854 439 838 b 201 475 439 772 321 619 b 358 807 288 679 333 768 b 418 854 381 840 403 854 z "},"":{"ha":788,"x_min":0,"x_max":0,"o":"m 26 -26 b 254 101 118 -26 196 29 l 275 88 b 508 -12 349 38 424 -12 b 576 -1 531 -12 553 -10 b 801 201 635 18 697 88 b 807 215 804 204 807 211 b 789 232 807 226 800 232 b 776 225 785 232 779 228 b 565 32 699 135 615 49 b 508 22 546 25 526 22 b 294 117 435 22 367 68 b 274 131 288 121 281 125 b 401 388 324 203 358 283 b 486 597 429 456 456 526 b 788 822 588 621 788 686 b 711 897 788 864 757 897 b 461 628 586 897 508 742 b 335 617 418 619 375 617 b 124 661 244 617 167 635 b 89 713 106 672 89 686 b 72 728 89 721 81 728 b 54 707 63 728 54 721 b 106 632 54 686 64 658 b 333 582 157 600 240 582 b 446 590 369 582 407 585 b 369 400 419 528 396 465 b 244 149 332 307 293 218 b 51 221 189 183 124 221 b -100 92 -31 221 -100 175 b 26 -26 -100 22 -46 -26 z m 49 186 b 225 121 114 183 171 156 b 25 8 178 63 108 8 b -65 90 -21 8 -65 38 b 49 186 -65 150 -11 186 z m 711 863 b 753 824 733 863 753 850 b 503 638 753 722 592 660 b 711 863 538 714 608 863 z m 667 971 b 678 974 671 971 674 972 l 840 1101 b 847 1117 844 1106 847 1111 b 831 1132 847 1125 842 1132 b 819 1129 826 1132 824 1132 l 656 1001 b 650 988 651 999 650 993 b 667 971 650 979 656 971 z "},"":{"ha":303,"x_min":0,"x_max":0,"o":"m 74 -10 b 315 201 144 -10 256 142 b 321 214 318 204 321 210 b 304 232 321 222 315 232 b 290 225 299 232 294 229 b 78 26 233 168 121 26 b 44 76 47 26 44 49 b 47 114 44 86 46 99 b 108 315 54 164 79 238 b 424 769 215 451 372 663 b 438 828 433 789 438 810 b 389 889 438 857 424 889 b 268 776 363 889 319 871 b 78 333 250 743 192 638 b -12 225 33 276 1 239 b -17 214 -15 222 -17 218 b 1 197 -17 206 -10 197 b 14 203 6 197 10 199 l 43 235 b 10 75 26 186 10 132 b 74 -10 10 36 26 -10 z m 388 854 b 403 828 399 854 403 842 b 392 785 403 817 400 801 b 153 429 351 703 247 554 b 299 760 192 528 246 668 b 388 854 339 831 371 854 z m 406 957 b 417 960 410 957 413 958 l 579 1088 b 586 1103 583 1092 586 1097 b 569 1118 586 1111 581 1118 b 558 1115 565 1118 563 1118 l 394 988 b 389 974 390 985 389 979 b 406 957 389 965 394 957 z "},"":{"ha":788,"x_min":0,"x_max":0,"o":"m 222 -247 b 236 -240 228 -247 232 -244 b 307 -104 249 -224 307 -143 b 276 -72 307 -87 294 -72 b 247 -100 261 -72 247 -85 b 265 -128 247 -112 256 -124 b 208 -219 254 -153 231 -190 b 206 -229 206 -222 206 -225 b 222 -247 206 -237 211 -247 z m 26 -26 b 254 101 118 -26 196 29 l 275 88 b 508 -12 349 38 424 -12 b 576 -1 531 -12 553 -10 b 801 201 635 18 697 88 b 807 215 804 204 807 211 b 789 232 807 226 800 232 b 776 225 785 232 779 228 b 565 32 699 135 615 49 b 508 22 546 25 526 22 b 294 117 435 22 367 68 b 274 131 288 121 281 125 b 401 388 324 203 358 283 b 486 597 429 456 456 526 b 788 822 588 621 788 686 b 711 897 788 864 757 897 b 461 628 586 897 508 742 b 335 617 418 619 375 617 b 124 661 244 617 167 635 b 89 713 106 672 89 686 b 72 728 89 721 81 728 b 54 707 63 728 54 721 b 106 632 54 686 64 658 b 333 582 157 600 240 582 b 446 590 369 582 407 585 b 369 400 419 528 396 465 b 244 149 332 307 293 218 b 51 221 189 183 124 221 b -100 92 -31 221 -100 175 b 26 -26 -100 22 -46 -26 z m 49 186 b 225 121 114 183 171 156 b 25 8 178 63 108 8 b -65 90 -21 8 -65 38 b 49 186 -65 150 -11 186 z m 711 863 b 753 824 733 863 753 850 b 503 638 753 722 592 660 b 711 863 538 714 608 863 z "},"":{"ha":303,"x_min":0,"x_max":0,"o":"m -36 -243 b -22 -236 -31 -243 -26 -240 b 49 -100 -10 -219 49 -139 b 18 -68 49 -83 36 -68 b -11 -96 3 -68 -11 -81 b 7 -124 -11 -108 -3 -119 b -50 -215 -4 -149 -28 -186 b -53 -225 -53 -218 -53 -221 b -36 -243 -53 -233 -47 -243 z m 74 -10 b 315 201 144 -10 256 142 b 321 214 318 204 321 210 b 304 232 321 222 315 232 b 290 225 299 232 294 229 b 78 26 233 168 121 26 b 44 76 47 26 44 49 b 47 114 44 86 46 99 b 108 315 54 164 79 238 b 424 769 215 451 372 663 b 438 828 433 789 438 810 b 389 889 438 857 424 889 b 268 776 363 889 319 871 b 78 333 250 743 192 638 b -12 225 33 276 1 239 b -17 214 -15 222 -17 218 b 1 197 -17 206 -10 197 b 14 203 6 197 10 199 l 43 235 b 10 75 26 186 10 132 b 74 -10 10 36 26 -10 z m 388 854 b 403 828 399 854 403 842 b 392 785 403 817 400 801 b 153 429 351 703 247 554 b 299 760 192 528 246 668 b 388 854 339 831 371 854 z "},"":{"ha":788,"x_min":0,"x_max":0,"o":"m 26 -26 b 254 101 118 -26 196 29 l 275 88 b 508 -12 349 38 424 -12 b 576 -1 531 -12 553 -10 b 801 201 635 18 697 88 b 807 215 804 204 807 211 b 789 232 807 226 800 232 b 776 225 785 232 779 228 b 565 32 699 135 615 49 b 508 22 546 25 526 22 b 294 117 435 22 367 68 b 274 131 288 121 281 125 b 401 388 324 203 358 283 b 486 597 429 456 456 526 b 788 822 588 621 788 686 b 711 897 788 864 757 897 b 461 628 586 897 508 742 b 335 617 418 619 375 617 b 124 661 244 617 167 635 b 89 713 106 672 89 686 b 72 728 89 721 81 728 b 54 707 63 728 54 721 b 106 632 54 686 64 658 b 333 582 157 600 240 582 b 446 590 369 582 407 585 b 369 400 419 528 396 465 b 244 149 332 307 293 218 b 51 221 189 183 124 221 b -100 92 -31 221 -100 175 b 26 -26 -100 22 -46 -26 z m 49 186 b 225 121 114 183 171 156 b 25 8 178 63 108 8 b -65 90 -21 8 -65 38 b 49 186 -65 150 -11 186 z m 711 863 b 753 824 733 863 753 850 b 503 638 753 722 592 660 b 711 863 538 714 608 863 z m 835 707 b 849 714 840 707 844 710 b 919 850 861 731 919 811 b 889 882 919 867 907 882 b 860 854 874 882 860 869 b 878 826 860 842 868 831 b 821 735 867 801 843 764 b 818 725 818 732 818 729 b 835 707 818 717 824 707 z "},"":{"ha":303,"x_min":0,"x_max":0,"o":"m 74 -10 b 315 201 144 -10 256 142 b 321 214 318 204 321 210 b 304 232 321 222 315 232 b 290 225 299 232 294 229 b 78 26 233 168 121 26 b 44 76 47 26 44 49 b 47 114 44 86 46 99 b 108 315 54 164 79 238 b 424 769 215 451 372 663 b 438 828 433 789 438 810 b 389 889 438 857 424 889 b 268 776 363 889 319 871 b 78 333 250 743 192 638 b -12 225 33 276 1 239 b -17 214 -15 222 -17 218 b 1 197 -17 206 -10 197 b 14 203 6 197 10 199 l 43 235 b 10 75 26 186 10 132 b 74 -10 10 36 26 -10 z m 388 854 b 403 828 399 854 403 842 b 392 785 403 817 400 801 b 153 429 351 703 247 554 b 299 760 192 528 246 668 b 388 854 339 831 371 854 z m 456 700 b 469 707 461 700 465 703 b 540 843 482 724 540 804 b 510 875 540 860 528 875 b 481 847 494 875 481 863 b 499 819 481 835 489 824 b 442 728 488 794 464 757 b 439 718 439 725 439 722 b 456 700 439 710 444 700 z "},"":{"ha":788,"x_min":0,"x_max":0,"o":"m 26 -26 b 254 101 118 -26 196 29 l 275 88 b 508 -12 349 38 424 -12 b 576 -1 531 -12 553 -10 b 801 201 635 18 697 88 b 807 215 804 204 807 211 b 789 232 807 226 800 232 b 776 225 785 232 779 228 b 565 32 699 135 615 49 b 508 22 546 25 526 22 b 294 117 435 22 367 68 b 274 131 288 121 281 125 b 401 388 324 203 358 283 b 486 597 429 456 456 526 b 788 822 588 621 788 686 b 711 897 788 864 757 897 b 461 628 586 897 508 742 b 335 617 418 619 375 617 b 124 661 244 617 167 635 b 89 713 106 672 89 686 b 72 728 89 721 81 728 b 54 707 63 728 54 721 b 106 632 54 686 64 658 b 333 582 157 600 240 582 b 446 590 369 582 407 585 b 369 400 419 528 396 465 b 244 149 332 307 293 218 b 51 221 189 183 124 221 b -100 92 -31 221 -100 175 b 26 -26 -100 22 -46 -26 z m 49 186 b 225 121 114 183 171 156 b 25 8 178 63 108 8 b -65 90 -21 8 -65 38 b 49 186 -65 150 -11 186 z m 711 863 b 753 824 733 863 753 850 b 503 638 753 722 592 660 b 711 863 538 714 608 863 z m 574 447 b 544 476 574 463 561 476 b 517 447 529 476 517 463 b 544 418 517 431 529 418 b 574 447 561 418 574 431 z "},"":{"ha":303,"x_min":0,"x_max":0,"o":"m 74 -10 b 315 201 144 -10 256 142 b 321 214 318 204 321 210 b 304 232 321 222 315 232 b 290 225 299 232 294 229 b 78 26 233 168 121 26 b 44 76 47 26 44 49 b 47 114 44 86 46 99 b 108 315 54 164 79 238 b 424 769 215 451 372 663 b 438 828 433 789 438 810 b 389 889 438 857 424 889 b 268 776 363 889 319 871 b 78 333 250 743 192 638 b -12 225 33 276 1 239 b -17 214 -15 222 -17 218 b 1 197 -17 206 -10 197 b 14 203 6 197 10 199 l 43 235 b 10 75 26 186 10 132 b 74 -10 10 36 26 -10 z m 388 854 b 403 828 399 854 403 842 b 392 785 403 817 400 801 b 153 429 351 703 247 554 b 299 760 192 528 246 668 b 388 854 339 831 371 854 z m 335 446 b 306 475 335 461 322 475 b 278 446 290 475 278 461 b 306 417 278 429 290 417 b 335 446 322 417 335 429 z "},"":{"ha":788,"x_min":0,"x_max":0,"o":"m 568 463 b 578 478 575 465 578 471 b 563 496 578 486 574 496 b 554 494 560 496 557 496 l 419 432 b 486 597 440 486 463 542 b 788 822 588 621 788 686 b 711 897 788 864 757 897 b 461 628 586 897 508 742 b 335 617 418 619 375 617 b 124 661 244 617 167 635 b 89 713 106 672 89 686 b 72 728 89 721 81 728 b 54 707 63 728 54 721 b 106 632 54 686 64 658 b 333 582 157 600 240 582 b 446 590 369 582 407 585 b 374 410 421 531 399 472 l 203 331 b 192 315 196 328 192 322 b 210 297 192 306 199 297 b 217 299 213 297 214 297 l 354 363 b 244 149 322 283 286 208 b 51 221 189 183 124 221 b -100 92 -31 221 -100 175 b 26 -26 -100 22 -46 -26 b 254 101 118 -26 196 29 l 275 88 b 508 -12 349 38 424 -12 b 576 -1 531 -12 553 -10 b 801 201 635 18 697 88 b 807 215 804 204 807 211 b 789 232 807 226 800 232 b 776 225 785 232 779 228 b 565 32 699 135 615 49 b 508 22 546 25 526 22 b 294 117 435 22 367 68 b 274 131 288 121 281 125 b 400 383 322 201 357 281 z m 49 186 b 225 121 114 183 171 156 b 25 8 178 63 108 8 b -65 90 -21 8 -65 38 b 49 186 -65 150 -11 186 z m 711 863 b 753 824 733 863 753 850 b 503 638 753 722 592 660 b 711 863 538 714 608 863 z "},"":{"ha":303,"x_min":0,"x_max":0,"o":"m 74 -10 b 315 201 144 -10 256 142 b 321 214 318 204 321 210 b 304 232 321 222 315 232 b 290 225 299 232 294 229 b 78 26 233 168 121 26 b 44 76 47 26 44 49 b 47 114 44 86 46 99 b 108 315 54 164 79 238 b 368 672 189 417 297 561 l 457 714 b 467 731 463 717 467 724 b 451 747 467 739 461 747 b 443 746 449 747 446 747 l 400 726 b 424 769 410 742 417 756 b 438 828 433 789 438 810 b 389 889 438 857 424 889 b 268 776 363 889 319 871 b 197 631 258 757 235 715 l 92 582 b 81 567 85 579 81 574 b 99 549 81 557 88 549 b 106 550 101 549 103 549 l 176 583 b 78 333 149 519 117 439 b -12 225 33 276 1 239 b -17 214 -15 222 -17 218 b 1 197 -17 206 -10 197 b 14 203 6 197 10 199 l 43 235 b 10 75 26 186 10 132 b 74 -10 10 36 26 -10 z m 388 854 b 403 828 399 854 403 842 b 392 785 403 817 400 801 b 342 699 379 761 363 732 l 244 653 b 299 760 263 692 281 728 b 388 854 339 831 371 854 z m 153 429 b 224 606 172 481 197 543 l 306 643 b 153 429 260 575 206 499 z "}}}
